<svg width="212" height="52" viewBox="0 0 212 52" xmlns="http://www.w3.org/2000/svg"><title>11B74CE4-AFB5-4C8C-8A84-AAC7851AA194</title><path d="M33.422 19.976L26.992 0l-6.41 19.976H0L16.66 32.2 10.306 52l16.676-12.225L43.642 52 37.37 32.158l16.62-12.182H33.423zm49.065 1.544c.744-.568 1.76-.852 3.044-.852 1.272 0 2.28.334 3.024 1.003.744.67 1.118 1.614 1.118 2.83h7.178c0-1.818-.472-3.433-1.416-4.85-.944-1.415-2.266-2.505-3.968-3.27-1.704-.767-3.626-1.149-5.774-1.149-2.202 0-4.184.352-5.948 1.056-1.764.704-3.126 1.688-4.092 2.954-.962 1.264-1.446 2.723-1.446 4.377 0 3.322 1.934 5.932 5.804 7.833 1.19.586 2.72 1.196 4.594 1.824 1.874.628 3.182 1.238 3.928 1.824.744.59 1.118 1.41 1.118 2.46 0 .93-.346 1.651-1.036 2.163-.69.514-1.63.77-2.82.77-1.86 0-3.204-.378-4.03-1.136-.828-.76-1.24-1.94-1.24-3.54h-7.218c0 1.969.496 3.708 1.488 5.218.99 1.512 2.466 2.702 4.428 3.57 1.962.868 4.154 1.3 6.574 1.3 3.432 0 6.132-.746 8.1-2.234 1.968-1.492 2.954-3.542 2.954-6.151 0-3.27-1.614-5.832-4.84-7.691-1.326-.766-3.022-1.48-5.086-2.142-2.064-.662-3.506-1.306-4.328-1.928-.822-.622-1.23-1.316-1.23-2.082.002-.87.374-1.59 1.12-2.157zm41.794-1.024c-.962-1.552-2.324-2.75-4.08-3.588-1.758-.842-3.778-1.262-6.062-1.262h-11.914v29.857h7.2v-10.13h4.594c3.636 0 6.496-.871 8.582-2.615 2.086-1.742 3.126-4.07 3.126-6.981-.002-1.972-.484-3.732-1.446-5.281zm-6.952 8.273c-.732.698-1.796 1.046-3.192 1.046h-4.714v-8.613h4.796c1.3.014 2.324.438 3.078 1.271.75.834 1.126 1.948 1.126 3.342.002 1.272-.364 2.256-1.094 2.954zm18.894-13.125l-10.95 29.857h7.69l1.722-5.578h9.866l1.742 5.578h7.73l-11.032-29.857h-6.768zm.186 18.722l3.2-10.355 3.22 10.355h-6.42zm43.26-4.547c.84-1.366 1.263-3.086 1.263-5.162 0-2.868-1-5.085-2.996-6.657-1.996-1.57-4.764-2.356-8.304-2.356h-11.75v29.857h7.198V34.94h3.896l5.27 10.56h7.71v-.307l-6.234-12.053c1.792-.85 3.106-1.954 3.948-3.321zm-6.953-1.494c-.692.72-1.718 1.08-3.086 1.08h-4.552v-8.223h4.552c1.354 0 2.378.368 3.076 1.1.698.733 1.044 1.745 1.044 3.033 0 1.288-.342 2.29-1.034 3.01zm39.282-12.68h-8.9l-6.44 9.37-2.502 3.794V15.644h-7.198v29.857h7.198v-7.875l2.954-3.24 6.358 11.115H212l-10.09-16.65 10.088-13.207z" fill-rule="nonzero" fill="#FFF"/></svg>