<svg width="246" height="60" viewBox="0 0 246 60" xmlns="http://www.w3.org/2000/svg"><title>1136CDEA-8D7E-42AA-BD19-510E0DCFF62F</title><g fill-rule="nonzero" fill="none"><path d="M38.823 40.635c-2.597-.144-5.23.108-7.828-.54-3.475-.898-6.459-2.732-9.302-4.818-2.176-1.618-4.317-3.272-6.529-4.819-2.668-1.906-5.616-2.805-8.88-2.66-2.072.071-4.178-.037-6.284-.073v-.36a17.134 17.134 0 0 0 0-7.55v-.36c1.615-.036 3.265-.216 4.88-.036 5.72.647 10.144-2.122 14.25-5.61 5.722-4.819 12.006-8.02 19.658-7.264.175-.252.07-.36-.176-.432-1.053-1.079-2.035-2.23-3.194-3.236-.983-.863-1.158-1.726-.702-2.877h.702c2.001.575 3.967.575 5.968 0h.35c3.51 2.59 6.249 6.041 9.338 9.098 1.228 1.223 1.228 2.301 0 3.596a728.55 728.55 0 0 1-7.301 7.516c-.913.935-2.001 1.402-3.335 1.33-1.475-.036-2.914-.036-4.388-.036-.667 0-1.334-.036-1.65-.755-.316-.791.316-1.223.737-1.654 1.194-1.223 2.387-2.41 3.791-3.848-3.58-.395-6.704-.144-9.653 1.654-2.983 1.798-5.616 4.1-8.46 6.114-.666.467-.561.719.036 1.15 2.703 1.906 5.3 3.848 7.933 5.718 2.984 2.086 6.353 2.481 10.32 2.014-1.51-1.475-2.773-2.733-4.037-3.992-.421-.431-.913-.863-.561-1.546.28-.611.877-.72 1.474-.72 1.58 0 3.159 0 4.739.037 1.228.036 2.246.503 3.124 1.402 2.387 2.481 4.809 4.927 7.16 7.372 1.3 1.366 1.334 2.373.07 3.704-2.386 2.481-4.773 4.926-7.16 7.408-.913.935-2 1.438-3.3 1.438-1.65 0-3.264-.072-4.914-.108-.491 0-.948-.108-1.193-.575-.316-.576 0-1.043.386-1.439 1.228-1.258 2.492-2.517 3.72-3.811.281-.072.387-.18.211-.432z" fill="#E9A520"/><path d="M222.673 59.965c0-1.162.069-2.359-.034-3.52-.103-1.373.308-1.866 1.71-1.795 3.284.105 6.602 0 9.817-.67 3.66-.774 6.225-4.118 6.259-7.954.068-7.85 0-15.735.034-23.584 0-.775.068-1.584-1.06-1.514-3.25.176-6.465-.14-9.714.282-5.438.739-8.004 6.758-7.183 11.65 1.163 7.076 8.722 9.258 14.503 5.985 1.333-.74 1.436-.458 1.436.88 0 4.153-1.129 5.42-5.883 5.808-6.84.528-13.476-3.52-15.118-10.877-1.881-8.413 2.36-16.227 10.945-18.515.582-.141 1.232-.141 1.881-.141H246v30.624c-.103.14-.274.282-.274.422-.718 6.336-4.514 9.856-10.055 11.898-1.334.493-2.77.387-4.036 1.056-3.045-.035-5.986-.035-8.962-.035z" fill="#DEE1F3"/><path d="M0 20c1.333 2.333 1.333 4.667 0 7v-7z" fill="#EBAC32"/><path d="M42 1c-2.012 1.333-3.988 1.333-6 0h6z" fill="#EFC36C"/><path d="M157.861 15.895c-2.29 4.051-4.405 7.854-6.591 11.585-.59 1.03-.66 1.493.59 1.99 3.503 1.422 5.134 4.407 5.793 8.031.451 2.452.312 4.94.347 7.428 0 .781-.243 1.101-1.006 1.03h-.347c-4.093.142-4.198.142-4.093-4.051.208-7.89-5.62-9.88-11.17-9.24-1.007.107-1.007.676-1.007 1.457 0 3.448-.035 6.86.035 10.306.034 1.244-.347 1.6-1.561 1.564-3.816-.036-3.816.035-3.816-3.838 0-12.794.034-25.551-.035-38.345 0-1.386.312-1.812 1.7-1.812 3.642.071 3.642 0 3.642 3.696 0 6.752.035 13.504-.034 20.22 0 1.244.208 1.564 1.63 1.813 3.226.568 4.44-1.173 5.585-3.696 1.11-2.417 2.498-4.655 3.678-7.036.416-.853.97-1.209 1.908-1.138 1.526.107 2.983.036 4.752.036z" fill="#15A9E0"/><path d="M106 30.588C105.965 39.33 99.387 46.035 90.86 46 82.44 45.93 75.966 39.084 76 30.307c.035-8.671 6.613-15.377 15.035-15.306 8.422.035 15 6.88 14.965 15.587zm-5.534.035c.035-5.266-2.714-9.233-7.065-10.146-4.802-1.018-9.048.983-10.893 5.126-2.088 4.669-.835 10.637 2.854 13.41a8.52 8.52 0 0 0 2.958 1.405c6.717 1.72 12.111-2.633 12.146-9.795z" fill="#16A9E0"/><path d="M195.895 15.018c8.387-.388 15.208 7.022 15.104 15.526-.105 8.469-6.264 15.526-15.104 15.455-8.526-.035-14.86-6.81-14.895-15.667-.035-8.715 6.786-15.737 14.895-15.314zm.104 5.293c-5.811-.494-9.5 4.376-9.43 10.092.069 6.21 3.758 10.304 9.36 10.374 5.882.07 9.536-4.834 9.536-10.198-.034-5.928-3.758-10.762-9.466-10.268z" fill="#DEE1F3"/><path d="M56 21.105c.831-1.71 1.482-3.099 2.169-4.452.108-.25.361-.677.506-.677 2.096.071 1.662-1.46 1.843-2.67.831-5.841 5.891-10.4 12.361-11.148 3.072-.356 2.928-.356 3.108 2.707.109 1.923-.47 2.493-2.385 2.635-4.554.356-7.229 3.063-7.482 7.016-.072 1.033.253 1.353 1.265 1.318 1.627-.072 3.253 0 4.88-.036.867-.036 1.084.285 1.12 1.14.18 4.167.217 4.167-4.012 4.167-3.289 0-3.289 0-3.289 3.276 0 6.517-.036 13.07.036 19.587.036 1.496-.253 2.066-1.915 2.03-3.904-.142-3.904-.035-3.904-3.953 0-6.303-.072-12.571.036-18.875.036-1.638-.397-2.315-2.096-2.065-.65.106-1.301 0-2.241 0z" fill="#15A9E0"/><path d="M169.32 19.185c0 4.879.033 9.721-.034 14.6 0 1.21.2 2.35.433 3.489.398 2.03 2.293 3.525 4.652 3.489 1.396 0 1.629.57 1.629 1.887-.033 3.632 0 3.525-3.324 3.205-5.45-.534-8.042-3.846-8.375-9.614-.598-10.824-.066-21.684-.299-32.509-.033-1.175.332-1.673 1.529-1.709 3.689-.107 3.822 0 3.822 3.846-.033 4.415-.033 8.866-.033 13.316z" fill="#DEE1F3"/><path d="M113.036 35.34c.108-2.904-.18-6.375.216-9.881.684-5.88 3.565-8.784 9.58-9.28 2.629-.212 5.258-.106 7.923-.177.864-.035 1.116.32 1.152 1.134.252 4.214.288 4.179-3.961 4.214-1.62 0-3.242-.035-4.862.107-2.413.247-3.602 1.416-4.106 3.754-.288 1.452-.324 2.94-.324 4.391 0 4.958-.036 9.917.036 14.875 0 1.133-.252 1.523-1.476 1.523C113 46 113 46.07 113 41.856c.036-1.948.036-3.966.036-6.516z" fill="#19AAE0"/><path d="M39.5 41c.5.583.2.833-.5 1 .1-.333.3-.667.5-1zM39.5 7c-.2-.333-.3-.667-.5-1 .7.167 1 .5.5 1z" fill="#F2CC82"/></g></svg>