<svg xmlns="http://www.w3.org/2000/svg" width="16" height="16" viewBox="0 0 16 16"><path fill="#FFF" d="M15.415 4.829l-.707.707-4.243-4.243.707-.707a2 2 0 0 1 2.829 0L15.415 2c.78.781.78 2.048 0 2.829zm-9.9 8.485a.5.5 0 1 0 .707.706L14 6.243l-.708-.707-7.779 7.778zM1.977 9.778a.5.5 0 1 0 .708.707l7.779-7.777L9.758 2l-7.78 7.778zm9.193-6.364l-7.779 7.778a1 1 0 0 0 1.416 1.413l7.778-7.776-1.415-1.415zM4.806 14.726c-.24-.24-.355-.543-.398-.856-.101.016-.204.03-.308.03a1.987 1.987 0 0 1-1.414-.586 1.988 1.988 0 0 1-.586-1.415c0-.097.014-.192.028-.287a1.483 1.483 0 0 1-.856-.42c-.023-.022-.03-.052-.051-.077L0 16l4.872-1.22c-.022-.02-.046-.034-.066-.054z"/></svg>