<svg width="95" height="95" viewBox="0 0 95 95" xmlns="http://www.w3.org/2000/svg"><title>3190EE1F-34F1-453A-9C56-44E38121F403</title><g fill="none" fill-rule="evenodd"><circle cx="45.5" cy="45.5" r="45.5" transform="translate(2 2)" stroke-width="3" stroke="#979797" opacity=".5"/><path d="M58.134 27.009L52.617 27c-6.198 0-10.203 4.057-10.203 10.336v4.766h-5.547a.862.862 0 0 0-.867.857v6.905c0 .473.389.856.867.856h5.547v17.424c0 .473.388.856.868.856h7.237c.479 0 .867-.384.867-.856V50.72h6.485c.48 0 .868-.383.868-.856l.003-6.905a.852.852 0 0 0-.254-.606.873.873 0 0 0-.614-.251h-6.488v-4.04c0-1.942.469-2.927 3.03-2.927l3.717-.002a.862.862 0 0 0 .867-.856v-6.412a.862.862 0 0 0-.866-.856z" fill-rule="nonzero" fill="#C4C4C4"/></g></svg>