<svg width="28" height="58" viewBox="0 0 28 58" xmlns="http://www.w3.org/2000/svg"><title>0D9A9045-D79E-4741-AA82-455C2FEDE038</title><path d="M24.412 27.052c-1.127-.865-2.271-1.505-3.417-1.914-1.14-.406-2.756-.704-4.939-.912-2.04-.194-3.498-.377-4.336-.546a3.425 3.425 0 0 1-1.573-.852c-.227-.21-.528-.584-.528-1.416v-1.326c0-2.287.413-3.024.59-3.235.21-.25.823-.668 2.567-.668h1.91c1.836 0 2.433.427 2.603.609.207.222.555.86.555 2.632v.464c0 1.557.87 2.524 2.273 2.524h5.073c1.402 0 2.273-.967 2.273-2.524v-1.26c0-3.636-.915-6.571-2.72-8.725-1.646-1.96-3.84-3.048-6.53-3.244V2.525C18.213.967 17.342 0 15.94 0h-3.581c-1.402 0-2.274.967-2.273 2.525v4.102c-.573 0-1.03.507-1.03 1.133s.457 1.133 1.02 1.133h1.03c.563 0 1.02-.507 1.02-1.133V2.525a1 1 0 0 1 .021-.235c.034-.01.1-.024.212-.024h3.58c.112 0 .178.013.212.024a1 1 0 0 1 .022.235V7.76c0 .625.457 1.133 1.02 1.133h.12c2.551 0 4.493.835 5.937 2.555 1.442 1.72 2.173 4.135 2.173 7.18v1.26a1 1 0 0 1-.022.234.737.737 0 0 1-.211.024h-5.073a.739.739 0 0 1-.211-.024 1 1 0 0 1-.022-.234v-.464c0-2.017-.385-3.41-1.177-4.262-.783-.838-2.098-1.245-4.02-1.245h-1.91c-1.945 0-3.272.453-4.058 1.386-.767.912-1.14 2.476-1.14 4.783v1.326c0 1.301.437 2.393 1.262 3.156a5.415 5.415 0 0 0 2.473 1.332c.938.19 2.424.38 4.568.584 2 .19 3.511.463 4.49.811.952.34 1.913.879 2.857 1.603 1.812 1.449 2.731 4.17 2.731 8.088v2.518c0 3.16-.75 5.52-2.293 7.213-1.546 1.698-3.625 2.523-6.355 2.523h-.119c-.563 0-1.02.507-1.02 1.132v5.103a1 1 0 0 1-.022.235.742.742 0 0 1-.211.024h-3.58a.739.739 0 0 1-.212-.024 1 1 0 0 1-.022-.235v-5.103c0-.625-.457-1.132-1.02-1.132h-.418c-2.763 0-4.838-.832-6.342-2.542C2.835 44.98 2.1 42.628 2.1 39.504v-1.26c0-.123.012-.197.022-.234.033-.01.1-.024.211-.024h5.073c.111 0 .177.014.211.024.01.037.022.11.022.235v.464c0 2.026.399 3.424 1.219 4.274.8.83 2.1 1.232 3.978 1.232h2.387c1.843 0 3.14-.429 3.962-1.313.832-.893 1.236-2.374 1.236-4.525v-.994c0-1.425-.41-2.573-1.22-3.413a5.572 5.572 0 0 0-2.536-1.53c-.792-.194-2.208-.396-4.359-.625-2.014-.212-3.528-.478-4.498-.789-.929-.297-1.898-.816-2.88-1.544-1.92-1.37-2.888-4.194-2.888-8.401v-2.452c0-2.348.413-4.303 1.227-5.811.29-.537.133-1.232-.35-1.554-.484-.322-1.11-.147-1.4.39C.51 13.517 0 15.864 0 18.628v2.452c0 5.023 1.28 8.486 3.803 10.292 1.155.853 2.312 1.47 3.44 1.83 1.106.355 2.7.639 4.87.868 2.023.215 3.392.407 4.07.571.625.177 1.158.5 1.626.985.385.399.572.973.572 1.756v.994c0 1.946-.385 2.651-.614 2.897-.287.308-.962.676-2.544.676h-2.387c-1.727 0-2.361-.39-2.586-.623-.213-.221-.571-.855-.571-2.618v-.464c0-1.557-.871-2.525-2.273-2.525H2.333C.93 35.72.06 36.688.06 38.245v1.259c0 3.693.95 6.646 2.826 8.777 1.766 2.008 4.186 3.086 7.2 3.212v3.982c0 1.558.87 2.525 2.273 2.525h3.58c1.403 0 2.274-.967 2.274-2.525v-3.998c2.835-.182 5.149-1.24 6.888-3.148C27.025 46.218 28 43.249 28 39.504v-2.518c0-4.695-1.207-8.037-3.588-9.934z" fill-rule="nonzero" fill="#FFF" opacity=".88"/></svg>