<svg width="95" height="95" viewBox="0 0 95 95" xmlns="http://www.w3.org/2000/svg"><title>8FFFD408-390F-4D9C-8BE6-E3C594058CA5</title><g fill="none" fill-rule="evenodd"><circle cx="45.5" cy="45.5" r="45.5" stroke-width="3" stroke="#979797" opacity=".5" transform="translate(2 2)"/><path d="M28.688 47.32l8.98 3.352 3.475 11.178c.222.715 1.098.98 1.679.505l5.005-4.08a1.493 1.493 0 0 1 1.82-.051l9.028 6.554a1.058 1.058 0 0 0 1.658-.64l6.613-31.81a1.059 1.059 0 0 0-1.417-1.203L28.678 45.34c-.91.35-.902 1.638.01 1.98zm11.895 1.568L58.132 38.08c.315-.194.64.233.369.484L44.018 52.026a3.002 3.002 0 0 0-.93 1.797l-.494 3.656c-.065.488-.75.536-.886.064l-1.897-6.667c-.217-.76.1-1.573.772-1.988z" fill-rule="nonzero" fill="#BCBCBC"/></g></svg>