<svg width="95" height="95" viewBox="0 0 95 95" xmlns="http://www.w3.org/2000/svg"><title>3B0EAB91-EDA1-48DB-828A-2D9138F8EA56</title><g transform="translate(2 2)" fill="none" fill-rule="evenodd"><g fill-rule="nonzero" fill="#BCBCBC"><path d="M45.154 51.154l-4.492-3.932L27.82 58.231a2.629 2.629 0 0 0 1.792.703h31.084c.692 0 1.32-.27 1.784-.703L49.645 47.222l-4.491 3.932z"/><path d="M62.488 33.703A2.612 2.612 0 0 0 60.696 33H29.612c-.693 0-1.32.27-1.787.708L45.154 48.56l17.334-14.857zM27 35.277v21.546l12.534-10.651zM50.774 46.172l12.533 10.65V35.27z"/></g><circle stroke="#979797" stroke-width="3" opacity=".5" cx="45.5" cy="45.5" r="45.5"/></g></svg>