<svg width="95" height="95" viewBox="0 0 95 95" xmlns="http://www.w3.org/2000/svg"><title>F6E62E51-6513-4698-B390-951CBC70F050</title><g fill="none" fill-rule="evenodd"><circle cx="45.5" cy="45.5" r="45.5" stroke-width="3" stroke="#979797" opacity=".5" transform="translate(2 2)"/><path d="M66.709 35.748a15.858 15.858 0 0 1-4.56 1.25 7.974 7.974 0 0 0 3.49-4.39 16.008 16.008 0 0 1-5.045 1.928 7.918 7.918 0 0 0-5.796-2.508 7.941 7.941 0 0 0-7.94 7.939c0 .621.07 1.228.205 1.809-6.599-.332-12.45-3.493-16.366-8.297a7.88 7.88 0 0 0-1.074 3.991 7.937 7.937 0 0 0 3.532 6.608 7.941 7.941 0 0 1-3.597-.996v.1c0 3.845 2.738 7.055 6.369 7.785a8.043 8.043 0 0 1-2.093.279c-.513 0-1.008-.051-1.495-.148a7.945 7.945 0 0 0 7.417 5.515 15.932 15.932 0 0 1-9.862 3.394c-.641 0-1.272-.04-1.894-.11a22.446 22.446 0 0 0 12.172 3.573c14.607 0 22.592-12.099 22.592-22.592l-.027-1.028a15.857 15.857 0 0 0 3.972-4.102z" fill-rule="nonzero" fill="#BCBCBC"/></g></svg>