<svg width="124" height="124" viewBox="0 0 124 124" xmlns="http://www.w3.org/2000/svg"><title>27A27615-45C5-49D2-83B8-DBF3127192C4</title><g transform="translate(2 2)" fill="none" fill-rule="evenodd"><g fill-rule="nonzero" fill="#B0834D"><path d="M61.5 32c-4.686 0-8.5 3.814-8.5 8.5 0 4.687 3.814 8.5 8.5 8.5 4.687 0 8.5-3.814 8.5-8.5S66.187 32 61.5 32zm-.891 8.56h-1.07v-2.972h1.069v2.971zm0-4.756h-1.963c-.491 0-.89.4-.89.892v4.755c0 .492.399.892.891.892h1.962v2.02h-1.963a.892.892 0 1 0 0 1.784h1.963v1.009c-3.284-.438-5.826-3.255-5.826-6.656s2.542-6.218 5.826-6.656v1.96zm1.782 6.539h1.07v2.02h-1.07v-2.02zm0 4.813v-1.01h1.963a.891.891 0 0 0 .89-.891V41.45a.892.892 0 0 0-.891-.892H62.39v-2.971h1.963a.892.892 0 0 0 0-1.784H62.39v-1.96c3.284.438 5.826 3.255 5.826 6.656s-2.542 6.218-5.826 6.656zM77.095 72.63c-.46-.208-1.01-.022-1.229.416-1.271 2.547-3.996 4.193-6.944 4.193-.509 0-.922.394-.922.88 0 .487.413.881.922.881 3.655 0 7.034-2.04 8.609-5.196.219-.44.024-.965-.435-1.174h-.001zM77.078 61c-.51 0-.923.394-.923.88v5.635c0 .486.413.88.923.88.509 0 .922-.394.922-.88V61.88c0-.486-.413-.88-.922-.88z"/><path d="M81.512 50.424a.876.876 0 0 0-.783.434.89.89 0 0 0 0 .9.876.876 0 0 0 .783.433c2.613.003 4.731 2.137 4.734 4.77-.003 2.297-1.628 4.267-3.868 4.69-.259-6.754-5.792-12.17-12.557-12.17H54.78l-7.219-8.183a.873.873 0 0 0-.968-.24.883.883 0 0 0-.566.827v7.807c-5.844 1.083-10.286 6.255-10.286 12.453v.979l-3.01.505A.882.882 0 0 0 32 64.5v7.54c0 .43.31.8.732.87l3.33.559c1.224 5.383 5.818 9.357 11.28 9.778l.566 3.994a.879.879 0 0 0 .869.759h5.612a.879.879 0 0 0 .867-.759l.56-3.953h8.368l.56 3.953a.879.879 0 0 0 .868.759h5.611a.879.879 0 0 0 .869-.759l.608-4.288c5.68-1.34 9.695-6.449 9.689-12.328v-7.187C85.552 63.005 88 60.266 88 56.962c0-3.605-2.91-6.538-6.488-6.538zM33.753 71.29V65.25l1.988-.334v5.71c0 .336.015.672.041 1.006l-2.029-.34zm14.03-27.083l4.653 5.274h-4.653v-5.274zm5.845 42.026h-4.09l-.418-2.946h4.925l-.417 2.946zm16.835 0h-4.091l-.417-2.946h3.866c.355 0 .711-.016 1.066-.046l-.424 2.992zm10.172-23.618v8.01a10.924 10.924 0 0 1-3.164 7.708 10.76 10.76 0 0 1-7.65 3.188H48.309l-.157-.003h-.028c-5.162-.087-9.562-3.862-10.462-8.975a11.082 11.082 0 0 1-.167-1.919v-8.48c0-6.008 4.85-10.896 10.814-10.896h21.513c5.962 0 10.814 4.887 10.814 10.896v.471h-.001z"/><path d="M43.699 58.705c-2.042.002-3.697 1.634-3.699 3.648.003 2.013 1.657 3.645 3.699 3.647 2.04-.003 3.695-1.634 3.698-3.647-.003-2.013-1.657-3.645-3.698-3.648zm0 5.559c-1.07-.001-1.937-.857-1.938-1.912.002-1.054.868-1.909 1.938-1.91 1.07.002 1.936.856 1.937 1.911-.001 1.055-.868 1.91-1.937 1.91zM68.119 55H52.152a.874.874 0 0 0-.881.869V60.5c0 .48.395.868.88.868H68.12c.486 0 .881-.388.881-.868V55.87a.874.874 0 0 0-.88-.869zm-.88 4.632H53.033v-2.896h14.206v2.896z"/></g><circle stroke="#FFF" stroke-width="4" opacity=".5" cx="60" cy="60" r="60"/></g></svg>