<svg width="124" height="124" viewBox="0 0 124 124" xmlns="http://www.w3.org/2000/svg"><title>95356501-8E9D-4B09-9535-29BFABDCEC4B</title><g transform="translate(2 2)" fill="none" fill-rule="evenodd"><circle stroke="#FFF" stroke-width="3" opacity=".5" cx="60" cy="60" r="60"/><g fill-rule="nonzero" fill="#B0834D"><path d="M60 41c-15.7 0-28 6.082-28 13.846v8.308C32 70.918 44.3 77 60 77s28-6.082 28-13.846v-8.308C88 47.082 75.7 41 60 41zm0 1.846c14.166 0 26.133 5.495 26.133 12s-11.967 12-26.133 12c-14.166 0-26.133-5.495-26.133-12s11.967-12 26.133-12zm4.384 25.684l.173-.015c.59-.046 1.172-.102 1.748-.165.075-.008.154-.013.228-.021v6.428a52.78 52.78 0 0 1-2.8.268v-6.453c.217-.014.435-.026.65-.042zm4.016-.448l.137-.022.263-.043a47.001 47.001 0 0 0 1.571-.276l.365-.07c.155-.032.31-.062.464-.095v6.376c-.906.204-1.842.381-2.8.535v-6.405zm4.667-.941c.365-.094.724-.19 1.079-.292l.294-.083.492-.149v6.31c-.604.197-1.227.383-1.866.558V67.14zm3.733-1.146c.266-.098.525-.2.784-.3.07-.028.14-.053.208-.081.298-.12.588-.243.875-.368v6.21c-.595.28-1.217.55-1.867.803v-6.264zm3.733-1.65l.1-.05.12-.063c.488-.265.966-.548 1.433-.848.071-.046.145-.09.215-.136v5.985c-.567.431-1.192.844-1.867 1.239v-6.126zM37.6 63.25c.07.046.145.091.217.137.083.053.166.107.25.158.38.236.772.466 1.182.689l.114.059.104.054v6.126c-.647-.376-1.27-.79-1.867-1.239V63.25zm3.733 1.996c.288.125.578.249.877.369.066.027.135.052.202.078.26.103.521.205.788.303v6.264a30.25 30.25 0 0 1-1.867-.804v-6.21zm3.734 1.373l.494.15.292.082c.355.1.714.198 1.08.292v6.345c-.626-.171-1.249-.357-1.866-.559v-6.31zm3.733.958l.465.095.363.07c.523.1 1.047.192 1.573.276l.26.043.139.022v6.406c-.939-.15-1.872-.329-2.8-.535v-6.377zm4.667.752c.075.008.153.013.228.02.576.064 1.158.12 1.748.166l.173.015c.215.016.434.028.65.041v6.453a51.827 51.827 0 0 1-2.8-.268v-6.427zm-19.6-5.174v-3.241c.029.038.065.073.095.11.215.271.441.538.688.8l.05.055c.264.277.552.547.851.812l.182.159v5.667c-1.197-1.36-1.866-2.832-1.866-4.362zm24.266 11.964V68.66c.617.02 1.238.032 1.867.032.63 0 1.25-.013 1.867-.032v6.458c-.622.023-1.245.035-1.867.036a54.281 54.281 0 0 1-1.867-.036zm28-15.205v3.24c0 1.531-.669 3.004-1.866 4.364V61.85a10.3 10.3 0 0 0 .183-.162c.298-.265.585-.534.849-.81l.052-.058c.247-.26.473-.527.687-.797.03-.037.066-.073.095-.11z"/><path d="M46.91 62.9l-.246.09 3.21.675c.45.094.913.167 1.37.248.091.016.18.034.27.049.888.152 1.78.279 2.675.379.334.037.667.075 1.005.104.635.06 1.27.107 1.907.141.12.007.238.015.357.02 1.649.08 3.301.08 4.95.003l.377-.02c.98-.055 1.96-.136 2.937-.246a50.85 50.85 0 0 0 2.699-.383l.169-.03c.448-.078.902-.148 1.34-.239l3.162-.654-.235-.088c6.9-1.987 11.3-5.389 11.3-8.549 0-4.846-10.345-10.267-24.192-10.267-13.846 0-24.192 5.421-24.192 10.267 0 3.135 4.333 6.508 11.138 8.5zm9.268-4.768c-1.913-.625-3.003-1.707-3.242-3.213l-.1-.634-.626-.133c-.413-.088-.548-.235-.574-.238l.214-.7c.026-.081.28-.36.877-.53l.418-.12.177-.397a4.726 4.726 0 0 1 .96-1.41c.174-.175.315-.305.43-.41.398-.364.647-.65.72-1.108l.016.005c1.362.499 2.935.55 4.018.506.162-.006.329-.01.5-.01 3.755 0 5.865.775 6.641 2.44l.18.386.41.117c.601.17.857.449.883.532l.221.657c-.019.037-.174.194-.581.28l-.625.133-.1.634c-.239 1.507-1.33 2.588-3.243 3.213l-.723.237.224 1.943c.076.662.568 1.242 1.284 1.509l1.571.59c-.183.023-.364.047-.55.068-.61.068-1.228.124-1.852.17-.293.021-.58.048-.879.065-1.92.105-3.843.104-5.763-.003-.3-.016-.59-.043-.884-.065a47.262 47.262 0 0 1-1.86-.174c-.187-.021-.371-.045-.555-.069l1.606-.581c.73-.265 1.231-.847 1.309-1.518l.222-1.935-.724-.237zM59.965 46c13.853 0 22.332 5.439 22.332 8.4 0 2.177-4.593 5.684-12.519 7.394l-4.59-1.721a.42.42 0 0 1-.096-.05l-.043-.381c2.348-.976 3.3-2.52 3.658-3.846.534-.216.95-.552 1.199-.976a1.8 1.8 0 0 0 .167-1.454l-.214-.7c-.214-.7-.859-1.298-1.757-1.647-1.6-2.81-5.382-3.146-8.137-3.146-.196 0-.388.005-.577.012-1.29.05-2.463-.087-3.302-.394-.467-.171-.672-.296-.752-.355-.402-.296-.922-.258-1.26-.087-.346.17-.567.52-.57.906 0 .21.016.458.061.734.01.06.02.114.026.159l-.134.12c-.133.121-.296.273-.497.475a6.61 6.61 0 0 0-1.156 1.585c-.886.35-1.52.943-1.733 1.637l-.214.699a1.8 1.8 0 0 0 .168 1.454c.248.424.663.76 1.197.976.359 1.327 1.31 2.87 3.66 3.846l-.044.372a.404.404 0 0 1-.1.052l-4.7 1.702c-7.854-1.717-12.404-5.2-12.404-7.366 0-2.961 8.478-8.4 22.331-8.4zm22.057 33.04c-.013-.018-.033-.026-.047-.043a.976.976 0 0 0-.142-.128c-.047-.035-.092-.07-.143-.096a.905.905 0 0 0-.12-.048l-.006-.002c-.011-.005-.024-.002-.036-.006a.934.934 0 0 0-.188-.038c-.021-.001-.04-.012-.062-.012h-4.652a.932.932 0 0 0-.93.933c0 .515.416.933.93.933h3.254c-1.194 2.788-3.122 5.6-6.046 5.6-2.008 0-3.993-1.803-5.59-5.076A.93.93 0 0 0 67 80.629a.935.935 0 0 0-.427 1.248C69.04 86.937 71.885 88 73.834 88c2.251 0 5.32-1.193 7.67-6.544l1.821 2.437a.927.927 0 0 0 1.666-.428.935.935 0 0 0-.177-.692l-2.792-3.733zM36.978 40.96c.012.016.03.021.043.036.064.076.14.135.226.187.03.02.055.046.089.06.03.015.064.02.096.032.002 0 .002.002.005.002.028.01.056.008.084.015.066.016.13.041.201.041h4.652c.514 0 .93-.418.93-.933a.932.932 0 0 0-.93-.933h-3.253c1.193-2.788 3.121-5.6 6.045-5.6 2.008 0 3.993 1.803 5.59 5.076a.93.93 0 0 0 1.244.428.935.935 0 0 0 .427-1.248C49.96 33.063 47.115 32 45.166 32c-2.251 0-5.32 1.193-7.67 6.544l-1.821-2.437a.929.929 0 0 0-1.303-.187.935.935 0 0 0-.186 1.307l2.792 3.733z"/></g></g></svg>