<svg width="124" height="124" viewBox="0 0 124 124" xmlns="http://www.w3.org/2000/svg"><title>72FE79EA-6806-4630-92FF-CB669F410346</title><g transform="translate(2 2)" fill="none" fill-rule="evenodd"><g fill-rule="nonzero" fill="#B0834D"><path d="M45.778 79a1.12 1.12 0 0 0-.18.015 2.99 2.99 0 0 0-.292-.015C43.51 79 42 80.6 42 82.5s1.511 3.5 3.306 3.5c.099 0 .196-.006.292-.015.058.01.118.015.18.015h26.445a.968.968 0 0 0 .166-.016c.101.01.203.016.306.016C74.49 86 76 84.4 76 82.5S74.49 79 72.695 79a2.99 2.99 0 0 0-.292.015c-.06-.01-.12-.015-.18-.015H45.778zm-1.889 3.5c0-.8.661-1.5 1.417-1.5.705 0 1.328.61 1.407 1.343l.002.011c.01.097.01.195 0 .292l-.002.01c-.079.734-.7 1.344-1.407 1.344-.756 0-1.417-.7-1.417-1.5zm4.722 0c0-.5-.094-1-.283-1.5h21.391a3.58 3.58 0 0 0 0 3H48.328c.184-.476.28-.985.283-1.5zm25.5 0c0 .8-.66 1.5-1.416 1.5-.705 0-1.329-.61-1.408-1.343l-.001-.011a1.447 1.447 0 0 1 0-.295c.076-.736.701-1.35 1.41-1.35.755 0 1.416.699 1.416 1.499z"/><path d="M78.864 59.646V58.6h.95c.57 0 .95-.38.95-.95s-.379-.95-.95-.95h-.95V39.54A3.816 3.816 0 0 0 82 35.8c0-2.09-1.711-3.8-3.801-3.8a3.815 3.815 0 0 0-3.752 3.191l-20.02 21.51h-.271c-1.616 0-2.852 1.234-2.852 2.85v6.65h-9.408C39.71 66.2 38 68.004 38 70.094v4.655c0 .57.38.95.95.95h14.255v.95h-9.027A6.166 6.166 0 0 0 38 82.826 6.162 6.162 0 0 0 44.178 89h29.459a6.166 6.166 0 0 0 6.177-6.175 6.162 6.162 0 0 0-6.177-6.174h-9.028V75.7h2.851c.57 0 .95-.38.95-.95v-3.434a.846.846 0 0 0 .095-.367v-7.41c0-2.28-1.14-4.37-3.04-5.7a6.566 6.566 0 0 0-.509-.305l3.036-4.054a.996.996 0 0 0 .345-.46l6.19-8.266a.996.996 0 0 0 .377-.502l2.059-2.749V56.7h-.95c-.57 0-.95.38-.95.95s.38.95.95.95h.95v1.9c0 .285.095.475.286.665.19.19.379.286.665.286 1.045 0 1.9.855 1.9 1.9s-.855 1.899-1.9 1.899a1.906 1.906 0 0 1-1.901-1.9c0-.57-.38-.95-.95-.95s-.95.38-.95.95c0 2.09 1.71 3.801 3.8 3.801 2.091 0 3.802-1.71 3.802-3.8 0-1.806-1.236-3.326-2.851-3.705zm-5.892-16.531l-3.576.44 3.347-3.579.23 3.139h-.001zm-6.557 8.74l-5.44.704 5.114-5.467.326 4.764zm1.52-6.175l3.909-.48-3.611 4.822-.298-4.342zm6.586-7.604l.351-.376c.121.181.253.351.396.514.308.373.688.687 1.116.922l-1.616 2.157-.247-3.218v.001zM78.2 33.9c1.045 0 1.9.855 1.9 1.9s-.855 1.9-1.9 1.9c-.327 0-.635-.083-.904-.229l-.006-.004a1.964 1.964 0 0 1-.982-1.488 1.905 1.905 0 0 1 1.892-2.08v.001zM66.506 63.316c.002.074.003.148.003.224v5.985l-6.652-2.375c-1.14-.474-1.9-1.52-1.9-2.755V58.6h3.611c1.995 0 3.802 1.235 4.561 3.135.249.496.353.991.375 1.55l.002.031zM45.602 68.1c0 1.045-.855 1.9-1.9 1.9h-3.797l.003-.049c.117-1.023.96-1.851 1.989-1.851h3.706zm32.312 14.725a4.256 4.256 0 0 1-4.277 4.276h-29.46a4.26 4.26 0 0 1-4.276-4.276 4.256 4.256 0 0 1 4.277-4.274h29.459a4.26 4.26 0 0 1 4.277 4.274zm-15.206-6.174h-7.602V75.7h7.603v.95h-.001zm.95-2.851H39.902v-1.9h3.801c2.09 0 3.802-1.71 3.802-3.8h4.751c.57 0 .95-.38.95-.95v-7.6c0-.475.38-.95.95-.95h1.996v5.795c0 2.09 1.235 3.895 3.136 4.56l7.222 2.61V73.8h-2.85zm-1.203-17.043a7.019 7.019 0 0 0-.887-.056h-4.466l1.811-1.938 6.38-.814-2.182 2.913a7.465 7.465 0 0 0-.655-.105h-.001z"/></g><circle stroke="#FFF" stroke-width="3" opacity=".5" cx="60" cy="60" r="60"/></g></svg>