<svg width="124" height="124" viewBox="0 0 124 124" xmlns="http://www.w3.org/2000/svg"><title>0C472C4D-7DEE-46F1-AB4A-4A5220926999</title><g transform="translate(2 2)" fill="none" fill-rule="evenodd"><path d="M40.165 59.697l-1.07-1.07a4.94 4.94 0 0 1-1.455-3.514c0-2.68 2.137-4.857 4.794-4.95a4.956 4.956 0 0 1 4.776-4.777 4.956 4.956 0 0 1 4.777-4.777c.068-1.947 1.253-3.376 2.94-4.128l-2.025-1.793h-1.866l-16.58 16.116v8.234l3.184 3.184 2.525-2.525zm2.252-32.775L27.155 42.184l5.709 5.708L48.126 32.63l-5.71-5.708h.001zm-4.312 7.766l3.184-3.184 2.252 2.252-3.185 3.184-2.25-2.252h-.001zm9.088 59.374l5.709-5.709-15.262-15.26-5.709 5.71 15.262 15.26v-.001zm-2.059-10.019l3.184 3.185-2.25 2.25-3.185-3.183 2.251-2.252zm40.269-26.871L68.821 41.057h-5.048l21.63 21.164v-5.049zm-13.67 29.591l5.71 5.707 15.261-15.26-5.709-5.71-15.262 15.263zm13.204-5.243l-2.253-2.253 3.184-3.184 2.251 2.251-3.182 3.186zM51.97 77.21V71.5l-9.553-9.552-3.185 3.185v5.05l16.58 17.045h5.05l-8.428-8.66c-.298-.3-.465-.936-.465-1.358h.001z"/><path d="M67.424 53.794l-2.253 2.25-11.748-11.747a1.787 1.787 0 0 0-2.525 2.525L62.646 58.57l-2.252 2.251-11.748-11.748a1.787 1.787 0 0 0-2.525 2.525L57.87 63.346l-2.25 2.251L43.87 53.85a1.787 1.787 0 0 0-2.525 2.525l18.116 18.117-2.25 2.251-2.06-2.057v1.866l8.62 9.085h5.05l16.58-17.047v-1.866l-26.599-26.6-.603-.603a1.787 1.787 0 0 0-2.525 2.525l11.75 11.749v-.001zm25.279-5.242L77.44 33.291 71.731 39l15.263 15.26 5.709-5.708zM79.5 43.308l-3.185-3.184 2.252-2.251 3.184 3.184-2.251 2.251z"/><g fill-rule="nonzero" fill="#B0834D"><path d="M77.535 61.474c0-.281-.113-.553-.311-.752l-.313-.313.313-.311c.198-.2.311-.47.311-.753v-3.818L90 43.062l-1.507-1.506-6.7 6.7L71.587 38.05l6.7-6.7L76.783 30 64.317 42.621H60.5c-.282 0-.553-.044-.752.157l-.312.234-.312-.35-.404-.423-3.855-3.71c-.2-.2-.47-.167-.752-.167h-1.689l-8.205-8.36-1.506 1.427 2.44 2.402-10.205 10.187-2.441-2.45-1.506 1.5 8.205 8.2v5.948c0 .282.112.552.313.753L42.4 60.85v3.377L31.001 75.627l1.505 1.504 5.636-5.634 10.206 10.206-5.635 5.635 1.505 1.66 11.4-11.242h3.818c.282 0 .553-.113.752-.312l.753-.753h3.377L76.783 89l1.505-1.584-6.699-6.74 10.206-10.224 6.699 6.69 1.505-1.51-12.464-12.47v-1.687zm-7.452-21.917l10.206 10.206-3.818 3.817-10.206-10.207 3.818-3.816zm-5.766 5.193l11.088 10.777v3.377L60.94 44.75h3.376zm11.09 17.165v1.248l-11.09 11.399H60.94l-5.764-6.077v-1.248l1.377 1.378 1.505-1.506-12.115-12.114a1.195 1.195 0 0 1 1.688-1.689l7.857 7.856 1.505-1.506-7.856-7.857a1.186 1.186 0 0 1-.35-.842 1.195 1.195 0 0 1 2.038-.845l7.857 7.857 1.506-1.507-7.857-7.856a1.186 1.186 0 0 1-.35-.844 1.195 1.195 0 0 1 2.039-.844l7.856 7.856 1.504-1.506-7.855-7.856a1.186 1.186 0 0 1-.35-.844 1.195 1.195 0 0 1 2.038-.844l.403.403 17.79 17.788zM46.66 35.298l3.818 3.818L40.27 49.321l-3.818-3.818L46.66 35.298zm-5.324 15.97l11.088-10.777h1.248l1.354 1.2c-1.128.502-1.92 1.536-1.966 2.838-1.738.062-3.133 1.418-3.195 3.154a3.297 3.297 0 0 0-3.194 3.176c-1.777.062-3.206 1.508-3.206 3.301a3.29 3.29 0 0 0 .973 2.345l.716.713-1.689 1.687-2.129-2.13v-5.506zm8.518 28.929L39.647 69.99l3.818-3.817L53.671 76.38l-3.819 3.817h.002zm5.764-4.57L44.53 64.226v-3.377l2.13-2.13 6.387 6.388v3.819c0 .281.112.709.312.908l5.636 5.791h-3.377v.002zm14.465 3.505l-3.818-3.818L76.47 65.11l3.818 3.819-10.206 10.205z"/><path d="M74.305 70.131l2.164-2.141L78 69.504l-2.164 2.142-1.53-1.515zM47.246 74.86l1.53-1.515 2.165 2.142L49.41 77l-2.165-2.141zM44 40.14L46.164 38l1.53 1.515-2.164 2.141L44 40.141zm25.976 3.657l1.53-1.514 2.164 2.141-1.53 1.515-2.164-2.142z"/></g><circle stroke="#FFF" stroke-width="3" opacity=".5" cx="60" cy="60" r="60"/></g></svg>