<svg width="53" height="53" viewBox="0 0 53 53" xmlns="http://www.w3.org/2000/svg"><title>4671CC00-3746-4846-9689-632348427457</title><g fill-rule="nonzero" fill="#FFF" opacity=".879"><circle cx="1" cy="52" r="1"/><circle cx="28" cy="25" r="1"/><path d="M40.683 12.318A4.473 4.473 0 0 0 37.5 11a4.473 4.473 0 0 0-3.183 1.318 4.506 4.506 0 0 0 0 6.366A4.488 4.488 0 0 0 37.5 20a4.49 4.49 0 0 0 3.183-1.316 4.506 4.506 0 0 0 0-6.366zm-1.495 4.87a2.39 2.39 0 0 1-3.376 0 2.388 2.388 0 0 1 1.688-4.073 2.388 2.388 0 0 1 1.688 4.073zM13.436 43.126a1.018 1.018 0 0 0-1.365.458l-1.213 2.435a3.36 3.36 0 0 1-2.767 1.847l-1.41.097a.597.597 0 0 1-.468-.176.597.597 0 0 1-.176-.467l.097-1.41a3.36 3.36 0 0 1 1.847-2.768l2.435-1.213a1.018 1.018 0 1 0-.907-1.822l-2.435 1.212a5.403 5.403 0 0 0-2.971 4.451l-.097 1.41a2.638 2.638 0 0 0 2.813 2.814l1.41-.097a5.403 5.403 0 0 0 4.452-2.97l1.212-2.436a1.018 1.018 0 0 0-.457-1.365z"/><path d="M52.283.696a2.398 2.398 0 0 0-1.842-.69l-.968.061c-8.677.557-16.797 4.77-22.279 11.559l-2.278 2.82-5.96-.176h-.031c-4.728 0-9.172 1.852-12.515 5.214L.304 25.625A1.05 1.05 0 0 0 .07 26.74c.148.385.507.647.917.668l12.924.668-.527.653a1.05 1.05 0 0 0-.106 1.158c.202.375.414.743.636 1.106l-3.065 3.66a1.05 1.05 0 0 0-.145 1.12 13.698 13.698 0 0 0 2.642 3.8A13.608 13.608 0 0 0 17.2 42.31a1.032 1.032 0 0 0 1.099-.133c.66-.539 1.421-1.178 2.158-1.796.524-.44 1.061-.89 1.563-1.306.3.18.603.357.91.525a1.033 1.033 0 0 0 1.134-.092l.709-.553.666 13.054a1.045 1.045 0 0 0 1.038.992c.27 0 .537-.107.735-.306l6.106-6.142c3.343-3.362 5.183-7.833 5.183-12.588v-5.727l2.409-1.88a31.473 31.473 0 0 0 12.061-23.31l.025-.508a2.43 2.43 0 0 0-.714-1.843zM3.427 25.441l4.453-4.479a15.473 15.473 0 0 1 11.03-4.601l4.357.128-7.734 9.578-12.106-.626zm15.699 13.334c-.543.455-1.099.922-1.615 1.349a11.48 11.48 0 0 1-2.69-2.023 11.544 11.544 0 0 1-1.94-2.63l2.244-2.68a24.197 24.197 0 0 0 2.223 2.596l.002.001v.001h.001c.89.901 1.847 1.728 2.862 2.475l-1.087.91zm17.298-4.811c0 4.197-1.625 8.142-4.575 11.11l-4.453 4.479-.62-12.161 9.648-7.532v4.104zM50.897 2.945a29.381 29.381 0 0 1-11.26 21.76l-16.3 12.724a22.015 22.015 0 0 1-3.765-2.796l5.495-5.527a1.05 1.05 0 0 0 0-1.479 1.035 1.035 0 0 0-1.47 0l-5.49 5.523a22.127 22.127 0 0 1-2.664-3.656l13.365-16.55c5.117-6.337 12.697-10.27 20.798-10.79l.967-.062a.327.327 0 0 1 .348.345l-.024.508z"/></g></svg>