<svg width="71" height="45" viewBox="0 0 71 45" xmlns="http://www.w3.org/2000/svg"><title>84CAED30-B671-476D-ABBE-E1E8BE8B8ECB</title><path d="M70.296 21.514l-4.097-2.536-2.34-10.66c-.623-2.838-2.967-4.82-5.7-4.82H46.385v-1.99C46.386.675 45.753 0 44.972 0H1.414C.634 0 0 .675 0 1.508v35.94c0 .834.633 1.509 1.414 1.509H5.96C6.617 42.4 9.48 45 12.9 45c3.422 0 6.284-2.6 6.941-6.043h28.633C49.13 42.4 51.994 45 55.414 45c3.421 0 6.284-2.6 6.941-6.043h7.23c.782 0 1.415-.675 1.415-1.508v-14.63a1.53 1.53 0 0 0-.704-1.305zM12.9 41.984c-2.345 0-4.254-2.034-4.254-4.535 0-2.5 1.909-4.535 4.254-4.535 2.346 0 4.255 2.034 4.255 4.535 0 2.501-1.909 4.536-4.255 4.536zm30.658-11.45H30.801c-.781 0-1.414.675-1.414 1.508s.633 1.508 1.414 1.508h12.757v2.391H19.841c-.657-3.443-3.52-6.043-6.94-6.043-3.422 0-6.284 2.6-6.941 6.043H2.829v-7.798h40.729v2.391zm0-25.527v20.12H2.828V3.016h40.73v1.99zm11.033 1.508h3.568c1.412 0 2.624 1.024 2.946 2.49l2.073 9.443H54.59V6.515zm.823 35.47c-2.25 0-4.097-1.873-4.243-4.234a1.602 1.602 0 0 0 0-.604c.146-2.36 1.993-4.233 4.243-4.233 2.346 0 4.254 2.034 4.254 4.535 0 2.501-1.908 4.536-4.254 4.536zm12.757-13.2h-2.69v-1.596h2.69v1.596zm0-4.612h-4.105c-.78 0-1.414.675-1.414 1.508v4.612c0 .833.633 1.508 1.414 1.508h4.105v4.14h-5.816c-.657-3.443-3.52-6.043-6.94-6.043-3.422 0-6.284 2.6-6.941 6.043h-2.087V6.514h5.375v13.442c0 .832.634 1.507 1.415 1.507H64.58l3.591 2.223v.487z" fill-rule="nonzero" fill="#FFF" opacity=".88"/></svg>