<svg width="124" height="124" viewBox="0 0 124 124" xmlns="http://www.w3.org/2000/svg"><title>A11607DC-6AF7-4B56-9836-70812A486BF5</title><g transform="translate(2 2)" fill="none" fill-rule="evenodd"><g fill-rule="nonzero" fill="#B0834D"><path d="M89.955 47.944l-4.07-12.23a.978.978 0 0 0-.916-.714h-2.035c-.408 0-.713.204-.916.612l-1.92 4.484h-20.57c-.203 0-.508.102-.712.306L45.863 53.377c-1.511.2-2.616 1.442-2.616 3.026v7.134H33.172c-2.34 0-4.172 1.937-4.172 4.18v4.994c0 .611.407 1.019 1.018 1.019h15.264v1.019h-9.668A6.607 6.607 0 0 0 29 81.374a6.607 6.607 0 0 0 6.614 6.625h31.547a6.607 6.607 0 0 0 6.614-6.625 6.607 6.607 0 0 0-6.614-6.625h-9.668v-1.02h3.053c.61 0 1.018-.407 1.018-1.018v-3.684a.908.908 0 0 0 .101-.393v-7.95c0-2.447-1.22-4.689-3.256-6.116a7.02 7.02 0 0 0-1.666-.817l5.33-5.502 17.268-.677 2.45 22.087c-.54.052-.893.444-.893 1.013v4.077c0 .385.163.69.435.862l-5.421 10.86a.927.927 0 0 0 0 1.02c.204.305.61.509.916.509h5.8c3.053 0 5.8-1.937 6.717-4.994a6.779 6.779 0 0 0 0-4.485l-.958-2.808c.402-.131.651-.484.651-.963v-4.077c0-.611-.407-1.02-1.017-1.02l1.933-21.301c.103-.102.001-.306.001-.408zm-6.31-10.906h.611l3.766 11.314-1.934 21.302H83.85L80.9 43.358l2.747-6.32zm3.359 36.59h-4.07v-1.936h4.07v1.937zM55.456 55.533a5.23 5.23 0 0 1 2.09 1.052c.044.037.089.074.131.111l.036.033c.254.23.486.484.695.756l.05.069c.265.362.49.763.663 1.196.038.074.072.15.103.224.197.547.305 1.124.305 1.713v6.523l-7.123-2.548c-1.221-.51-2.035-1.631-2.035-2.956v-6.32h3.765c.446 0 .893.05 1.32.147zM33.17 65.578h3.97a2.043 2.043 0 0 1-2.034 2.038H31.04l.002-.053c.126-1.095 1.028-1.984 2.128-1.985zm38.57 15.797a4.564 4.564 0 0 1-4.58 4.587H35.615a4.564 4.564 0 0 1-4.579-4.587 4.564 4.564 0 0 1 4.58-4.587H67.16a4.564 4.564 0 0 1 4.579 4.587zM55.458 74.75h-8.14v-1.02h8.14v1.02zm1.018-3.058h-25.44v-2.038h4.07c2.238 0 4.07-1.835 4.07-4.077h5.088c.61 0 1.018-.408 1.018-1.02v-8.153c0-.51.407-1.02 1.017-1.02h2.137v6.218c0 2.242 1.323 4.179 3.359 4.892l7.733 2.8v2.398h-3.052zm5.088-25.48c-.306 0-.51.101-.713.305l-6.512 6.83h-5.597l11.193-11.212h19.291l-.261.611c-.102.204-.102.306-.102.51l.238 2.143-17.537.813zM87.41 82.496c-.61 2.039-2.544 3.466-4.783 3.466h-4.172l5.088-10.193h2.748l1.119 3.466c.305 1.12.305 2.242 0 3.261z"/><path d="M37.111 78c-.068 0-.134.006-.195.015a3.538 3.538 0 0 0-.319-.015C34.644 78 33 79.6 33 81.5s1.644 3.5 3.597 3.5c.107 0 .214-.006.319-.015.062.01.127.015.195.015H65.89c.062 0 .123-.006.18-.016.11.01.222.016.334.016C68.356 85 70 83.4 70 81.5S68.356 78 66.403 78c-.107 0-.213.005-.319.015A1.314 1.314 0 0 0 65.89 78H37.11zm-2.055 3.5c0-.8.719-1.5 1.541-1.5.768 0 1.445.61 1.532 1.343l.002.011c.01.097.01.195 0 .292l-.001.011c-.087.732-.765 1.343-1.533 1.343-.822 0-1.541-.7-1.541-1.5zm5.138 0c0-.5-.102-1-.308-1.5h23.28c-.23.457-.36.967-.36 1.5s.13 1.043.36 1.5h-23.28c.206-.5.308-1 .308-1.5zm27.75 0c0 .8-.719 1.5-1.541 1.5-.768 0-1.445-.61-1.532-1.343l-.002-.011a1.33 1.33 0 0 1 0-.294c.083-.737.763-1.352 1.534-1.352.822 0 1.541.7 1.541 1.5z"/></g><circle stroke="#FFF" stroke-width="3" opacity=".5" cx="60" cy="60" r="60"/></g></svg>