<svg width="95" height="95" viewBox="0 0 95 95" xmlns="http://www.w3.org/2000/svg"><title>9D6522EC-67DF-47FA-82D1-8891B64520DB</title><g fill="none" fill-rule="evenodd"><circle cx="45.5" cy="45.5" r="45.5" transform="translate(2 2)" stroke-width="3" stroke="#979797" opacity=".5"/><path d="M60.886 26c.728 1.694 1.2 4.508.496 6.569 2.877 2.518 3.867 8.64 2.477 13.642 4.102.321 8.988-.154 12.141 1.136-2.948-.388-6.974-1.15-10.777-.885-.72.05-1.788-.028-1.735 1.01 4.401.354 8.776.74 12.39 1.896-3.585-.6-7.936-1.514-12.39-1.641-1.84 3.72-5.543 5.55-10.655 5.935.55 1.225 1.602 1.692 1.859 3.663.383 2.944-.6 7.257.37 9.22.466.94 1.224.965 1.736 1.77-1.252 1.518-4.356-.171-4.71-1.77-.605-2.739.923-6.985-.741-8.842.117 2.988-.69 7.183.124 9.852.32 1.05 1.245 1.454.991 2.401-5.82.606-3.387-7.718-4.338-12.632-.878.064-.492 1.347-.495 1.895-.025 4.798.958 11.379-4.088 10.737-.148-1.008.677-1.35.99-2.272.921-2.699-.172-6.722.25-9.98-1.926 1.488.202 6.683-.991 9.347-.688 1.533-2.903 2.2-4.584 1.515.22-1.141 1.369-.957 1.857-2.02.682-1.482.005-3.619.248-5.81-3.565.73-6.33-.106-7.683-2.4-.606-1.03-.755-2.245-1.487-3.158-.728-.913-1.892-1.036-2.229-2.272 4.415-1.089 4.584 4.657 8.549 4.798 1.216.045 1.848-.359 2.973-.63.315-1.449.988-2.53 1.982-3.286-4.934-.692-9.008-2.266-10.902-6.06-4.485.225-8.59.84-12.39 1.767 3.45-1.285 7.705-1.745 12.266-1.896-.268-1.656-2.625-1.2-4.088-1.137-2.719.123-6.141.47-8.302.885 3.132-1.145 7.528-1.002 11.771-1.01-1.298-4.171-.848-10.796 1.983-13.263-.802-2.072-.554-5.46.495-7.074 3.16.145 5.077 1.558 7.062 2.906 2.462-.717 5.051-1.075 8.425-.885 1.419.08 2.894.734 3.963.631 1.048-.1 2.204-1.306 3.222-1.767 1.326-.6 2.448-.829 3.965-.885z" fill-rule="nonzero" fill="#C4C4C4"/></g></svg>