<svg width="95" height="95" viewBox="0 0 95 95" xmlns="http://www.w3.org/2000/svg"><title>7B76409B-9120-4F11-93C4-83ADCA051778</title><g fill="none" fill-rule="evenodd"><circle cx="45.5" cy="45.5" r="45.5" stroke-width="3" stroke="#979797" opacity=".5" transform="translate(2 2)"/><path d="M69.74 59.287a3.363 3.363 0 0 0-.166-.32c-.85-1.533-2.475-3.415-4.873-5.647l-.05-.05-.026-.026-.025-.026h-.026c-1.089-1.039-1.778-1.737-2.066-2.095-.528-.682-.647-1.371-.358-2.07.204-.528.97-1.643 2.296-3.347.698-.903 1.25-1.627 1.658-2.172 2.943-3.918 4.218-6.422 3.827-7.512l-.152-.255c-.102-.153-.366-.294-.79-.422-.426-.127-.97-.148-1.634-.063l-7.347.05c-.119-.042-.289-.038-.51.013l-.332.077-.128.064-.102.077c-.085.051-.178.14-.28.268a1.754 1.754 0 0 0-.255.447 41.752 41.752 0 0 1-2.73 5.75 54.444 54.444 0 0 1-1.735 2.746c-.527.775-.97 1.346-1.326 1.712a9.26 9.26 0 0 1-.97.881c-.29.222-.51.316-.663.282a18.67 18.67 0 0 1-.434-.103 1.698 1.698 0 0 1-.574-.626c-.145-.264-.242-.596-.293-.996-.051-.4-.081-.745-.09-1.035-.008-.29-.004-.699.013-1.227.018-.528.026-.886.026-1.073 0-.647.012-1.35.038-2.108.025-.758.046-1.359.064-1.801.017-.443.025-.912.025-1.406 0-.494-.03-.881-.09-1.162a3.982 3.982 0 0 0-.266-.818 1.376 1.376 0 0 0-.523-.613 2.945 2.945 0 0 0-.855-.345c-.902-.205-2.05-.315-3.445-.332-3.163-.034-5.195.17-6.097.613-.357.187-.68.443-.97.766-.305.375-.348.58-.127.614 1.02.153 1.743.519 2.168 1.098l.154.307c.119.221.238.613.357 1.175s.196 1.184.23 1.865c.084 1.244.084 2.309 0 3.194a38.11 38.11 0 0 1-.243 2.07c-.077.494-.191.894-.344 1.2a5.069 5.069 0 0 1-.307.563.44.44 0 0 1-.127.128 1.909 1.909 0 0 1-.689.128c-.238 0-.527-.12-.867-.358a6.124 6.124 0 0 1-1.06-.984c-.365-.418-.777-1-1.237-1.75a30.558 30.558 0 0 1-1.428-2.658l-.408-.74a63.78 63.78 0 0 1-1.046-2.083 40.184 40.184 0 0 1-1.174-2.645c-.136-.358-.34-.63-.612-.818l-.128-.076a1.745 1.745 0 0 0-.408-.218 2.704 2.704 0 0 0-.587-.166l-6.99.051c-.714 0-1.199.162-1.454.486l-.102.153c-.051.085-.077.222-.077.41 0 .187.051.417.153.689a84.383 84.383 0 0 0 3.33 6.95c1.198 2.232 2.24 4.03 3.124 5.391a63.66 63.66 0 0 0 2.705 3.858c.918 1.21 1.526 1.985 1.824 2.326.298.34.531.596.702.766l.637.613c.409.41 1.008.899 1.799 1.47.791.57 1.667 1.132 2.628 1.686.96.554 2.079 1.005 3.355 1.354 1.275.35 2.517.49 3.725.422h2.934c.595-.051 1.045-.239 1.352-.562l.101-.128c.069-.102.132-.26.191-.472a2.6 2.6 0 0 0 .09-.703 8.432 8.432 0 0 1 .165-1.98c.127-.587.272-1.03.434-1.329.162-.298.345-.55.549-.753.204-.204.349-.328.434-.37.085-.044.153-.073.204-.09.408-.136.888-.004 1.441.396s1.072.895 1.557 1.482a45.377 45.377 0 0 0 1.747 1.98c.68.733 1.276 1.278 1.786 1.636l.51.306c.34.205.783.392 1.327.563.544.17 1.02.213 1.429.127l6.53-.102c.647 0 1.15-.107 1.506-.32.357-.212.57-.447.638-.702.068-.255.072-.545.013-.87-.06-.322-.12-.548-.18-.676z" fill-rule="nonzero" fill="#BCBCBC"/></g></svg>