<svg width="95" height="95" viewBox="0 0 95 95" xmlns="http://www.w3.org/2000/svg"><title>FB468623-F098-4284-9538-DFD3BECD76CD</title><g fill="none" fill-rule="evenodd"><circle cx="45.5" cy="45.5" r="45.5" stroke-width="3" stroke="#979797" opacity=".5" transform="translate(2 2)"/><path d="M56.487 48.074c.113.291.165.591.165.89 0 .6-.207 1.182-.555 1.658-.344.47-.832.836-1.405.996-.004.002-.009.002-.011.004l-.008.002a2.521 2.521 0 0 1-.817.135c-.64 0-1.27-.231-1.772-.624a2.664 2.664 0 0 1-.995-1.623h-.001l-.001-.007c0-.002 0-.004-.002-.006h.002a2.428 2.428 0 0 1-.057-.515c0-.578.197-1.133.522-1.592.324-.456.781-.818 1.316-1.004l.004-.001c.002 0 .002-.003.005-.003a2.71 2.71 0 0 1 .938-.168c.575 0 1.142.175 1.62.494.471.314.855.774 1.047 1.345.002.004.002.008.004.01 0 .005.002.007.003.01h-.002zm-1.76 7.095a1.401 1.401 0 0 0-.763-.235c-.223 0-.454.064-.66.2a12.818 12.818 0 0 1-6.507 1.798c-1.704 0-3.399-.36-4.934-1.114l-.008-.004-.008-.003c-.231-.094-.495-.295-.782-.487a2.855 2.855 0 0 0-.469-.258 1.408 1.408 0 0 0-.551-.121 1.229 1.229 0 0 0-.534.124h.001c-.268.102-.477.29-.611.512a1.45 1.45 0 0 0-.21.758c0 .24.057.478.173.695.111.206.282.385.506.506 2.194 1.48 4.778 2.15 7.371 2.148 2.338 0 4.69-.542 6.785-1.527l.011-.007.01-.005c.277-.164.644-.31.99-.524.171-.109.338-.235.482-.4.143-.162.258-.363.323-.6v-.002a1.224 1.224 0 0 0-.087-.854 1.467 1.467 0 0 0-.529-.6zm-15.405-3.56a2.488 2.488 0 0 0 .868.157c.712 0 1.405-.292 1.93-.768.523-.477.882-1.152.882-1.922L43 49.012c.002-.034.003-.072.003-.11 0-.764-.354-1.443-.873-1.922a2.873 2.873 0 0 0-1.927-.773c-.191 0-.386.022-.577.067h-.007-.003a2.801 2.801 0 0 0-2.086 1.87v.004c-.089.265-.13.538-.13.808 0 .593.196 1.17.533 1.645.335.467.809.834 1.377 1.006.005 0 .006 0 .01.003zM69.03 44.7v.004c.007.096.009.192.009.288 0 1.07-.343 2.098-.916 2.97a5.976 5.976 0 0 1-2.12 1.964c.055.426.087.855.087 1.282-.001 2.304-.795 4.568-2.178 6.382v.001h-.003c-2.557 3.401-6.483 5.407-10.447 6.418l-.004.003a27.48 27.48 0 0 1-6.473.775c-3.249 0-6.495-.586-9.524-1.8v-.003h-.004c-3.14-1.295-6.132-3.352-7.967-6.367a10.375 10.375 0 0 1-1.53-5.392c0-.429.03-.859.087-1.283a6.153 6.153 0 0 1-2.074-1.914A5.635 5.635 0 0 1 25 45.141v-.016c.001-1.468.639-2.859 1.63-3.884.99-1.025 2.344-1.695 3.796-1.695h.06c.152-.01.306-.016.46-.016.729 0 1.46.118 2.154.384l.003.003.004.001c.593.25 1.181.55 1.706.968.17-.09.356-.19.564-.27 3.18-1.883 6.877-2.61 10.48-2.819.031-1.784.25-3.653 1.121-5.288.725-1.359 1.983-2.416 3.481-2.783l.006-.003h.009a9.04 9.04 0 0 1 1.717-.162c1.522 0 3.027.36 4.434.923a5.5 5.5 0 0 1 2.557-2.086l.01-.006.01-.004a6.447 6.447 0 0 1 1.91-.302 4.94 4.94 0 0 1 2.022.414v-.002l.002.002c.005.002.009.005.012.005.927.357 1.713 1.017 2.27 1.838.556.824.884 1.81.884 2.825 0 .188-.01.375-.032.562l-.002.004-.001.01c-.109 1.312-.773 2.462-1.714 3.283-.946.824-2.171 1.322-3.429 1.322-.201 0-.405-.012-.608-.039-1.247-.095-2.41-.699-3.264-1.596-.858-.897-1.41-2.094-1.41-3.387 0-.063.006-.127.008-.19-1.171-.52-2.415-.953-3.65-.952-.179 0-.358.01-.536.028h-.002a2.795 2.795 0 0 0-2.202 1.511v.004c-.633 1.232-.76 2.672-.778 4.102 3.546.231 7.114 1.082 10.243 2.88h.005l.045.027c.059.036.169.096.268.149.215-.175.443-.354.702-.509a5.773 5.773 0 0 1 3.197-.946c.499 0 .998.064 1.483.188h.002l.02.006c.007.001.012.004.018.004a5.923 5.923 0 0 1 2.96 1.836c.78.888 1.304 2.012 1.407 3.231v.003h-.002zM58.584 33.092c0 .048 0 .097.005.148v.008c.023.616.314 1.19.756 1.613.445.424 1.034.687 1.633.689h.016c.043.003.087.003.129.003.604.001 1.203-.259 1.653-.681.451-.424.749-1.001.772-1.623l.001-.003v-.004a1.69 1.69 0 0 0 .006-.14c0-.64-.299-1.25-.767-1.701-.467-.452-1.095-.731-1.714-.73-.2 0-.397.028-.591.088h-.007l-.006.003a2.61 2.61 0 0 0-1.332.865 2.31 2.31 0 0 0-.554 1.465zm-26.18 9.506c-.474-.22-.964-.378-1.449-.376-.081 0-.163.005-.245.014h-.01l-.012.001c-.696.02-1.398.323-1.925.809-.528.484-.876 1.139-.903 1.86v.006l-.002.006a2.15 2.15 0 0 0-.006.173c0 .445.136.875.368 1.266.171.292.396.557.65.789.813-1.78 2.083-3.292 3.534-4.548zm30.896 8.71c0-1.588-.573-3.182-1.5-4.465-1.848-2.572-4.715-4.25-7.698-5.185l-.02-.007a23.971 23.971 0 0 0-7.05-1.059c-2.398 0-4.795.355-7.09 1.063-2.982.946-5.859 2.612-7.703 5.192v.002c-.935 1.289-1.482 2.888-1.482 4.48 0 .587.073 1.173.228 1.744h.002c.336 1.281.992 2.424 1.842 3.42.85.998 1.891 1.849 2.987 2.543.243.15.487.294.736.434 3.184 1.777 6.85 2.556 10.49 2.556.615 0 1.234-.022 1.846-.066 3.665-.303 7.345-1.385 10.32-3.595l.001-.003c.947-.7 1.825-1.547 2.519-2.51.696-.965 1.207-2.043 1.433-3.214v-.003l.001-.001c.093-.438.138-.881.138-1.327zm2.893-6.317c-.001-.385-.089-.768-.282-1.126l-.005-.004-.002-.006a2.756 2.756 0 0 0-1.151-1.207 3.342 3.342 0 0 0-1.634-.415c-.518 0-1.034.116-1.492.346 1.456 1.264 2.733 2.783 3.558 4.57.266-.23.492-.513.662-.827.22-.412.346-.875.346-1.33z" fill-rule="nonzero" fill="#BCBCBC"/></g></svg>