<svg width="54" height="58" viewBox="0 0 54 58" xmlns="http://www.w3.org/2000/svg"><title>36463EF6-69A0-45C4-8C04-1D90073C21D5</title><g fill-rule="nonzero" fill="#FFF" opacity=".88"><path d="M53.802 11.727C48.798 4.384 40.354 0 31.215 0 30.544 0 30 .521 30 1.164v24.672c0 .427.244.82.636 1.023a1.255 1.255 0 0 0 1.242-.048l21.57-13.472c.27-.169.46-.434.526-.736a1.123 1.123 0 0 0-.172-.876zM32.43 23.688V2.356c7.442.35 14.27 3.895 18.65 9.684l-18.65 11.648z"/><path d="M49.62 18.574c-.367-.53-1.12-.68-1.683-.334l-19.72 12.14V8.149C28.216 7.514 27.671 7 27 7c-6.161 0-12.189 2.013-16.972 5.669C3.655 17.539 0 24.768 0 32.5c0 6.811 2.808 13.215 7.908 18.031C13.008 55.347 19.788 58 27 58c7.212 0 13.992-2.653 19.092-7.469C51.192 45.715 54 39.311 54 32.5c0-4.967-1.515-9.782-4.38-13.926zM25.784 9.326v19.925L12.523 13.755c3.856-2.657 8.487-4.203 13.26-4.429zM27 55.702c-13.546 0-24.567-10.408-24.567-23.202 0-6.652 2.973-12.893 8.198-17.3l15.423 18.022a1.266 1.266 0 0 0 1.61.24l20.559-12.655A22.138 22.138 0 0 1 51.567 32.5c0 12.794-11.02 23.202-24.567 23.202z"/><path d="M44.81 26.51c-.355-.52-1.083-.666-1.627-.328l-7.65 4.756a1.091 1.091 0 0 0-.342 1.552c.225.33.601.51.986.51.22 0 .442-.059.64-.182l7.65-4.756a1.092 1.092 0 0 0 .342-1.552zM48.793 23.611c-.385-.622-1.175-.798-1.765-.393l-.449.309c-.59.406-.757 1.24-.372 1.862.244.396.653.611 1.07.611.238 0 .48-.07.695-.218l.449-.309c.59-.405.757-1.239.372-1.862z"/></g></svg>