<?xml version="1.0" encoding="UTF-8"?>
<svg width="212px" height="52px" viewBox="0 0 212 52" version="1.1" xmlns="http://www.w3.org/2000/svg" xmlns:xlink="http://www.w3.org/1999/xlink">
    <!-- Generator: sketchtool 46.2 (44496) - http://www.bohemiancoding.com/sketch -->
    <title>11B74CE4-AFB5-4C8C-8A84-AAC7851AA194</title>
    <desc>Created with sketchtool.</desc>
    <defs></defs>
    <g id="Page-1" stroke="none" stroke-width="1" fill="none" fill-rule="evenodd">
        <g id="Header-10" transform="translate(-592.000000, -4797.000000)" fill-rule="nonzero" fill="#FFFFFF">
            <g id="1" transform="translate(515.000000, 4734.000000)">
                <g id="spark_header_logo" transform="translate(77.000000, 63.000000)">
                    <path d="M33.4223153,19.9756951 L26.9922546,0 L20.5821942,19.9756951 L0,19.9756951 L16.6601572,32.2002846 L10.3060972,52 L26.9822545,39.7754105 L43.6424117,52 L37.3703526,32.1582894 L53.9905093,19.9756951 L33.4223153,19.9756951 Z M82.4867782,21.519517 C83.2307852,20.9515825 84.2467948,20.6676153 85.5308069,20.6676153 C86.8028189,20.6676153 87.8108284,21.0015767 88.5548354,21.6714994 C89.2988424,22.3414221 89.672846,23.2853132 89.672846,24.5011729 L96.8509137,24.5011729 C96.8509137,22.6833827 96.3789092,21.0675691 95.4349003,19.6517325 C94.4908914,18.2358959 93.168879,17.1460216 91.4668629,16.38011 C89.7628468,15.6141984 87.8408287,15.2322424 85.6928084,15.2322424 C83.4907876,15.2322424 81.508769,15.5842018 79.7447523,16.2881206 C77.9807357,16.9920394 76.6187228,17.9759259 75.6527137,19.2417798 C74.6907046,20.505634 74.2067001,21.9654655 74.2067001,23.6192747 C74.2067001,26.9408914 76.1407183,29.5505903 80.0107548,31.4523709 C81.200766,32.0383033 82.7307805,32.6482329 84.6047982,33.2761604 C86.4788158,33.904088 87.7868282,34.5140176 88.5328352,35.09995 C89.2768422,35.6898819 89.6508458,36.5097873 89.6508458,37.5596662 C89.6508458,38.4895589 89.3048425,39.2114756 88.614836,39.7234165 C87.9248295,40.2373572 86.9848206,40.4933277 85.7948094,40.4933277 C83.9347918,40.4933277 82.5907792,40.1153713 81.7647714,39.3574588 C80.9367636,38.5975464 80.5247597,37.4176826 80.5247597,35.8178672 L73.3066916,35.8178672 C73.3066916,37.7856401 73.8026963,39.5254394 74.7947056,41.0352652 C75.784715,42.5470907 77.2607289,43.7369534 79.2227474,44.6048533 C81.1847659,45.4727531 83.3767866,45.9047033 85.7968094,45.9047033 C89.2288418,45.9047033 91.9288673,45.1587894 93.8968858,43.670961 C95.8649044,42.1791332 96.8509137,40.1293697 96.8509137,37.5196708 C96.8509137,34.2500481 95.2368985,31.6883437 92.010868,29.8285582 C90.6848555,29.0626466 88.9888395,28.348729 86.92482,27.6868054 C84.8608006,27.0248817 83.418787,26.380956 82.5967792,25.7590278 C81.7747715,25.1370996 81.3667676,24.4431796 81.3667676,23.677268 C81.3687676,22.8073684 81.7407711,22.0874514 82.4867782,21.519517 Z M124.281172,20.4956351 C123.319163,18.9438142 121.957151,17.7459524 120.201134,16.9080491 C118.443117,16.0661462 116.423098,15.6461947 114.139077,15.6461947 L102.224964,15.6461947 L102.224964,45.5027497 L109.425032,45.5027497 L109.425032,35.3739184 L114.019076,35.3739184 C117.65511,35.3739184 120.515137,34.502019 122.601157,32.7582202 C124.687176,31.0164212 125.727186,28.6886898 125.727186,25.7770257 C125.725186,23.8052532 125.243182,22.0454563 124.281172,20.4956351 Z M117.329107,28.7686805 C116.5971,29.4666 115.53309,29.8145599 114.137077,29.8145599 L109.423032,29.8145599 L109.423032,21.2015537 L114.219078,21.2015537 C115.51909,21.2155521 116.543099,21.6395031 117.297107,22.4734069 C118.047114,23.3073107 118.423117,24.4211822 118.423117,25.8150213 C118.425117,27.0868746 118.059114,28.0707611 117.329107,28.7686805 Z M136.223285,15.6441949 L125.273182,45.5007499 L132.963254,45.5007499 L134.685271,39.9233935 L144.551364,39.9233935 L146.29338,45.5007499 L154.023453,45.5007499 L142.991349,15.6441949 L136.223285,15.6441949 Z M136.409287,34.3660347 L139.609317,24.0112295 L142.829347,34.3660347 L136.409287,34.3660347 Z M179.669695,29.8185594 C180.509703,28.452717 180.931707,26.7329154 180.931707,24.6571549 C180.931707,21.7894858 179.931697,19.5717417 177.935679,17.9999231 C175.93966,16.4301042 173.171634,15.6441949 169.6316,15.6441949 L157.881489,15.6441949 L157.881489,45.5007499 L165.079557,45.5007499 L165.079557,34.9399685 L168.975594,34.9399685 L174.245644,45.5007499 L181.955717,45.5007499 L181.955717,45.1927854 L175.721658,33.1401761 C177.513675,32.2902742 178.827687,31.1864016 179.669695,29.8185594 Z M172.715629,28.3247318 C172.023623,29.0446487 170.997613,29.4046072 169.6296,29.4046072 L165.077557,29.4046072 L165.077557,21.181556 L169.6296,21.181556 C170.983613,21.181556 172.007623,21.5495135 172.705629,22.2814291 C173.403636,23.0153444 173.749639,24.0272276 173.749639,25.315079 C173.749639,26.6029304 173.407636,27.6048148 172.715629,28.3247318 Z M211.998,15.6441949 L203.097916,15.6441949 L196.657855,25.0151136 L194.155832,28.8086759 L194.155832,15.6441949 L186.957764,15.6441949 L186.957764,45.5007499 L194.155832,45.5007499 L194.155832,37.6256586 L197.10986,34.3860324 L203.46792,45.5007499 L212,45.5007499 L201.909905,28.8506711 L211.998,15.6441949 Z" id="Shape"></path>
                </g>
            </g>
        </g>
    </g>
</svg>