<?xml version="1.0" encoding="UTF-8"?>
<svg width="246px" height="60px" viewBox="0 0 246 60" version="1.1" xmlns="http://www.w3.org/2000/svg" xmlns:xlink="http://www.w3.org/1999/xlink">
    <!-- Generator: sketchtool 46.2 (44496) - http://www.bohemiancoding.com/sketch -->
    <title>1136CDEA-8D7E-42AA-BD19-510E0DCFF62F</title>
    <desc>Created with sketchtool.</desc>
    <defs></defs>
    <g id="Page-1" stroke="none" stroke-width="1" fill="none" fill-rule="evenodd">
        <g id="Header-10" transform="translate(-177.000000, -4790.000000)" fill-rule="nonzero">
            <g id="1" transform="translate(115.000000, 4734.000000)">
                <g id="logo" transform="translate(62.000000, 56.000000)">
                    <path d="M38.8230875,40.6350421 C36.2255211,40.4912012 33.5928524,40.7429227 30.995286,40.0956389 C27.5201633,39.1966335 24.5364721,37.3626626 21.69319,35.2769702 C19.5168505,33.6587605 17.3756133,32.0045907 15.1641716,30.4583015 C12.4964007,28.5524101 9.54781177,27.6534047 6.2833026,27.7972456 C4.2122699,27.869166 2.10613495,27.7612854 0,27.7253252 C0,27.6174445 0,27.4736037 0,27.365723 C0.561635986,24.848508 0.561635986,22.331293 0,19.814078 C0,19.7061974 0,19.5623565 0,19.4544759 C1.61470346,19.4185157 3.26450917,19.2387146 4.87921263,19.4185157 C10.6008792,20.0657995 15.0237626,17.296863 19.1307258,13.8087223 C24.8523924,8.99005356 31.135695,5.78959449 38.7879853,6.54475899 C38.9634965,6.29303749 38.8581898,6.18515685 38.6124741,6.11323642 C37.5594066,5.03442999 36.5765436,3.88370314 35.4181694,2.87681714 C34.4353064,2.013772 34.2597952,1.15072686 34.7161244,0 C34.9618401,0 35.1724536,0 35.4181694,0 C37.4189976,0.575363428 39.3847235,0.575363428 41.3855517,0 C41.4908585,0 41.6312675,0 41.7365742,0 C45.2467991,2.58913542 47.9847746,6.04131599 51.0737725,9.0979342 C52.3023512,10.3205815 52.3023512,11.3993879 51.0737725,12.6939556 C48.6517173,15.2111706 46.2296621,17.7283856 43.7725047,20.2096404 C42.8598462,21.144606 41.7716765,21.6120888 40.437791,21.5401683 C38.9634965,21.5042081 37.5243043,21.5042081 36.0500099,21.5042081 C35.3830671,21.5042081 34.7161244,21.4682479 34.4002042,20.7490436 C34.0842839,19.9579189 34.7161244,19.5263963 35.1373514,19.0948738 C36.3308279,17.8722265 37.5243043,16.6855394 38.9283943,15.2471308 C35.3479649,14.8515685 32.2238647,15.10329 29.2752758,16.9013007 C26.2915846,18.6993114 23.6589159,21.0007651 20.8156337,23.0145371 C20.148691,23.4820199 20.2539978,23.7337414 20.850736,24.165264 C23.5536092,26.0711553 26.1511756,28.0130069 28.7838443,29.882938 C31.7675355,31.9686305 35.1373514,32.3641928 39.1039055,31.89671 C37.5945088,30.4223412 36.3308279,29.1637337 35.0671469,27.9051262 C34.6459199,27.4736037 34.1544884,27.0420811 34.5055109,26.358837 C34.7863289,25.7475134 35.3830671,25.6396327 35.9798054,25.6396327 C37.5594066,25.6396327 39.1390078,25.6396327 40.718609,25.675593 C41.9471877,25.7115532 42.9651529,26.179036 43.8427092,27.0780413 C46.2296621,29.5592961 48.6517173,32.0045907 51.003568,34.4498852 C52.3023512,35.8163734 52.3374535,36.8232594 51.0737725,38.1537873 C48.6868196,40.6350421 46.2998666,43.0803366 43.9129137,45.5615914 C43.0002552,46.496557 41.9120855,47 40.6133023,47 C38.9634965,47 37.3487931,46.9280796 35.6989874,46.8921194 C35.2075559,46.8921194 34.7512266,46.7842387 34.5055109,46.3167559 C34.1895907,45.7413925 34.5055109,45.2739097 34.8916356,44.8783474 C36.1202144,43.6197399 37.3838953,42.3611324 38.6124741,41.0665647 C38.893292,40.9946442 38.9985988,40.8867636 38.8230875,40.6350421 Z" id="Shape" fill="#E9A520"></path>
                    <path d="M222.673304,59.9648 C222.673304,58.8032 222.741711,57.6064 222.6391,56.4448 C222.53649,55.072 222.946931,54.5792 224.349269,54.6496 C227.632792,54.7552 230.950519,54.6496 234.165635,53.9808 C237.825395,53.2064 240.390648,49.8624 240.424851,46.0256 C240.493258,38.176 240.424851,30.2912 240.459055,22.4416 C240.459055,21.6672 240.527461,20.8576 239.39875,20.928 C236.14943,21.104 232.934314,20.7872 229.684994,21.2096 C224.246659,21.9488 221.681406,27.968 222.502287,32.8608 C223.665201,39.936 231.224146,42.1184 237.004515,38.8448 C238.338446,38.1056 238.441056,38.3872 238.441056,39.7248 C238.441056,43.8784 237.312345,45.1456 232.558077,45.5328 C225.717403,46.0608 219.08195,42.0128 217.440189,34.656 C215.559003,26.2432 219.800221,18.4288 228.385266,16.1408 C228.966723,16 229.616587,16 230.266451,16 C235.499566,16 240.766885,16 246,16 C246,26.208 246,36.416 246,46.624 C245.89739,46.7648 245.726373,46.9056 245.726373,47.0464 C245.008102,53.3824 241.211529,56.9024 235.670583,58.944 C234.336652,59.4368 232.90011,59.3312 231.634586,60 C228.590486,59.9648 225.648997,59.9648 222.673304,59.9648 Z" id="Shape" fill="#DEE1F3"></path>
                    <path d="M0,20 C1.33333333,22.3333333 1.33333333,24.6666667 0,27 C0,24.6666667 0,22.3333333 0,20 Z" id="Shape" fill="#EBAC32"></path>
                    <path d="M42,1 C39.9882353,2.33333333 38.0117647,2.33333333 36,1 C38.0117647,1 39.9882353,1 42,1 Z" id="Shape" fill="#EFC36C"></path>
                    <path d="M157.861237,15.8949554 C155.571644,19.94617 153.455505,23.7486258 151.269985,27.4800077 C150.680241,28.5105798 150.61086,28.9725604 151.859729,29.470078 C155.363499,30.8915568 156.993967,33.8766623 157.653092,37.5014333 C158.104072,39.9534842 157.965309,42.4410722 158,44.9286601 C158,45.7104734 157.757164,46.0303062 156.993967,45.9592322 C156.889894,45.9592322 156.751131,45.9592322 156.647059,45.9592322 C152.553544,46.1013801 152.449472,46.1013801 152.553544,41.9080176 C152.761689,34.0188102 146.933635,32.0287399 141.383107,32.6684053 C140.377074,32.7750162 140.377074,33.3436078 140.377074,34.1254211 C140.377074,37.5725072 140.342383,40.9840564 140.411765,44.4311425 C140.446456,45.6749364 140.064857,46.0303062 138.850679,45.9947692 C135.034691,45.9592322 135.034691,46.0303062 135.034691,42.1567764 C135.034691,29.3634671 135.069382,16.6056948 135,3.81238548 C135,2.42644364 135.312217,2 136.699849,2 C140.342383,2.07107394 140.342383,2 140.342383,5.69584491 C140.342383,12.4478693 140.377074,19.1998936 140.307692,25.916381 C140.307692,27.1601749 140.515837,27.4800077 141.93816,27.7287665 C145.164404,28.297358 146.378582,26.5560464 147.523379,24.0329216 C148.633484,21.6164076 150.021116,19.3775785 151.200603,16.9966014 C151.616893,16.1437142 152.171946,15.7883445 153.108597,15.8594184 C154.634992,15.9660293 156.092006,15.8949554 157.861237,15.8949554 Z" id="Shape" fill="#15A9E0"></path>
                    <path d="M105.999863,30.5879716 C105.96506,39.3295682 99.3873946,46.0349696 90.8607913,45.9998628 C82.4385953,45.9296492 75.9653372,39.0838205 76.0001397,30.3071171 C76.0349421,21.6357341 82.6126076,14.9303327 91.0348036,15.0005464 C99.4569995,15.0356532 106.034665,21.8814818 105.999863,30.5879716 Z M100.466271,30.6230784 C100.501073,25.3570564 97.7516789,21.3899864 93.401371,20.4772093 C88.5986312,19.4591117 84.3527307,21.4602001 82.5082002,25.6028041 C80.4200524,30.2720103 81.6729411,36.2401686 85.3620021,39.0136069 C86.2668662,39.6806363 87.2413351,40.1370249 88.3202115,40.4178794 C95.0370868,42.1381133 100.431468,37.7848684 100.466271,30.6230784 Z" id="Shape" fill="#16A9E0"></path>
                    <path d="M195.895071,15.0181957 C204.282174,14.6300475 211.103221,22.0401486 210.998817,30.5441217 C210.894413,39.0128086 204.734591,46.0700476 195.895071,45.9994753 C187.368763,45.9641891 181.034934,39.1892395 181.000133,30.3324045 C180.965331,21.6167142 187.786378,14.5947613 195.895071,15.0181957 Z M195.999475,20.311125 C190.187665,19.8171182 186.498731,24.6866132 186.568334,30.4029769 C186.637936,36.6133473 190.32687,40.7065459 195.929872,40.7771183 C201.811285,40.8476907 205.465417,35.9429096 205.465417,30.5794078 C205.430616,24.651327 201.706881,19.8171182 195.999475,20.311125 Z" id="Shape" fill="#DEE1F3"></path>
                    <path d="M56,21.104529 C56.831305,19.3950761 57.4818915,18.0061456 58.1686217,16.6528288 C58.2770527,16.4035335 58.5300586,15.9761703 58.6746334,15.9761703 C60.7709676,16.0473975 60.3372433,14.5160126 60.5179618,13.3051502 C61.3492667,7.46451942 66.4093839,2.90597835 72.8791052,2.15809271 C75.9513192,1.80195669 75.8067444,1.80195669 75.9874629,4.86472647 C76.095894,6.78786098 75.5175949,7.35767861 73.6019791,7.50013302 C69.0478736,7.85626904 66.3732402,10.5629028 66.1202344,14.5160126 C66.047947,15.5488071 66.3732402,15.8693295 67.3852637,15.8337159 C69.0117299,15.7624887 70.6381961,15.8337159 72.2646624,15.7981023 C73.132111,15.7624887 73.3489732,16.0830111 73.3851169,16.9377376 C73.5658354,21.104529 73.6019791,21.104529 69.3731668,21.104529 C66.0840907,21.104529 66.0840907,21.104529 66.0840907,24.3809804 C66.0840907,30.8982696 66.047947,37.4511724 66.1202344,43.9684616 C66.1563781,45.4642328 65.8672285,46.0340505 64.2046186,45.9984369 C60.3010996,45.8559825 60.3010996,45.9628233 60.3010996,42.045327 C60.3010996,35.7417195 60.2288122,29.4737255 60.3372433,23.1701179 C60.373387,21.5318922 59.9396627,20.8552338 58.240909,21.104529 C57.5903225,21.2113698 56.939736,21.104529 56,21.104529 Z" id="Shape" fill="#15A9E0"></path>
                    <path d="M169.319699,19.1854939 C169.319699,24.0635842 169.352935,28.9060681 169.286464,33.7841585 C169.286464,34.9947794 169.485876,36.1341874 169.718523,37.2735954 C170.117347,39.3031658 172.011761,40.7986388 174.371469,40.7630323 C175.767353,40.7630323 176,41.3327362 176,42.6501767 C175.966765,46.2820396 176,46.1752201 172.676467,45.8547616 C167.225874,45.3206641 164.633518,42.0092597 164.301165,36.2410069 C163.702929,25.4166312 164.234694,14.556649 164.002047,3.73227329 C163.968812,2.55725882 164.3344,2.05876783 165.530872,2.02316133 C169.219993,1.91634184 169.352935,2.02316133 169.352935,5.86866323 C169.319699,10.2838691 169.319699,14.7346815 169.319699,19.1854939 Z" id="Shape" fill="#DEE1F3"></path>
                    <path d="M113.036014,35.3396505 C113.144055,32.4355225 112.855945,28.9647354 113.252096,25.4585321 C113.936358,19.5794438 116.817458,16.6753158 122.831756,16.1794891 C125.46076,15.9669919 128.089764,16.0732405 130.754782,16.0024081 C131.619112,15.9669919 131.871209,16.3211539 131.907223,17.1357264 C132.159319,21.3502535 132.195333,21.3148373 127.945709,21.3502535 C126.32509,21.3502535 124.704471,21.3148373 123.083852,21.4565021 C120.67093,21.7044155 119.482476,22.8731499 118.978284,25.2106188 C118.690174,26.6626828 118.65416,28.1501629 118.65416,29.6022269 C118.65416,34.5604942 118.618146,39.5187614 118.690174,44.4770287 C118.690174,45.6103469 118.438077,45.9999251 117.21361,45.9999251 C113,45.9999251 113,46.0707575 113,41.8562303 C113.036014,39.9083396 113.036014,37.8896165 113.036014,35.3396505 Z" id="Shape" fill="#19AAE0"></path>
                    <path d="M39.5,41 C40,41.5833333 39.7,41.8333333 39,42 C39.1,41.6666667 39.3,41.3333333 39.5,41 Z" id="Shape" fill="#F2CC82"></path>
                    <path d="M39.5,7 C39.3,6.66666667 39.2,6.33333333 39,6 C39.7,6.16666667 40,6.5 39.5,7 Z" id="Shape" fill="#F2CC82"></path>
                </g>
            </g>
        </g>
    </g>
</svg>