<?xml version="1.0" encoding="UTF-8"?>
<svg width="16px" height="16px" viewBox="0 0 16 16" version="1.1" xmlns="http://www.w3.org/2000/svg" xmlns:xlink="http://www.w3.org/1999/xlink">
    <!-- Generator: sketchtool 46.2 (44496) - http://www.bohemiancoding.com/sketch -->
    <title>CD015162-F809-47CE-87CE-05B0BB9CA7F3</title>
    <desc>Created with sketchtool.</desc>
    <defs></defs>
    <g id="Symbols" stroke="none" stroke-width="1" fill="none" fill-rule="evenodd">
        <g id="Icons/System/Download" fill="#FFFFFF">
            <path d="M14,12.99995 C14.5525,12.99995 15,13.44745 15,13.99995 C15,14.55245 14.5525,14.99995 14,14.99995 L2,14.99995 C1.4475,14.99995 1,14.55245 1,13.99995 C1,13.44745 1.4475,12.99995 2,12.99995 L14,12.99995 Z M7.29295,11.707 L3.29295,7.707 C3.00695,7.421 2.92145,6.991 3.07595,6.6175 C3.23095,6.2435 3.59545,6 3.99995,6 L5.99995,6 L5.99995,2 C5.99995,1.4475 6.44795,1 6.99995,1 L8.99995,1 C9.55245,1 9.99995,1.4475 9.99995,2 L9.99995,6 L11.99995,6 C12.40445,6 12.76895,6.2435 12.92395,6.6175 C13.07845,6.991 12.99295,7.421 12.70695,7.707 L8.70695,11.707 C8.51195,11.9025 8.25595,12 7.99995,12 C7.74395,12 7.48845,11.9025 7.29295,11.707 Z" id="icon"></path>
        </g>
    </g>
</svg>