<?xml version="1.0" encoding="UTF-8"?>
<svg width="95px" height="95px" viewBox="0 0 95 95" version="1.1" xmlns="http://www.w3.org/2000/svg" xmlns:xlink="http://www.w3.org/1999/xlink">
    <!-- Generator: sketchtool 46.2 (44496) - http://www.bohemiancoding.com/sketch -->
    <title>7B76409B-9120-4F11-93C4-83ADCA051778</title>
    <desc>Created with sketchtool.</desc>
    <defs></defs>
    <g id="Page-1" stroke="none" stroke-width="1" fill="none" fill-rule="evenodd">
        <g id="Desktop" transform="translate(-377.000000, -6150.000000)">
            <g id="Group-8" transform="translate(379.000000, 6152.000000)">
                <g id="Group-9">
                    <g id="Group-2" stroke-width="3" stroke="#979797" opacity="0.5">
                        <circle id="Oval-2" cx="45.5" cy="45.5" r="45.5"></circle>
                    </g>
                    <g id="001-vk-social-network-logo" transform="translate(19.000000, 32.000000)" fill-rule="nonzero" fill="#BCBCBC">
                        <path d="M48.74013,25.2870733 C48.6807967,25.1590045 48.6254844,25.0527727 48.5741038,24.9676619 C47.7239567,23.4341472 46.0993482,21.5518664 43.7012614,19.3202826 L43.6505957,19.2691804 L43.6252182,19.2441215 L43.5995726,19.2184361 L43.5738376,19.2184361 C42.4854634,18.1792976 41.7962492,17.4806019 41.5076245,17.1228863 C40.9795217,16.4414634 40.8612124,15.7517174 41.1498371,15.0528428 C41.3537509,14.5248161 42.1197233,13.4096954 43.4459671,11.7059593 C44.1435809,10.8030337 44.6960783,10.0793687 45.1040846,9.53415879 C48.0467159,5.61602202 49.3224728,3.11228072 48.931087,2.02195043 L48.7790899,1.76715519 C48.6769543,1.61375898 48.4133497,1.47342918 47.9886336,1.34544984 C47.5629345,1.21773898 47.0188368,1.19661792 46.3553574,1.28172866 L39.0080275,1.33256241 C38.8890034,1.29032028 38.7190454,1.2942581 38.4976176,1.34544984 C38.2764578,1.39664157 38.1658332,1.42232694 38.1658332,1.42232694 L38.0379627,1.48631661 L37.9364526,1.56319371 C37.8513842,1.61402746 37.7578269,1.70343401 37.6556913,1.83123436 C37.5540919,1.95858723 37.4691129,2.10804562 37.4012012,2.27835659 C36.601273,4.33953996 35.6917925,6.25591873 34.6710619,8.02740341 C34.0417172,9.0837252 33.463753,9.99918023 32.9359183,10.7743055 C32.4087985,11.5491622 31.9665683,12.1200575 31.6096745,12.4860068 C31.2522445,12.8523141 30.929664,13.1457716 30.639967,13.3674533 C30.3507169,13.5892245 30.1299145,13.6829269 29.9770239,13.6486499 C29.8237758,13.6143729 29.6794634,13.5803644 29.5428358,13.5463559 C29.3048768,13.3929597 29.1134731,13.1843444 28.9691608,12.9203311 C28.8242229,12.6563177 28.7266446,12.3240189 28.6756214,11.9237031 C28.6248664,11.5231188 28.5948423,11.1785591 28.5862639,10.8888604 C28.5783111,10.5995197 28.5819748,10.1902543 28.5992208,9.66222762 C28.6169136,9.13393248 28.6248664,8.77648529 28.6248664,8.58908057 C28.6248664,7.9416662 28.6374658,7.23903276 28.662754,6.48100128 C28.6884889,5.72296979 28.7093092,5.12236185 28.7267339,4.67989341 C28.7440693,4.23697749 28.7521114,3.76837621 28.7521114,3.27435805 C28.7521114,2.7803399 28.7220873,2.39291153 28.662754,2.11171496 C28.6041354,1.83087638 28.5141525,1.55827143 28.3955751,1.29398961 C28.2762828,1.02997629 28.1016783,0.825746316 27.8725657,0.680762726 C27.6430063,0.535958128 27.3575985,0.421045209 27.0179507,0.335665984 C26.116423,0.131346518 24.9684474,0.0208189044 23.5734877,0.00363566413 C20.4101433,-0.0303728322 18.3775286,0.174215122 17.4760903,0.617131039 C17.1189284,0.804267265 16.7957224,1.05995746 16.5067403,1.38339616 C16.2005122,1.75829508 16.1577993,1.96288304 16.3788697,1.99653355 C17.3995109,2.14966128 18.1220556,2.51596859 18.5473078,3.09509748 L18.7005559,3.40197941 C18.8197588,3.62339262 18.938783,4.01538529 19.0578965,4.57742044 C19.1768313,5.13945559 19.2535894,5.7611846 19.2873665,6.44224949 C19.3722561,7.685976 19.3722561,8.75062093 19.2873665,9.63627377 C19.2022089,10.5222846 19.1217871,11.2120306 19.045029,11.7060488 C18.968271,12.2000669 18.8535359,12.6003827 18.7005559,12.9069067 C18.5473078,13.2135201 18.4453509,13.4009248 18.3942385,13.4689418 C18.3432153,13.5369588 18.3006812,13.5798274 18.266904,13.5966527 C18.0458336,13.6814949 17.8159168,13.7247215 17.5779578,13.7247215 C17.3396414,13.7247215 17.0506593,13.6053338 16.7105647,13.3667373 C16.3705595,13.1281409 16.0176868,12.8004064 15.6519466,12.3829968 C15.2862064,11.9654978 14.8737322,11.3820731 14.4143454,10.6326332 C13.955316,9.88319336 13.4790406,8.99745102 12.9857873,7.97540621 L12.5776916,7.23419998 C12.322576,6.75736506 11.9740818,6.06305476 11.5318516,5.15189554 C11.0893534,4.24037834 10.6982356,3.35866333 10.3582304,2.50692948 C10.2223177,2.1492138 10.0181358,1.87687734 9.74604227,1.68947263 L9.61835042,1.61259553 C9.53346081,1.54457853 9.39719064,1.47235523 9.21025478,1.39538863 C9.02305085,1.31851153 8.82771539,1.26338197 8.62344417,1.22946297 L1.63309741,1.28029672 C0.91877367,1.28029672 0.434098666,1.44237405 0.178893687,1.76608124 L0.0767580804,1.91920897 C0.0257349559,2.0044987 0,2.14071168 0,2.32820589 C0,2.5156106 0.0510231244,2.74561543 0.153158731,3.01795189 C1.17362122,5.42002569 2.28335184,7.73663076 3.48235058,9.9681251 C4.68134933,12.1996194 5.72325761,13.9971475 6.60744993,15.3590982 C7.49182097,16.7220335 8.39325929,18.0083601 9.31176489,19.2174517 C10.2302705,20.4269907 10.8382588,21.2021159 11.1357299,21.5426484 C11.4335584,21.8838073 11.6674963,22.138871 11.8375436,22.309182 L12.4754667,22.9223194 C12.8836517,23.3312268 13.4830617,23.8209491 14.2739648,24.3914864 C15.0650466,24.9623817 15.9408393,25.5244168 16.9017897,26.0784868 C17.8629189,26.6316618 18.9810491,27.0830799 20.2568059,27.432204 C21.532384,27.781686 22.7739169,27.9219263 23.9815833,27.8542673 L26.915547,27.8542673 C27.5105785,27.8028071 27.961387,27.6154024 28.2677939,27.2919637 L28.369304,27.1638948 C28.4375731,27.0622273 28.5014637,26.9042668 28.5604396,26.6917137 C28.6201304,26.4788026 28.6497971,26.2442335 28.6497971,25.9890803 C28.6323724,25.2567341 28.6880421,24.5967008 28.8152872,24.0090698 C28.9424429,23.4216178 29.0873807,22.9787019 29.2494752,22.6804115 C29.4114803,22.3823897 29.5943057,22.1309058 29.7977727,21.9270339 C30.0016865,21.7227144 30.1469818,21.5989414 30.2322288,21.5563412 C30.3169397,21.5134726 30.3845833,21.4843864 30.4356065,21.4669347 C30.8437915,21.3307217 31.3241773,21.4626389 31.8774789,21.8633127 C32.4303336,22.2636285 32.9488751,22.7579151 33.4339076,23.3453671 C33.9186719,23.9333561 34.501104,24.5930315 35.1812932,25.3253776 C35.8619292,26.0579922 36.45705,26.6025756 36.9671025,26.9608283 L37.4771551,27.2674417 C37.8177858,27.4720297 38.260016,27.6594344 38.8043818,27.8297454 C39.3477647,27.9999669 39.8238614,28.042567 40.2326719,27.9574562 L46.7635424,27.8554307 C47.4095077,27.8554307 47.9121436,27.748304 48.2686799,27.5357509 C48.6259312,27.3228398 48.8381552,27.0882707 48.906603,26.8331174 C48.9748721,26.5776957 48.9785358,26.2879075 48.9195599,25.9639319 C48.8590648,25.6407617 48.7994634,25.4147842 48.74013,25.2870733 Z" id="Shape"></path>
                    </g>
                </g>
            </g>
        </g>
    </g>
</svg>