<?xml version="1.0" encoding="UTF-8"?>
<svg width="71px" height="45px" viewBox="0 0 71 45" version="1.1" xmlns="http://www.w3.org/2000/svg" xmlns:xlink="http://www.w3.org/1999/xlink">
    <!-- Generator: sketchtool 46.2 (44496) - http://www.bohemiancoding.com/sketch -->
    <title>84CAED30-B671-476D-ABBE-E1E8BE8B8ECB</title>
    <desc>Created with sketchtool.</desc>
    <defs></defs>
    <g id="Page-1" stroke="none" stroke-width="1" fill="none" fill-rule="evenodd" opacity="0.88">
        <g id="Header-10" transform="translate(-1142.000000, -1669.000000)" fill-rule="nonzero" fill="#FFFFFF">
            <path d="M1212.29569,1690.51414 L1208.19919,1687.97827 L1205.85883,1677.31782 C1205.23578,1674.48036 1202.89167,1672.49874 1200.15845,1672.49874 L1188.38648,1672.49874 L1188.38648,1670.5078 C1188.38648,1669.67503 1187.75317,1669 1186.97217,1669 L1143.41431,1669 C1142.63331,1669 1142,1669.67503 1142,1670.5078 L1142,1706.44887 C1142,1707.28164 1142.63331,1707.95667 1143.41431,1707.95667 L1147.95983,1707.95667 C1148.61713,1711.40027 1151.47931,1713.99985 1154.90048,1713.99985 C1158.32165,1713.99985 1161.18397,1711.40027 1161.84127,1707.95667 L1190.47363,1707.95667 L1190.47363,1707.95682 C1191.13093,1711.40041 1193.99312,1714 1197.41428,1714 C1200.83545,1714 1203.69777,1711.40041 1204.35507,1707.95682 L1211.58569,1707.95682 C1212.36669,1707.95682 1213,1707.28179 1213,1706.44902 L1213,1691.81807 C1212.99986,1691.28083 1212.73167,1690.78409 1212.29569,1690.51414 Z M1154.90048,1710.98455 C1152.55485,1710.98455 1150.64645,1708.94985 1150.64645,1706.44917 C1150.64645,1703.94849 1152.55485,1701.91379 1154.90048,1701.91379 C1157.24625,1701.91379 1159.15465,1703.94834 1159.15465,1706.44917 C1159.15465,1708.95 1157.24625,1710.98455 1154.90048,1710.98455 Z M1185.558,1699.53419 L1172.80104,1699.53419 C1172.02004,1699.53419 1171.38673,1700.20922 1171.38673,1701.04199 C1171.38673,1701.87476 1172.02004,1702.54979 1172.80104,1702.54979 L1185.558,1702.54979 L1185.558,1704.94122 L1161.84127,1704.94122 C1161.18397,1701.49763 1158.32165,1698.89804 1154.90048,1698.89804 C1151.47931,1698.89804 1148.61713,1701.49748 1147.95983,1704.94122 L1144.82862,1704.94122 L1144.82862,1697.14276 L1185.558,1697.14276 L1185.558,1699.53419 Z M1185.558,1674.00669 L1185.558,1694.12716 L1144.82862,1694.12716 L1144.82862,1672.01575 L1185.558,1672.01575 L1185.558,1674.00669 L1185.558,1674.00669 Z M1196.59099,1675.51463 L1200.15873,1675.51463 C1201.57138,1675.51449 1202.78295,1676.53871 1203.10467,1678.00512 L1205.17767,1687.44783 L1196.59113,1687.44783 L1196.59113,1675.51463 L1196.59099,1675.51463 Z M1197.41428,1710.98455 C1195.16392,1710.98455 1193.31709,1709.11158 1193.17065,1706.7512 C1193.18937,1706.65363 1193.19908,1706.55266 1193.19908,1706.44917 C1193.19908,1706.34568 1193.18924,1706.24471 1193.17065,1706.14714 C1193.31709,1703.78675 1195.16392,1701.91379 1197.41428,1701.91379 C1199.76005,1701.91379 1201.66845,1703.94834 1201.66845,1706.44917 C1201.66845,1708.95 1199.76005,1710.98455 1197.41428,1710.98455 Z M1210.17124,1697.78497 L1207.48059,1697.78497 L1207.48059,1696.18876 L1210.17124,1696.18876 L1210.17124,1697.78497 Z M1210.17124,1693.17316 L1206.06628,1693.17316 C1205.28528,1693.17316 1204.65197,1693.84819 1204.65197,1694.68096 L1204.65197,1699.29277 C1204.65197,1700.12554 1205.28528,1700.80057 1206.06628,1700.80057 L1210.17124,1700.80057 L1210.17124,1704.94122 L1204.35507,1704.94122 C1203.69777,1701.49763 1200.83545,1698.89804 1197.41428,1698.89804 C1193.99312,1698.89804 1191.13093,1701.49748 1190.47363,1704.94122 L1188.38662,1704.94122 L1188.38662,1675.51449 L1193.76237,1675.51449 L1193.76237,1688.95563 C1193.76237,1689.7884 1194.39568,1690.46343 1195.17668,1690.46343 L1206.58034,1690.46343 L1210.1711,1692.68647 L1210.1711,1693.17316 L1210.17124,1693.17316 Z" id="Shape"></path>
        </g>
    </g>
</svg>