<?xml version="1.0" encoding="UTF-8"?>
<svg width="95px" height="95px" viewBox="0 0 95 95" version="1.1" xmlns="http://www.w3.org/2000/svg" xmlns:xlink="http://www.w3.org/1999/xlink">
    <!-- Generator: sketchtool 46.2 (44496) - http://www.bohemiancoding.com/sketch -->
    <title>9D6522EC-67DF-47FA-82D1-8891B64520DB</title>
    <desc>Created with sketchtool.</desc>
    <defs></defs>
    <g id="Page-1" stroke="none" stroke-width="1" fill="none" fill-rule="evenodd">
        <g id="Desktop" transform="translate(-791.000000, -6150.000000)">
            <g id="Group-8" transform="translate(379.000000, 6152.000000)">
                <g id="Group-12" transform="translate(414.000000, 0.000000)">
                    <g id="Group-5" stroke-width="3" stroke="#979797" opacity="0.5">
                        <g id="Group-2">
                            <circle id="Oval-2" cx="45.5" cy="45.5" r="45.5"></circle>
                        </g>
                    </g>
                    <g id="002-github-logo" transform="translate(18.000000, 24.000000)" fill-rule="nonzero" fill="#C4C4C4">
                        <path d="M40.8856,0 C41.6136,1.69431128 42.0852444,4.50838569 41.3815111,6.56872433 C44.2592889,9.08691599 45.2486222,15.2086278 43.8592,20.2112142 C47.9608889,20.5319664 52.8465778,20.056896 56,21.3469193 C53.0519111,20.9585732 49.0255111,20.1965476 45.2231111,20.4618218 C44.5025778,20.5121984 43.4354667,20.4337639 43.4877333,21.4725419 C47.8893333,21.8264534 52.2635556,22.2122488 55.8774222,23.3683595 C52.2928,22.7683042 47.9416,21.8538735 43.4877333,21.7269756 C41.6478222,25.4478285 37.9449778,27.2766899 32.8334222,27.6618476 C33.3828444,28.8874654 34.4350222,29.3536082 34.692,31.3246719 C35.0752889,34.2694703 34.0921778,38.5820888 35.0622222,40.5448626 C35.5276444,41.4854382 36.2861333,41.5103076 36.7976,42.31442 C35.5456889,43.832732 32.4420444,42.1435222 32.0886222,40.5448626 C31.4832,37.8060343 33.0107556,33.5603721 31.3469333,31.7034528 C31.4639111,34.6909757 30.6575111,38.8862613 31.4707556,41.5549451 C31.7912,42.6045636 32.7164444,43.0094893 32.4619556,43.9564416 C26.6429333,44.5615983 29.0752,36.2379833 28.1238222,31.3240342 C27.2458667,31.3884397 27.6316444,32.6714485 27.6285333,33.2192142 C27.6036444,38.0171058 28.5867556,44.597946 23.5405333,43.9564416 C23.3930667,42.9476345 24.2175111,42.6052013 24.5317333,41.6843938 C25.452,38.9851015 24.3593778,34.961989 24.7812444,31.7040905 C22.8554667,33.1924317 24.9834667,38.3869592 23.7900444,41.0505415 C23.1024889,42.5835202 20.8867556,43.2505317 19.2061333,42.5663029 C19.4251556,41.4248587 20.5750222,41.6091477 21.0628444,40.5455003 C21.7448,39.0635359 21.0678222,36.9273136 21.3111111,34.7356132 C17.7464,35.4651172 14.9812444,34.6297586 13.6279111,32.335392 C13.0224889,31.3055415 12.8725333,30.0907643 12.1408,29.1782467 C11.4128,28.2650913 10.2492444,28.1420194 9.912,26.9061988 C14.3266667,25.8170443 14.4959111,31.5625259 18.4607111,31.7040905 C19.6765333,31.7493656 20.3087111,31.3450776 21.4336889,31.0740643 C21.7485333,29.6252592 22.4224,28.5443944 23.4160889,27.7881079 C18.4824889,27.096227 14.4081778,25.5217992 12.5135111,21.7276132 C8.02853333,21.9533514 3.92435556,22.5674356 0.1232,23.4946198 C3.57342222,22.2103357 7.8288,21.749932 12.3903111,21.5988022 C12.1215111,19.9433893 9.76515556,20.3986916 8.30231111,20.4624595 C5.5832,20.5848937 2.16097778,20.931153 0,21.3469193 C3.13226667,20.2022867 7.52764444,20.3451266 11.7712,20.3361992 C10.4732444,16.165783 10.9231111,9.54094295 13.7536,7.07376555 C12.9515556,5.0019487 13.2004444,1.61332614 14.2488889,0 C17.4091556,0.145390656 19.3256,1.55784812 21.3111111,2.90590008 C23.7732444,2.18851198 26.3623111,1.83141212 29.736,2.02144026 C31.1546667,2.10178773 32.6299556,2.755408 33.6989333,2.65210411 C34.7473778,2.55135094 35.9028444,1.34550125 36.9208,0.885097502 C38.2467556,0.285042207 39.3686222,0.0561156917 40.8856,0 Z" id="Github__x28_alt_x29_"></path>
                    </g>
                </g>
            </g>
        </g>
    </g>
</svg>