<?xml version="1.0" encoding="UTF-8"?>
<svg width="124px" height="124px" viewBox="0 0 124 124" version="1.1" xmlns="http://www.w3.org/2000/svg" xmlns:xlink="http://www.w3.org/1999/xlink">
    <!-- Generator: sketchtool 46.2 (44496) - http://www.bohemiancoding.com/sketch -->
    <title>A11607DC-6AF7-4B56-9836-70812A486BF5</title>
    <desc>Created with sketchtool.</desc>
    <defs></defs>
    <g id="Page-1" stroke="none" stroke-width="1" fill="none" fill-rule="evenodd">
        <g id="Header-10" transform="translate(-554.000000, -2239.000000)">
            <g id="Group-17" transform="translate(106.000000, 2196.000000)">
                <g id="Group-15">
                    <g id="Group-4" transform="translate(37.000000, 45.000000)">
                        <g id="road4" transform="translate(413.000000, 0.000000)">
                            <g id="Group" transform="translate(29.000000, 35.000000)" fill-rule="nonzero" fill="#B0834D">
                                <path d="M60.9550727,12.9442308 L56.8846171,0.713461538 C56.7828557,0.305769231 56.3758102,0 55.9687646,0 L53.9335368,0 C53.5264912,0 53.2212071,0.203846154 53.0176843,0.611538462 L51.0984645,5.09615385 L30.5284171,5.09615385 C30.3248943,5.09615385 30.0196101,5.19807692 29.8160873,5.40192308 L16.86288,18.3767308 C15.3517233,18.5765 14.2465946,19.8189423 14.2465946,21.4028269 L14.2465946,28.5374423 L4.172217,28.5374423 C1.83170502,28.5374423 0,30.4739808 0,32.7162885 L0,37.7105192 C0,38.3220577 0.407045561,38.72975 1.0176139,38.72975 L16.2818224,38.72975 L16.2818224,39.7489808 L6.61449036,39.7489808 C2.95108032,39.7489808 0,42.70475 0,46.3739808 C0,50.0432115 2.95108032,52.9989808 6.61449036,52.9989808 L38.1605213,52.9989808 C41.8239314,52.9989808 44.7750117,50.0432115 44.7750117,46.3739808 C44.7750117,42.70475 41.8239314,39.7489808 38.1605213,39.7489808 L28.4931893,39.7489808 L28.4931893,38.72975 L31.546031,38.72975 C32.1565993,38.72975 32.5636449,38.3220577 32.5636449,37.7105192 L32.5636449,34.0270192 C32.6268369,33.9052747 32.6616305,33.770758 32.6654063,33.6335962 L32.6654063,25.6835962 C32.6654063,23.2374423 31.4442696,20.9951346 29.4090418,19.5682115 C28.8922828,19.2231786 28.3321219,18.9483082 27.7432078,18.7507885 L33.0724518,13.2489808 L50.3413597,12.5722115 L52.791774,34.6589423 C52.251421,34.7109231 51.898309,35.1033269 51.898309,35.6720577 L51.898309,39.7489808 C51.898309,40.13425 52.0611272,40.439 52.3328301,40.61125 L46.9120009,51.4711538 C46.7084781,51.7769231 46.7084781,52.1846154 46.9120009,52.4903846 C47.1155237,52.7961538 47.5225692,53 47.8278534,53 L53.6282526,53 C56.6810943,53 59.4286519,51.0634615 60.3445044,48.0057692 C60.8533113,46.5788462 60.8533113,44.9480769 60.3445044,43.5211538 L59.3869297,40.7131731 C59.7888872,40.5816923 60.0382026,40.2290385 60.0382026,39.75 L60.0382026,35.6730769 C60.0382026,35.0615385 59.631157,34.6538462 59.0205887,34.6538462 L60.9540551,13.3519231 C61.0568341,13.25 60.9550727,13.0461538 60.9550727,12.9442308 Z M54.6458665,2.03846154 L55.2564349,2.03846154 L59.0216063,13.3519231 L57.0881399,34.6538462 L54.8493893,34.6538462 L51.898309,8.35769231 L54.6458665,2.03846154 L54.6458665,2.03846154 Z M58.0039924,38.6288462 L53.9335368,38.6288462 L53.9335368,36.6923077 L58.0039924,36.6923077 L58.0039924,38.6288462 Z M26.4559262,20.5324038 C27.2229736,20.7205486 27.9375535,21.0801485 28.5461052,21.58425 C28.5898626,21.6209423 28.6346376,21.6576346 28.6773774,21.6953462 L28.7129939,21.7279615 C28.966669,21.9588429 29.1992682,22.2119363 29.4080242,22.4842308 L29.4589048,22.5525192 C29.7234845,22.9153654 29.9483771,23.3159231 30.1213715,23.7490962 C30.1590232,23.8235 30.1926045,23.8989231 30.2241505,23.9733269 C30.42055,24.5196346 30.5294347,25.0965192 30.5294347,25.6856346 L30.5294347,32.2087115 L23.4061374,29.6606346 C22.1850007,29.1510192 21.3709096,28.0298654 21.3709096,26.7048654 L21.3709096,20.3856346 L25.136081,20.3856346 C25.5817959,20.3856346 26.0285284,20.4355769 26.4559262,20.5324038 L26.4559262,20.5324038 Z M4.17018177,30.5779423 L8.14091122,30.5779423 C8.14091122,31.6990962 7.2250587,32.6164038 6.10568341,32.6164038 L2.04031587,32.6164038 L2.0423511,32.5634038 C2.16751761,31.4677308 3.07014114,30.5789615 4.17018177,30.5779423 Z M42.7397839,46.375 C42.7397839,48.9230769 40.7045561,50.9615385 38.1605213,50.9615385 L6.61449036,50.9615385 C4.07045561,50.9615385 2.0352278,48.9230769 2.0352278,46.375 C2.0352278,43.8269231 4.07045561,41.7884615 6.61449036,41.7884615 L38.1605213,41.7884615 C40.7045561,41.7884615 42.7397839,43.8269231 42.7397839,46.375 Z M26.4579615,39.75 L18.3170502,39.75 L18.3170502,38.7307692 L26.4579615,38.7307692 L26.4579615,39.75 Z M27.4755754,36.6923077 L2.0352278,36.6923077 L2.0352278,34.6538462 L6.10568341,34.6538462 C8.344434,34.6538462 10.176139,32.8192308 10.176139,30.5769231 L15.2642085,30.5769231 C15.8747769,30.5769231 16.2818224,30.1692308 16.2818224,29.5576923 L16.2818224,21.4038462 C16.2818224,20.8942308 16.688868,20.3846154 17.2994363,20.3846154 L19.4364255,20.3846154 L19.4364255,26.6019231 C19.4364255,28.8442308 20.7593236,30.7807692 22.7945514,31.4942308 L30.5284171,34.2940577 L30.5284171,36.6923077 L27.4755754,36.6923077 Z M32.5636449,11.2115385 C32.2583607,11.2115385 32.0548379,11.3134615 31.8513151,11.5173077 L25.3385862,18.3461538 L19.7417097,18.3461538 L30.9354626,7.13461538 L50.2263694,7.13461538 L49.9648426,7.74615385 C49.8630812,7.95 49.8630812,8.05192308 49.8630812,8.25576923 L50.1012029,10.3992115 L32.5636449,11.2115385 L32.5636449,11.2115385 Z M58.411038,47.4961538 C57.8004696,49.5346154 55.8670032,50.9615385 53.6282526,50.9615385 L49.4560356,50.9615385 L54.5441051,40.7692308 L57.2916627,40.7692308 L58.411038,44.2346154 C58.7163221,45.3557692 58.7163221,46.4769231 58.411038,47.4961538 L58.411038,47.4961538 Z" id="Shape"></path>
                                <path d="M8.11111111,43 C8.04327778,43 7.9775,43.006 7.91583333,43.015 C7.80992484,43.0052134 7.70360707,43.0002081 7.59722222,43 C5.64444444,43 4,44.6 4,46.5 C4,48.4 5.64444444,50 7.59722222,50 C7.70411111,50 7.811,49.994 7.91583333,49.985 C7.9775,49.995 8.04327778,50 8.11111111,50 L36.8888889,50 C36.9505556,50 37.0122222,49.994 37.0697778,49.984 C37.17975,49.994 37.29075,50 37.4027778,50 C39.3555556,50 41,48.4 41,46.5 C41,44.6 39.3555556,43 37.4027778,43 C37.2963929,43.0002081 37.1900752,43.0052134 37.0841667,43.015 C37.0195636,43.0051525 36.9542798,43.0001378 36.8888889,43 L8.11111111,43 L8.11111111,43 Z M6.05555556,46.5 C6.05555556,45.7 6.775,45 7.59722222,45 C8.36497222,45 9.04227778,45.61 9.12861111,46.343 L9.13066667,46.354 C9.14138159,46.4510542 9.14138159,46.5489458 9.13066667,46.646 L9.12963889,46.657 C9.04330556,47.389 8.36497222,48 7.59722222,48 C6.775,48 6.05555556,47.3 6.05555556,46.5 L6.05555556,46.5 Z M11.1944444,46.5 C11.1944444,46 11.0916667,45.5 10.8861111,45 L34.1652778,45 C33.9350556,45.457 33.8055556,45.967 33.8055556,46.5 C33.8055556,47.033 33.9350556,47.543 34.1652778,48 L10.8861111,48 C11.0916667,47.5 11.1944444,47 11.1944444,46.5 Z M38.9444444,46.5 C38.9444444,47.3 38.225,48 37.4027778,48 C36.6350278,48 35.9577222,47.39 35.8713889,46.657 L35.8693333,46.646 C35.8584707,46.548285 35.8584707,46.449715 35.8693333,46.352 C35.9515556,45.615 36.6319444,45 37.4027778,45 C38.225,45 38.9444444,45.7 38.9444444,46.5 Z" id="Shape"></path>
                            </g>
                            <circle id="Oval" stroke="#FFFFFF" stroke-width="3" opacity="0.5" cx="60" cy="60" r="60"></circle>
                        </g>
                    </g>
                </g>
            </g>
        </g>
    </g>
</svg>