<?xml version="1.0" encoding="UTF-8"?>
<svg width="95px" height="95px" viewBox="0 0 95 95" version="1.1" xmlns="http://www.w3.org/2000/svg" xmlns:xlink="http://www.w3.org/1999/xlink">
    <!-- Generator: sketchtool 46.2 (44496) - http://www.bohemiancoding.com/sketch -->
    <title>FB468623-F098-4284-9538-DFD3BECD76CD</title>
    <desc>Created with sketchtool.</desc>
    <defs></defs>
    <g id="Page-1" stroke="none" stroke-width="1" fill="none" fill-rule="evenodd">
        <g id="Header-10" transform="translate(-777.000000, -6162.000000)">
            <g id="Footer-1-(dark)" transform="translate(0.000000, 4917.000000)">
                <g id="Group-12" transform="translate(365.000000, 926.000000)">
                    <g id="Group-8" transform="translate(0.000000, 321.000000)">
                        <g id="Group-5" transform="translate(414.000000, 0.000000)">
                            <g id="Group-2" stroke-width="3" stroke="#979797" opacity="0.5">
                                <circle id="Oval-2" cx="45.5" cy="45.5" r="45.5"></circle>
                            </g>
                            <g id="002-reddit-alien-head-logo" transform="translate(23.000000, 26.000000)" fill-rule="nonzero" fill="#BCBCBC">
                                <path d="M31.4867326,20.0744392 C31.6003836,20.365017 31.6519872,20.6651169 31.6519872,20.9632714 C31.6519872,21.5634711 31.4446511,22.1464696 31.0967359,22.6223701 C30.7527115,23.0926392 30.2652412,23.4576532 29.6917647,23.6183003 L29.6927886,23.6183003 C29.6879764,23.6202457 29.6831641,23.6202457 29.6808092,23.6220887 C29.6784543,23.6220887 29.6745635,23.624034 29.6727205,23.624034 C29.4041562,23.7157739 29.1288343,23.7587769 28.8556625,23.7587769 C28.2153266,23.7587769 27.5864582,23.5279939 27.083732,23.1346183 C26.5848966,22.742881 26.2072888,22.1799506 26.0888257,21.512277 L26.0878018,21.512277 C26.0878018,21.5103316 26.0878018,21.5079767 26.0868803,21.5052122 C26.0868803,21.5032668 26.0868803,21.5013215 26.0849349,21.498557 L26.0868803,21.498557 C26.049611,21.3264424 26.0304644,21.1545326 26.0304644,20.9844657 C26.0304644,20.4062794 26.2273569,19.8510281 26.5523371,19.3922265 C26.8762935,18.9362918 27.3331497,18.5741446 27.867821,18.3876957 C27.8697664,18.3876957 27.8717117,18.3866718 27.8717117,18.3866718 C27.8744762,18.3866718 27.8744762,18.3839073 27.8769335,18.3839073 C28.1793883,18.2720994 28.4986348,18.216093 28.8145025,18.216093 C29.3898219,18.216093 29.9565407,18.3905626 30.4343865,18.7097066 C30.9064986,19.0236289 31.2897377,19.483864 31.481818,20.055395 C31.4837634,20.0591834 31.4837634,20.0625622 31.4856064,20.065941 C31.4856064,20.0697294 31.4875517,20.0717771 31.4893947,20.0745416 L31.4867326,20.0745416 L31.4867326,20.0744392 Z M29.7262696,27.1686118 C29.5008107,27.0224015 29.2398231,26.9340404 28.9636821,26.9340404 C28.7409877,26.9340404 28.5096927,26.9976235 28.30379,27.1342094 L28.30379,27.1342094 C26.3580043,28.2954966 24.0695252,28.9319418 21.7973258,28.9319418 C20.0925619,28.9319418 18.3981393,28.5721496 16.8630327,27.8180603 L16.8551488,27.8142719 L16.8474697,27.8114051 C16.6159699,27.7167984 16.3522179,27.5156055 16.064507,27.3240372 C15.9182966,27.229328 15.7656358,27.1352333 15.5961832,27.0659164 C15.4289833,26.9947566 15.2432511,26.944996 15.0447203,26.944996 C14.8803872,26.944996 14.7076583,26.9817533 14.5371819,27.0591588 C14.5283765,27.0625376 14.5199807,27.0658141 14.5113801,27.0691929 L14.5123015,27.0691929 C14.244454,27.1714787 14.0351724,27.3588491 13.9006343,27.5805196 C13.7601577,27.8088454 13.691148,28.0746452 13.691148,28.3393187 C13.691148,28.5782928 13.7475639,28.8171646 13.8642865,29.0341252 C13.9753777,29.2396184 14.1462637,29.4193097 14.3698795,29.5397182 C16.5639567,31.0196376 19.1475187,31.6900756 21.7410123,31.6877207 C24.0793545,31.6877207 26.4318262,31.1463942 28.5262796,30.16101 L28.5372352,30.1543547 L28.5477812,30.148621 C28.8239222,29.985107 29.190984,29.8384871 29.5369538,29.6249052 C29.7080445,29.5159642 29.8752444,29.3898219 30.0185879,29.2258983 C30.1619314,29.0629987 30.2771182,28.8623178 30.3421347,28.6243675 L30.3421347,28.6233437 C30.36937,28.5182934 30.3822709,28.4160075 30.3822709,28.3137217 C30.3822709,28.1192865 30.3344556,27.9347829 30.2552071,27.7690164 C30.1390989,27.5193939 29.948964,27.3149246 29.7262696,27.1686118 Z M14.3215523,23.6095973 C14.3253407,23.6095973 14.3303577,23.6110307 14.334658,23.6133857 C14.6146898,23.7156715 14.9033222,23.7662513 15.1890877,23.7662513 C15.9020169,23.7662513 16.5948779,23.4742401 17.1194128,22.9983396 C17.6431285,22.5210057 18.0017945,21.8457554 18.0017945,21.0760008 C18.0017945,21.0559327 18.0017945,21.0358646 18.000873,21.0120082 C18.0028184,20.9776057 18.0037399,20.9398245 18.0037399,20.9011217 C18.0037399,20.1375104 17.6498862,19.4594956 17.1311874,18.9801139 C16.6105433,18.5003227 15.9193205,18.2069805 15.2037292,18.2069805 C15.0125704,18.2069805 14.817828,18.2294035 14.6274883,18.27384 C14.6246214,18.27384 14.6224713,18.2747615 14.6196044,18.2747615 C14.6196044,18.2747615 14.617659,18.2747615 14.6167375,18.2747615 C13.6694417,18.4730875 12.837947,19.176085 12.5310895,20.1431417 L12.5310895,20.1431417 L12.5310895,20.1441656 C12.5310895,20.146111 12.530168,20.147954 12.530168,20.147954 C12.4420117,20.4127299 12.4009541,20.6860041 12.4009541,20.9564114 C12.4009541,21.548932 12.5968227,22.1262992 12.9344991,22.6011757 C13.2692062,23.068066 13.7427517,23.4351278 14.3114159,23.6065257 C14.3155114,23.6067304 14.3174568,23.6077543 14.3215523,23.6095973 Z M44.0303135,16.6989044 L44.0303135,16.7027951 C44.0370711,16.7990401 44.0389141,16.8950802 44.0389141,16.990506 C44.0389141,18.0601558 43.6958112,19.0887478 43.123461,19.9614026 C42.5891993,20.7780511 41.8524137,21.4612877 41.0037177,21.9249015 C41.0581882,22.3506317 41.0897238,22.7797408 41.0897238,23.2074164 C41.0886999,25.5106394 40.2945769,27.7746477 38.9117216,29.5891717 L38.9117216,29.5900932 L38.9088547,29.5900932 C36.3523232,32.9910204 32.4263493,34.9966008 28.4620822,36.0081964 L28.4610583,36.0081964 L28.4582939,36.0105514 C26.3442843,36.5238235 24.1643367,36.7860397 21.9850034,36.7860397 C18.7363276,36.7860397 15.4902114,36.2001743 12.4610559,34.9855429 L12.4601345,34.982676 L12.4572676,34.982676 C9.31681609,33.6881818 6.32452036,31.6305881 4.48951868,28.6157669 C3.50229146,27.007248 2.96035061,25.1201307 2.96035061,23.2241057 C2.96035061,22.795099 2.98932648,22.3653756 3.04666388,21.9405669 C2.22018617,21.4752125 1.50439012,20.8153204 0.97279048,20.0272383 C0.405354964,19.1808972 0.045562758,18.1893697 0.00010238822,17.1412215 L0.00010238822,17.137126 L0.00010238822,17.1333376 L0.00010238822,17.1249418 C0.0010238822,15.6570019 0.638697717,14.2664674 1.62961091,13.2411518 C2.62042172,12.2161433 3.9738916,11.5462172 5.42565417,11.5462172 C5.44572227,11.5462172 5.46579036,11.5462172 5.48585845,11.5462172 C5.63810973,11.535876 5.79169206,11.5299375 5.94537678,11.5299375 C6.67458568,11.5299375 7.4054328,11.6479911 8.09952254,11.9140981 L8.10331091,11.9169649 L8.10720166,11.9181936 C8.69972229,12.1677137 9.28845456,12.4687351 9.81319419,12.8856599 C9.98326102,12.7964798 10.1686861,12.6961393 10.3767389,12.6168908 C13.5573266,10.7334595 17.2542581,10.0069127 20.8569924,9.79732401 C20.8883232,8.01259495 21.1076388,6.14411232 21.978041,4.50897244 C22.7029496,3.15038315 23.9611984,2.09271283 25.4592405,1.726163 L25.4654862,1.72309136 L25.4735748,1.72216986 C26.0441844,1.61179536 26.6195038,1.56090842 27.1910349,1.56090842 C28.7134453,1.56090842 30.217733,1.92141734 31.6254687,2.484143 C32.2486034,1.5437072 33.138357,0.809686045 34.1821025,0.397983012 L34.1921366,0.392249271 L34.2021706,0.388460907 C34.8147593,0.197609265 35.4618529,0.0860061049 36.1113014,0.0860061049 C36.7964833,0.0860061049 37.4870919,0.211226898 38.134083,0.500268844 L38.134083,0.497913915 C38.1350045,0.500268844 38.1360284,0.500268844 38.1360284,0.500268844 C38.1408407,0.501907055 38.144629,0.504773925 38.1479055,0.504773925 C39.0754403,0.862006426 39.8605532,1.52220567 40.417238,2.34264248 C40.9744347,3.16666287 41.3022817,4.15368532 41.3022817,5.16845497 C41.3022817,5.35551824 41.2917358,5.54288869 41.2698247,5.73046391 L41.2678793,5.73425227 C41.2678793,5.73711914 41.2678793,5.74121467 41.2668554,5.74408154 C41.1580167,7.05557225 40.493722,8.20621107 39.5532862,9.02695504 C38.607219,9.85097544 37.3819392,10.3486846 36.1243047,10.3486846 C35.9225999,10.3486846 35.7190521,10.3374219 35.5164258,10.3103914 C34.2691325,10.2150679 33.1061047,9.61148939 32.251675,8.71364709 C31.3943785,7.81723822 30.841994,6.61950082 30.841994,5.32664477 C30.841994,5.26408556 30.8477277,5.19999054 30.8495707,5.13794328 C29.6787614,4.61658246 28.4354613,4.18409462 27.1998402,4.1851185 C27.0210704,4.1851185 26.842403,4.19494777 26.6636331,4.21307048 L26.6616878,4.21307048 C25.7366102,4.30225062 24.8764467,4.88535154 24.4597267,5.72401345 L24.4597267,5.72493494 L24.4597267,5.72780181 C23.8270699,6.95994165 23.7009276,8.40023675 23.681781,9.82988347 C27.2284066,10.0611785 30.7960217,10.9122293 33.9250057,12.7108832 L33.929818,12.7108832 L33.974664,12.7374018 C34.0339468,12.7725209 34.1438093,12.8327252 34.2432283,12.8857623 C34.4583459,12.7112928 34.6857502,12.5319086 34.9452019,12.3773024 C35.8937264,11.7455671 37.0176419,11.43144 38.1420693,11.43144 C38.6409047,11.43144 39.1402521,11.4950231 39.6247531,11.61922 L39.6266985,11.61922 L39.6467666,11.6251585 C39.6539338,11.6261824 39.6591556,11.6285373 39.6649917,11.6285373 L39.6649917,11.6294588 C40.8099992,11.9207533 41.8458608,12.5782905 42.6257519,13.4649724 C43.405131,14.3530879 43.9292563,15.4766962 44.0315421,16.6964471 L44.0315421,16.6990068 L44.0303135,16.6990068 L44.0303135,16.6989044 Z M33.583541,5.09207335 C33.583541,5.14009343 33.5845649,5.18934216 33.5893771,5.23951239 L33.5893771,5.24237926 L33.5893771,5.248113 C33.6123121,5.86428531 33.903197,6.43776173 34.3453093,6.8613418 C34.7896742,7.28522903 35.3794304,7.54754765 35.9775824,7.54990258 L35.9857734,7.54990258 L35.9938621,7.54990258 C36.0368651,7.55328139 36.0808921,7.55328139 36.1228712,7.55328139 C36.7268593,7.55420288 37.3261376,7.29403442 37.7762362,6.87188778 C38.2272563,6.447591 38.5245917,5.87053099 38.5484482,5.24913688 L38.5493697,5.24627001 L38.5493697,5.24248165 C38.5532604,5.19497351 38.5552058,5.15002509 38.5552058,5.10149307 C38.5552058,4.46187386 38.2560274,3.85215201 37.7877037,3.40061996 C37.3213254,2.94949746 36.6933784,2.66997762 36.0742368,2.67161583 C35.8744774,2.67161583 35.676561,2.6988511 35.4826377,2.75905537 L35.4759825,2.75956731 L35.4702487,2.76192224 C34.9599458,2.89451498 34.4815881,3.20915398 34.1379732,3.62700031 C33.7928225,4.04290126 33.583541,4.5570949 33.583541,5.09207335 Z M7.40389698,14.5983077 C6.92983952,14.3775587 6.43960472,14.2198808 5.95510366,14.2219286 C5.87380741,14.2219286 5.79158967,14.2267408 5.71039581,14.2355462 L5.69913311,14.2355462 L5.68787041,14.2369796 C4.99214245,14.2561262 4.28996404,14.5595025 3.76286948,15.0457442 C3.23536537,15.5302452 2.8865287,16.184506 2.85970299,16.905831 L2.85970299,16.9124862 L2.85847433,16.9184247 C2.85376447,16.976786 2.8518191,17.0348401 2.8518191,17.0907441 C2.8518191,17.5356209 2.98830259,17.9656514 3.21969997,18.3570816 C3.39099546,18.6485809 3.61563522,18.9141759 3.86966039,19.1455733 C4.68272525,17.3652469 5.9530559,15.854304 7.40389698,14.5983077 Z M38.299952,23.3071425 C38.299952,21.7201251 37.727397,20.1260429 36.8003741,18.8426065 C34.9519596,16.2707168 32.0848846,14.5932906 29.102111,13.6580766 L29.0811214,13.6507047 C28.5085665,13.4751089 27.9304826,13.3195812 27.3473817,13.1864765 C25.6042222,12.7896197 23.8170358,12.5920105 22.0316924,12.5920105 C19.6343747,12.5920105 17.2371593,12.9467857 14.9418201,13.6546978 C11.9597632,14.6010721 9.08306379,16.2666213 7.23884717,18.8468045 L7.23884717,18.8487498 C6.3041451,20.1375104 5.75677768,21.7369168 5.75677768,23.3295655 C5.75677768,23.9159429 5.83008764,24.5022178 5.98510341,25.072725 L5.98704879,25.0737488 C6.32267737,26.3544207 6.97908825,27.4973804 7.82891048,28.4927987 C8.67822076,29.4905719 9.72022568,30.3417252 10.8161892,31.0360197 C11.0589517,31.1865304 11.3026356,31.3298739 11.5520533,31.4698386 C14.7357126,33.2468885 18.4016205,34.0258581 22.0412145,34.0258581 C22.6567725,34.0258581 23.2760165,34.003947 23.8875813,33.9599201 C27.5527724,33.6569533 31.233117,32.5751194 34.2083139,30.3645577 L34.2093378,30.3622028 C35.1564288,29.6621745 36.0336911,28.814912 36.7275761,27.8511317 C37.4243279,26.8868395 37.9346308,25.8087939 38.1612159,24.6379846 L38.1612159,24.6346058 L38.1621374,24.6335819 C38.2550035,24.1963842 38.299952,23.7525313 38.299952,23.3071425 Z M41.1928287,16.9913251 C41.1919072,16.6061407 41.1039558,16.2226968 40.910954,15.8650547 L40.9061417,15.8605496 L40.9041963,15.8548159 C40.6460756,15.323421 40.2408231,14.9220592 39.7525336,14.6484779 C39.2641418,14.3730536 38.6926108,14.2331913 38.1192368,14.2331913 C37.6008452,14.2331913 37.0851157,14.3490947 36.6274404,14.5791611 C38.0829913,15.8430412 39.3598748,17.3619705 40.1850215,19.1493617 C40.4507189,18.9180667 40.677304,18.6355776 40.8468589,18.3216553 C41.0677103,17.9097475 41.1928287,17.4474647 41.1928287,16.9913251 Z" id="reddit"></path>
                            </g>
                        </g>
                    </g>
                </g>
            </g>
        </g>
    </g>
</svg>