<?xml version="1.0" encoding="UTF-8"?>
<svg width="53px" height="53px" viewBox="0 0 53 53" version="1.1" xmlns="http://www.w3.org/2000/svg" xmlns:xlink="http://www.w3.org/1999/xlink">
    <!-- Generator: sketchtool 46.2 (44496) - http://www.bohemiancoding.com/sketch -->
    <title>4671CC00-3746-4846-9689-632348427457</title>
    <desc>Created with sketchtool.</desc>
    <defs></defs>
    <g id="Page-1" stroke="none" stroke-width="1" fill="none" fill-rule="evenodd" opacity="0.878849638">
        <g id="Header-10" transform="translate(-210.000000, -1665.000000)" fill-rule="nonzero" fill="#FFFFFF">
            <g id="002-startup" transform="translate(210.000000, 1665.000000)">
                <circle id="Oval" cx="1" cy="52" r="1"></circle>
                <circle id="Oval" cx="28" cy="25" r="1"></circle>
                <path d="M40.68348,12.3183372 C39.8331402,11.4680961 38.7025496,11 37.5,11 C36.2974504,11 35.1667545,11.4683067 34.31652,12.3183372 C32.56116,14.0733814 32.56116,16.9289359 34.31652,18.6838748 C35.1943581,19.5613969 36.3469683,20 37.5,20 C38.6527156,20 39.8058526,19.5611863 40.68348,18.6838748 C42.43884,16.9288306 42.43884,14.0732761 40.68348,12.3183372 Z M39.1877206,17.1882637 C38.2570985,18.1185572 36.7427962,18.1185572 35.8123848,17.1882637 C34.8817626,16.2579701 34.8817626,14.7441365 35.8123848,13.8137377 C36.2632092,13.3630214 36.8624822,13.1148589 37.5,13.1148589 C38.1375178,13.1148589 38.7367908,13.3630214 39.1876152,13.8137377 C40.1182374,14.7441365 40.1182374,16.2579701 39.1877206,17.1882637 Z" id="Shape"></path>
                <path d="M13.4356312,43.1263799 C12.9323107,42.8757332 12.3213097,43.080651 12.0706634,43.5838709 L10.8581923,46.0188547 C10.3309427,47.0775125 9.27056285,47.7854474 8.09053787,47.8661572 L6.68034821,47.9626846 C6.44197059,47.9786035 6.28521525,47.8598708 6.21271844,47.7873739 C6.14022164,47.7148769 6.02118492,47.5578172 6.03740798,47.319642 L6.1339352,45.9095517 C6.21474633,44.7296263 6.9226802,43.6691435 7.98123499,43.1418932 L10.4161138,41.9294203 C10.9194343,41.6787736 11.1242505,41.0676703 10.8736042,40.5644504 C10.6230592,40.0612306 10.0119568,39.8563127 9.50863628,40.1069594 L7.07375746,41.3194323 C5.3711471,42.1672913 4.23269372,43.8727432 4.10270644,45.7704387 L4.00617922,47.1805291 C3.95406263,47.941696 4.23350488,48.6875523 4.77292169,49.22697 C5.26955018,49.7235992 5.94128634,50 6.638878,50 C6.69880194,50 6.75913145,49.9979721 6.81935957,49.9938149 L8.22954924,49.8972876 C10.1272419,49.7674015 11.8326913,48.6290478 12.6805491,46.9262322 L13.8930202,44.4913498 C14.1436665,43.9880285 13.9388503,43.3770265 13.4356312,43.1263799 Z" id="Shape"></path>
                <path d="M52.2829007,0.696356502 C51.7952188,0.213105735 51.1233752,-0.0396091133 50.4409726,0.00506112569 L49.4732694,0.0671204786 C40.796342,0.624301012 32.6759371,4.83715229 27.1942523,11.6255708 L24.9164023,14.4462517 L18.9554208,14.2701739 C18.9452759,14.2698616 18.9350274,14.2697574 18.924986,14.2697574 C14.197443,14.2697574 9.75281978,16.1215419 6.40985439,19.4839926 L0.304462724,25.6252654 C0.0140896421,25.91734 -0.0781465132,26.3541504 0.0692657036,26.7396264 C0.216677921,27.1252066 0.575891679,27.387397 0.986037187,27.4084305 L13.909865,28.0762974 L13.3829491,28.7288578 C13.1174208,29.0577932 13.0753918,29.5153247 13.2767378,29.8874726 C13.4792226,30.2619112 13.6914382,30.6304147 13.9127636,30.9929829 L10.8479559,34.6527146 C10.5859473,34.9656145 10.529529,35.4035703 10.7033387,35.7734274 C11.3728014,37.196315 12.2613119,38.4747794 13.3445433,39.5733132 C14.4540687,40.6987117 15.7514825,41.6189811 17.2005529,42.3088187 C17.342168,42.3762926 17.4940316,42.4093007 17.6449635,42.4093007 C17.8790218,42.4093007 18.1111132,42.3297481 18.2999333,42.1757451 C18.9601827,41.6369949 19.7213639,40.997971 20.4575968,40.3800848 C20.9823388,39.93963 21.5191925,39.4890749 22.0209531,39.0736105 C22.3204359,39.2548946 22.6236454,39.43066 22.9314099,39.5990324 C23.0871037,39.6842079 23.2578078,39.7261708 23.4278909,39.7261708 C23.6541852,39.7261708 23.8790302,39.6520328 24.0651589,39.5066723 L24.773545,38.9537609 L25.4404196,52.0080916 C25.4615377,52.4206405 25.722097,52.7819593 26.1053274,52.9302353 C26.2266526,52.9770922 26.3527397,53 26.4779987,53 C26.748703,53 27.0145419,52.8934787 27.2130929,52.69366 L33.3185881,46.5523873 C36.6615535,43.1898324 38.5024464,38.7192682 38.5024464,33.9639182 L38.5024464,28.2374852 L40.9110419,26.3574824 C48.1293751,20.7232013 52.5255511,12.2271092 52.9723426,3.04753132 L52.9970839,2.53876957 C53.0308313,1.85111862 52.7703755,1.1797114 52.2829007,0.696356502 Z M3.42703443,25.4411699 L7.87962872,20.9624838 C10.8263203,17.9985249 14.743303,16.364573 18.9099756,16.360512 L23.266607,16.4892123 L15.5326416,26.0667614 L3.42703443,25.4411699 Z M19.1259179,38.7747676 C18.5833706,39.2300084 18.0271586,39.6969113 17.5110088,40.1239338 C16.5126637,39.5800814 15.6095568,38.9014895 14.8203218,38.1009655 C14.0559315,37.3257442 13.4053094,36.4430644 12.880671,35.4707318 L15.1245665,32.7912464 C15.8030354,33.7068301 16.5456865,34.5740991 17.3479651,35.3865977 C17.3485862,35.3872224 17.3492073,35.3877431 17.3498285,35.3883678 C17.3500355,35.3885761 17.3502425,35.3888884 17.3504496,35.3890967 C17.3507601,35.3894091 17.3510707,35.3896173 17.3513813,35.3899297 C18.240927,36.2904151 19.1977607,37.1167624 20.2127725,37.8640778 C19.8543869,38.1633372 19.4872021,38.4715514 19.1259179,38.7747676 Z M36.4241826,33.9639182 C36.4241826,38.160734 34.7994391,42.1062928 31.8490208,45.0740002 L27.3964265,49.5526862 L26.7751006,37.3915521 L36.4240791,29.8600873 L36.4240791,33.9639182 L36.4241826,33.9639182 Z M50.8965633,2.94538329 C50.479482,11.5146762 46.3755424,19.4459865 39.6370236,24.7057249 L23.3367935,37.4288294 C21.9850317,36.6343447 20.725092,35.6962697 19.5719848,34.6334512 L25.0674377,29.1057955 C25.4732354,28.6976199 25.4732354,28.035584 25.0674377,27.6273043 C24.6615365,27.2190245 24.0034611,27.2190245 23.5975599,27.6273043 L18.1072829,33.1497537 C17.0978612,32.0257088 16.2038641,30.8026398 15.4426829,29.4944994 L28.8077122,12.9437073 C33.9249037,6.60667686 41.5054527,2.67382156 49.6055677,2.15381416 L50.5732709,2.09175481 C50.7000827,2.0838412 50.7849689,2.14715007 50.8240994,2.1858851 C50.8631264,2.22451601 50.9276192,2.30854604 50.9214081,2.43672567 L50.8965633,2.94538329 Z" id="Shape"></path>
            </g>
        </g>
    </g>
</svg>