<?xml version="1.0" encoding="UTF-8"?>
<svg width="124px" height="124px" viewBox="0 0 124 124" version="1.1" xmlns="http://www.w3.org/2000/svg" xmlns:xlink="http://www.w3.org/1999/xlink">
    <!-- Generator: sketchtool 46.2 (44496) - http://www.bohemiancoding.com/sketch -->
    <title>72FE79EA-6806-4630-92FF-CB669F410346</title>
    <desc>Created with sketchtool.</desc>
    <defs></defs>
    <g id="Page-1" stroke="none" stroke-width="1" fill="none" fill-rule="evenodd">
        <g id="Header-10" transform="translate(-348.000000, -2239.000000)">
            <g id="Group-17" transform="translate(106.000000, 2196.000000)">
                <g id="Group-15">
                    <g id="Group-4" transform="translate(37.000000, 45.000000)">
                        <g id="road3" transform="translate(207.000000, 0.000000)">
                            <g id="Group" transform="translate(38.000000, 32.000000)" fill-rule="nonzero" fill="#B0834D">
                                <path d="M7.77806997,47 C7.71583262,47 7.65534844,47.0055688 7.59837059,47.0148502 C7.50104678,47.0051145 7.40334916,47.0001592 7.30559208,47 C5.51122799,47 4,48.6001061 4,50.5 C4,52.3998939 5.51122799,54 7.30559208,54 C7.40464589,54 7.50194653,53.9944312 7.59837059,53.9851498 C7.65622502,53.9944312 7.71583262,54 7.77806997,54 L34.2228066,54 C34.280661,54 34.3358857,53.993503 34.3893573,53.9842217 C34.4901642,53.9944312 34.5918478,54 34.6952845,54 C36.4896486,54 38,52.3998939 38,50.5009281 C38,48.6001061 36.4896486,47 34.6952845,47 C34.5975274,47.0001592 34.4998298,47.0051145 34.402506,47.0148502 C34.343053,47.0050414 34.2829769,47.0000768 34.2228066,47 L7.77806997,47 L7.77806997,47 Z M5.88903499,50.5 C5.88903499,49.699947 6.54997809,49.0001326 7.30559208,49.0001326 C8.01124088,49.0001326 8.63361436,49.6108459 8.71338335,50.3431451 L8.71513651,50.3542827 C8.72494353,50.4511501 8.72494353,50.5488499 8.71513651,50.6457173 L8.71338335,50.6568549 C8.63449094,51.3900822 8.01211746,51.9998674 7.30559208,51.9998674 C6.54997809,51.9998674 5.88903499,51.300053 5.88903499,50.5 Z M10.6111842,50.5 C10.6111842,49.9997348 10.5165133,49.5003978 10.3280481,49.0001326 L31.7192874,49.0001326 C31.5029635,49.4669824 31.3902304,49.9799898 31.3896924,50.5 C31.3896924,51.0336781 31.5089076,51.5432246 31.7192874,51.9998674 L10.3280481,51.9998674 C10.5124078,51.5237667 10.6085336,51.0145561 10.6111842,50.5 L10.6111842,50.5 Z M36.1118416,50.5 C36.1118416,51.300053 35.4508985,51.9998674 34.6952845,51.9998674 C33.9896357,51.9998674 33.3663856,51.3891541 33.2874932,50.6568549 L33.2857401,50.6457173 C33.2757442,50.5479298 33.2757442,50.4492857 33.2857401,50.3514983 L33.2857401,50.3505701 C33.3620027,49.6145585 33.987006,49.0001326 34.6952845,49.0001326 C35.4508985,49.0001326 36.1118416,49.699947 36.1118416,50.5 L36.1118416,50.5 Z" id="Shape"></path>
                                <path d="M40.8635697,27.6456024 L40.8635697,26.5998766 L41.8143773,26.5998766 C42.3841563,26.5998766 42.7643029,26.2207349 42.7643029,25.6502589 C42.7643029,25.0797829 42.3850383,24.7006412 41.8143773,24.7006412 L40.8635697,24.7006412 L40.8635697,7.54051131 C42.6399394,7.22309034 44,5.66243728 44,3.8002343 C44,1.7105463 42.2888991,0 40.1985336,0 C38.3154406,0 36.7410514,1.38783499 36.4473418,3.1909624 L16.4274613,24.7006412 L16.155802,24.7006412 C14.5399583,24.7006412 13.3042612,25.9350561 13.3042612,27.5503761 L13.3042612,34.2003452 L3.89585227,34.2003452 C1.7111116,34.2003452 1.07008583e-05,36.0052361 1.07008583e-05,38.0949241 L1.07008583e-05,42.7504316 C1.07008583e-05,43.3200258 0.380157343,43.7000493 0.950818312,43.7000493 L15.2049944,43.7000493 L15.2049944,44.6505487 L6.17761414,44.6505487 C4.53835958,44.6472637 2.96528582,45.2967295 1.80607273,46.4554014 C0.646859635,47.6140733 -0.00304128402,49.1865445 1.07008582e-05,50.8252682 C-0.00304128402,52.4639919 0.646859635,54.036463 1.80607273,55.1951349 C2.96528582,56.3538068 4.53835958,57.0032726 6.17761414,56.9999876 L35.6367739,56.9999876 C37.2760284,57.0032726 38.8491022,56.3538068 40.0083153,55.1951349 C41.1675284,54.036463 41.8174293,52.4639919 41.8143773,50.8252682 C41.8174293,49.1865445 41.1675284,47.6140733 40.0083153,46.4554014 C38.8491022,45.2967295 37.2760284,44.6472637 35.6367739,44.6505487 L26.6093936,44.6505487 L26.6093936,43.7000493 L29.4600524,43.7000493 C30.0298314,43.7000493 30.409978,43.3209076 30.409978,42.7504316 L30.409978,39.3161131 C30.4690522,39.2026153 30.5016207,39.0772069 30.5052352,38.9493155 L30.5052352,31.5392995 C30.5052352,29.2591589 29.3647953,27.1694709 27.4640621,25.8389481 C27.2993958,25.7296632 27.1298771,25.6278673 26.9560239,25.5338713 L29.9919049,21.4797002 C30.1541949,21.361549 30.2688563,21.2001934 30.3367712,21.0194398 L36.5276048,12.7541506 C36.7040536,12.6315851 36.8361569,12.4552983 36.9042234,12.2515674 L38.9628365,9.50323092 L38.9628365,24.6988778 L38.0129109,24.6988778 C37.4422499,24.6988778 37.0629853,25.0789012 37.0629853,25.6493772 C37.0629853,26.2189715 37.4422499,26.5989949 38.0129109,26.5989949 L38.9628365,26.5989949 L38.9628365,28.4991121 C38.9628365,28.7839092 39.0580937,28.9743618 39.248608,29.1639326 C39.4382403,29.3543852 39.6278726,29.4496115 39.9136441,29.4496115 C40.9588269,29.4496115 41.8143773,30.3048847 41.8143773,31.3497287 C41.8143773,32.3945727 40.9588269,33.2489641 39.9136441,33.2489641 C38.8654477,33.2460602 38.0163022,32.3975838 38.0129109,31.3497287 C38.0129109,30.7792527 37.6327642,30.3992292 37.0621033,30.3992292 C36.4923243,30.3992292 36.1121777,30.7792527 36.1121777,31.3497287 C36.1121777,33.4394167 37.8232786,35.149963 39.9136441,35.149963 C42.0040096,35.149963 43.7151105,33.4394167 43.7151105,31.3497287 C43.7151105,29.5439561 42.4794134,28.0238624 40.8635697,27.6447207 L40.8635697,27.6456024 Z M34.9717378,11.115024 L31.3960661,11.5558865 L34.743297,7.97608341 L34.9726198,11.115024 L34.9717378,11.115024 Z M28.4148697,19.8555629 L22.9746273,20.5591794 L28.0885257,15.092485 L28.4148697,19.8555629 Z M29.9354563,13.6799618 L33.843646,13.1994217 L30.2326939,18.0215751 L29.9354563,13.6799618 L29.9354563,13.6799618 Z M36.5214307,6.07596626 L36.872471,5.70035145 C36.9933064,5.88110505 37.124726,6.05127796 37.2676118,6.21351534 C37.5763156,6.58736669 37.9555802,6.90126076 38.3842374,7.13579958 L36.7683937,9.2933804 L36.5214307,6.07508453 L36.5214307,6.07596626 Z M40.1985336,1.90011715 C41.2437163,1.90011715 42.0992668,2.7553903 42.0992668,3.8002343 C42.0992668,4.8450783 41.2437163,5.70035145 40.1985336,5.70035145 C39.8721896,5.70035145 39.5643678,5.61658758 39.2953545,5.47110298 L39.2891805,5.46669435 C38.7424375,5.15660598 38.3771813,4.60365485 38.3066205,3.97922445 C38.2576151,3.44682555 38.4346167,2.91833827 38.7944182,2.52276868 C39.1542198,2.12719909 39.6637149,1.90094478 40.1985336,1.89923543 L40.1985336,1.90011715 Z M28.5057168,31.3162231 C28.5083628,31.390288 28.5092448,31.4643529 28.5092448,31.5401812 L28.5092448,37.5253298 L21.8571196,35.149963 C20.7166797,34.675595 19.9563864,33.630751 19.9563864,32.3954544 L19.9563864,26.5998766 L23.5682205,26.5998766 C25.5633289,26.5998766 27.3696869,27.8351732 28.1290982,29.7352904 C28.3778252,30.2308198 28.4819025,30.7263492 28.5039528,31.284481 L28.5057168,31.3162231 L28.5057168,31.3162231 Z M7.60206153,36.1004624 C7.60206153,37.1453064 6.7473931,38.0005795 5.70221033,38.0005795 L1.90515397,38.0005795 C1.90515397,37.9838268 1.90691799,37.967074 1.9078,37.951203 C2.02510743,36.9284021 2.86742772,36.0995807 3.89673429,36.0995807 L7.60294354,36.0995807 L7.60206153,36.1004624 Z M39.9136441,50.8252682 C39.9185953,51.9607071 39.4695878,53.0510714 38.6664433,53.8539556 C37.8632988,54.6568399 36.772581,55.1057017 35.6367739,55.1007522 L6.17761414,55.1007522 C5.04180702,55.1057017 3.95108925,54.6568399 3.14794471,53.8539556 C2.34480016,53.0510714 1.89579274,51.9607071 1.90074391,50.8252682 C1.89602863,49.6899817 2.34514021,48.5998449 3.14825899,47.797152 C3.95137778,46.9944591 5.04196056,46.545718 6.17761414,46.5506659 L35.6367739,46.5506659 C36.7724275,46.545718 37.8630102,46.9944591 38.666129,47.797152 C39.4692478,48.5998449 39.9183594,49.6899817 39.9136441,50.8252682 Z M24.7077784,44.6505487 L17.1057276,44.6505487 L17.1057276,43.7000493 L24.7086604,43.7000493 L24.7086604,44.6505487 L24.7077784,44.6505487 Z M25.658586,41.7999321 L1.90074391,41.7999321 L1.90074391,39.9006967 L5.70221033,39.9006967 C7.79257586,39.9006967 9.50367675,38.1901504 9.50367675,36.1004624 L14.2550688,36.1004624 C14.8248477,36.1004624 15.2049944,35.720439 15.2049944,35.149963 L15.2049944,27.5494944 C15.2049944,27.0751264 15.585141,26.5998766 16.155802,26.5998766 L18.1509103,26.5998766 L18.1509103,32.3954544 C18.1509103,34.4851424 19.3857254,36.2900333 21.2873406,36.9557355 L28.5092448,39.5656412 L28.5092448,41.7999321 L25.658586,41.7999321 L25.658586,41.7999321 Z M24.4546413,24.7570716 C24.1606564,24.7195654 23.8645898,24.7007175 23.5682205,24.7006412 L19.101718,24.7006412 L20.9133681,22.7626099 L27.29207,21.9487778 L25.1108573,24.8619969 C24.8965287,24.8179106 24.6786721,24.7826416 24.4555233,24.7570716 L24.4546413,24.7570716 Z" id="Shape"></path>
                            </g>
                            <circle id="Oval" stroke="#FFFFFF" stroke-width="3" opacity="0.5" cx="60" cy="60" r="60"></circle>
                        </g>
                    </g>
                </g>
            </g>
        </g>
    </g>
</svg>