<?xml version="1.0" encoding="UTF-8"?>
<svg width="95px" height="95px" viewBox="0 0 95 95" version="1.1" xmlns="http://www.w3.org/2000/svg" xmlns:xlink="http://www.w3.org/1999/xlink">
    <!-- Generator: sketchtool 46.2 (44496) - http://www.bohemiancoding.com/sketch -->
    <title>8FFFD408-390F-4D9C-8BE6-E3C594058CA5</title>
    <desc>Created with sketchtool.</desc>
    <defs></defs>
    <g id="Page-1" stroke="none" stroke-width="1" fill="none" fill-rule="evenodd">
        <g id="Header-10" transform="translate(-501.000000, -6162.000000)">
            <g id="Footer-1-(dark)" transform="translate(0.000000, 4917.000000)">
                <g id="Group-12" transform="translate(365.000000, 926.000000)">
                    <g id="Group-8" transform="translate(0.000000, 321.000000)">
                        <g id="Group-6" transform="translate(138.000000, 0.000000)">
                            <g id="Group-2" stroke-width="3" stroke="#979797" opacity="0.5">
                                <circle id="Oval-2" cx="45.5" cy="45.5" r="45.5"></circle>
                            </g>
                            <g id="004-telegram" transform="translate(26.000000, 29.000000)" fill-rule="nonzero" fill="#BCBCBC">
                                <path d="M0.688324581,16.3209175 L9.66758954,19.672262 L13.1431156,30.8495153 C13.3654994,31.565378 14.2408757,31.8299784 14.8219053,31.3549448 L19.8270993,27.274618 C20.3517536,26.8471267 21.0990514,26.8258236 21.6473469,27.2238282 L30.6749336,33.7780447 C31.2964911,34.2298268 32.1770633,33.8892366 32.3329398,33.1381718 L38.9461296,1.32754807 C39.1162948,0.507118167 38.3101536,-0.177309502 37.5289526,0.124831086 L0.677802918,14.3408965 C-0.231606478,14.6916186 -0.223682757,15.9791583 0.688324581,16.3209175 Z M12.5829994,17.8882556 L30.131834,7.07990998 C30.447224,6.88623344 30.7717069,7.31268553 30.5008715,7.56390647 L16.0179976,21.0264389 C15.5089309,21.5003035 15.1805511,22.134461 15.0875448,22.8227855 L14.5941958,26.4788685 C14.5288575,26.9670217 13.8431309,27.0154733 13.7084276,26.5430377 L11.8110211,19.8760705 C11.5937033,19.115653 11.9103924,18.3034066 12.5829994,17.8882556 Z" id="XMLID_497_"></path>
                            </g>
                        </g>
                    </g>
                </g>
            </g>
        </g>
    </g>
</svg>