<?xml version="1.0" encoding="UTF-8"?>
<svg width="28px" height="58px" viewBox="0 0 28 58" version="1.1" xmlns="http://www.w3.org/2000/svg" xmlns:xlink="http://www.w3.org/1999/xlink">
    <!-- Generator: sketchtool 46.2 (44496) - http://www.bohemiancoding.com/sketch -->
    <title>0D9A9045-D79E-4741-AA82-455C2FEDE038</title>
    <desc>Created with sketchtool.</desc>
    <defs></defs>
    <g id="Page-1" stroke="none" stroke-width="1" fill="none" fill-rule="evenodd" opacity="0.88">
        <g id="Header-10" transform="translate(-861.000000, -1662.000000)" fill-rule="nonzero" fill="#FFFFFF">
            <g id="001-dollar" transform="translate(861.000000, 1662.000000)">
                <path d="M24.4115825,27.0522422 C23.2853885,26.1868867 22.1409346,25.5465078 20.9947465,25.1376758 C19.8540669,24.7322422 18.2387333,24.4341992 16.0563243,24.2264414 C14.0167297,24.0322773 12.5578799,23.8485352 11.7200691,23.6800859 C11.1299393,23.5405234 10.6155012,23.2619648 10.1469677,22.8277578 C9.9204028,22.6181875 9.61916628,22.2435664 9.61916628,21.4119687 L9.61916628,20.0864648 C9.61916628,17.7989766 10.0320021,17.0615156 10.2093981,16.8508125 C10.4195394,16.6013672 11.0323154,16.182793 12.7763861,16.182793 L14.6861215,16.182793 C16.5221035,16.182793 17.1187619,16.6095234 17.2889151,16.791793 C17.4962001,17.0142773 17.8436473,17.6521641 17.8436473,19.4237695 L17.8436473,19.8876563 C17.8436473,21.4448203 18.7148155,22.4122422 20.1170496,22.4122422 L25.1896153,22.4122422 C26.5918494,22.4122422 27.4630176,21.4448203 27.4630176,19.8876563 L27.4630176,18.6284219 C27.4630176,14.9918672 26.5476789,12.0565234 24.742198,9.90338672 C23.0969754,7.94384766 20.9034472,6.85510156 18.2129247,6.65935156 L18.2129247,2.52458594 C18.2129247,0.967421875 17.3418585,0 15.9395224,0 L12.3588578,0 C10.9565217,0 10.0854555,0.967421875 10.0855575,2.52458594 L10.0855575,6.62729297 C9.5126675,6.62729297 9.05586523,7.13445313 9.05586523,7.76010547 C9.05586523,8.38575781 9.5126675,8.89291797 10.0759686,8.89291797 L11.1056608,8.89291797 C11.6689619,8.89291797 12.1257642,8.38575781 12.1257642,7.76010547 L12.1257642,2.52458594 C12.1257642,2.40042969 12.1382094,2.32725 12.1474924,2.28975391 C12.1811558,2.27955859 12.2470545,2.26573828 12.3589598,2.26573828 L15.9396245,2.26573828 C16.0514278,2.26573828 16.1174285,2.27944531 16.1510919,2.28975391 C16.1603748,2.32713672 16.1728201,2.40042969 16.1728201,2.52458594 L16.1728201,7.75976562 C16.1728201,8.38541797 16.6296223,8.89257812 17.1929234,8.89257812 L17.3121735,8.89257812 C19.8639619,8.89257812 21.8062387,9.72848047 23.2495829,11.4476367 C24.6917029,13.1673594 25.422913,15.5833086 25.422913,18.6281953 L25.422913,19.8874297 C25.422913,20.0115859 25.4104677,20.0848789 25.4011848,20.1222617 C25.3675214,20.1325703 25.3016227,20.1463906 25.1897174,20.1463906 L20.1171516,20.1463906 C20.0053483,20.1463906 19.9393476,20.1326836 19.9056842,20.122375 C19.8964012,20.0849922 19.883956,20.0116992 19.883956,19.887543 L19.883956,19.4236563 C19.883956,17.4073633 19.499275,16.0138906 18.7066547,15.1622422 C17.9244395,14.3243008 16.6094243,13.9169414 14.6863255,13.9169414 L12.7765901,13.9169414 C10.8320691,13.9169414 9.50491471,14.3704063 8.71943515,15.3032773 C7.95211344,16.214625 7.57916366,17.7792656 7.57916366,20.0863516 L7.57916366,21.4118555 C7.57916366,22.7133438 8.01566587,23.8049219 8.84082745,24.5678711 C9.56448875,25.2384961 10.396587,25.68675 11.31417,25.9003984 C12.2519509,26.0905977 13.7376294,26.2794375 15.8821926,26.4835703 C17.8824112,26.6741094 19.3932863,26.9471172 20.3719734,27.2950039 C21.3235258,27.6343945 22.2847691,28.1739531 23.2291808,28.8985 C25.0412923,30.3469141 25.9599974,33.0677031 25.9599974,36.9856484 L25.9599974,39.5038906 C25.9599974,42.6644375 25.2100174,45.0238594 23.6669071,46.7171875 C22.1209405,48.4145938 20.042378,49.2396211 17.3122755,49.2396211 L17.1930254,49.2396211 C16.6297244,49.2396211 16.1729221,49.7467812 16.1729221,50.3724336 L16.1729221,55.4753008 C16.1729221,55.599457 16.1604768,55.6726367 16.1511939,55.7101328 C16.1175305,55.7203281 16.0516318,55.7341484 15.9397265,55.7341484 L12.3590618,55.7341484 C12.2472585,55.7341484 12.1812578,55.7204414 12.1475944,55.7101328 C12.1383114,55.67275 12.1258662,55.599457 12.1258662,55.4753008 L12.1258662,50.3724336 C12.1258662,49.7467812 11.6690639,49.2396211 11.1057629,49.2396211 L10.6881326,49.2396211 C7.92477467,49.2396211 5.85019054,48.40825 4.34564015,46.6978164 C2.8345611,44.9808125 2.0999847,42.6277344 2.0999847,39.5038906 L2.0999847,38.2447695 C2.0999847,38.1206133 2.11232795,38.0473203 2.12161089,38.0099375 C2.15537631,37.9997422 2.22127498,37.9859219 2.3329763,37.9859219 L7.4057461,37.9859219 C7.5173454,37.9859219 7.58334608,37.9997422 7.6171115,38.0099375 C7.62639444,38.0474336 7.6387377,38.1206133 7.6387377,38.2447695 L7.6387377,38.7087695 C7.6387377,40.734918 8.03759809,42.1330352 8.85765915,42.9826445 C9.65731815,43.8122031 10.958766,44.2154844 12.8363681,44.2154844 L15.2234099,44.2154844 C17.0664306,44.2154844 18.3622678,43.7862617 19.1854912,42.9024414 C20.0168754,42.0085391 20.4210404,40.5284063 20.4210404,38.3774219 L20.4210404,37.3833789 C20.4210404,35.9581875 20.0109588,34.8101953 19.2015068,33.9704414 C18.4803958,33.2235781 17.6270794,32.7089414 16.6652239,32.440918 C15.8732157,32.2457344 14.4565982,32.0436406 12.3063225,31.8154922 C10.2915164,31.60275 8.77798908,31.337332 7.80766681,31.026375 C6.87937278,30.729125 5.91047865,30.2096172 4.92791513,29.4823516 C3.00706057,28.1111953 2.04030865,25.288 2.04030865,21.0806211 L2.04030865,18.6285352 C2.04030865,16.2811211 2.45314447,14.3261133 3.26718692,12.818 C3.55679425,12.2812734 3.39980035,11.5855 2.91667942,11.2638945 C2.43325245,10.9422891 1.806807,11.1165156 1.51719967,11.6531289 C0.510459702,13.5181914 0,15.8650391 0,18.6285352 L0,21.0806211 C0,26.1039648 1.27961761,29.5667461 3.80304719,31.3726758 C4.95770214,32.2264766 6.11480534,32.8423867 7.24212152,33.2033008 C8.34893363,33.5578711 9.94233502,33.8417539 12.1126048,34.0709219 C14.1357758,34.2855898 15.5047544,34.4777148 16.182409,34.6423125 C16.8083444,34.8192578 17.3409404,35.141543 17.8092698,35.6266133 C18.1939508,36.0255898 18.3808337,36.6002656 18.3808337,37.3833789 L18.3808337,38.3774219 C18.3808337,40.3233672 17.9957447,41.0279766 17.7668335,41.2741367 C17.4795724,41.582375 16.8052841,41.9498594 15.2233079,41.9498594 L12.8362661,41.9498594 C11.1086191,41.9498594 10.4746249,41.5597188 10.2498962,41.3265859 C10.0365926,41.1056875 9.67884233,40.4718789 9.67884233,38.7088828 L9.67884233,38.2448828 C9.67884233,36.6877188 8.8077761,35.7204102 7.40564409,35.7204102 L2.33287429,35.7204102 C0.930742271,35.7204102 0.0596760443,36.6877187 0.0596760443,38.2448828 L0.0596760443,39.5040039 C0.0596760443,43.1969727 1.01071837,46.1501016 2.88628034,48.2812617 C4.65187517,50.2886055 7.07156025,51.3673828 10.0854555,51.4928984 L10.0854555,55.4754141 C10.0854555,57.0325781 10.9565217,58 12.3588578,58 L15.9395224,58 C17.3418585,58 18.2129247,57.0325781 18.2129247,55.4754141 L18.2129247,51.4769258 C21.0476898,51.2947695 23.3617942,50.2378555 25.1007643,48.3286133 C27.0245772,46.2176172 28,43.2485156 28,39.5038906 L28,36.9856484 C28,32.2911602 26.7927077,28.9491367 24.4115825,27.0522422 Z" id="Shape"></path>
            </g>
        </g>
    </g>
</svg>