<?xml version="1.0" encoding="UTF-8"?>
<svg width="95px" height="95px" viewBox="0 0 95 95" version="1.1" xmlns="http://www.w3.org/2000/svg" xmlns:xlink="http://www.w3.org/1999/xlink">
    <!-- Generator: sketchtool 46.2 (44496) - http://www.bohemiancoding.com/sketch -->
    <title>F6E62E51-6513-4698-B390-951CBC70F050</title>
    <desc>Created with sketchtool.</desc>
    <defs></defs>
    <g id="Page-1" stroke="none" stroke-width="1" fill="none" fill-rule="evenodd">
        <g id="Header-10" transform="translate(-915.000000, -6162.000000)">
            <g id="Footer-1-(dark)" transform="translate(0.000000, 4917.000000)">
                <g id="Group-12" transform="translate(365.000000, 926.000000)">
                    <g id="Group-8" transform="translate(0.000000, 321.000000)">
                        <g id="Group-7" transform="translate(552.000000, 0.000000)">
                            <g id="Group-2" stroke-width="3" stroke="#979797" opacity="0.5">
                                <circle id="Oval-2" cx="45.5" cy="45.5" r="45.5"></circle>
                            </g>
                            <g id="001-twitter-logo-silhouette" transform="translate(26.000000, 30.000000)" fill-rule="nonzero" fill="#BCBCBC">
                                <path d="M38.708659,3.74803548 C37.2839653,4.37932817 35.7552895,4.80746365 34.1491332,4.99860347 C35.789128,4.01652937 37.0445029,2.45882209 37.6394904,0.608396391 C36.1011375,1.51786013 34.4030797,2.17824756 32.5937661,2.53623941 C31.1449112,0.990612774 29.0840546,0.0278930043 26.7982197,0.0278930043 C22.4128828,0.0278930043 18.8571889,3.58358693 18.8571889,7.96652032 C18.8571889,8.58813585 18.9273325,9.19526725 19.0628128,9.77583389 C12.4642515,9.44440681 6.61310875,6.2830099 2.69701949,1.47915147 C2.01247077,2.64989866 1.62304395,4.01406264 1.62304395,5.47025456 C1.62304395,8.22533704 3.02597984,10.6562661 5.15457659,12.0784931 C3.85321931,12.0349775 2.62927934,11.6769856 1.55777053,11.0819349 L1.55777053,11.18111 C1.55777053,15.0270556 4.29590216,18.2368384 7.92654668,18.9673694 C7.26135229,19.1463653 6.55991597,19.2455405 5.83425511,19.2455405 C5.32149187,19.2455405 4.82561624,19.1947512 4.33941778,19.0979795 C5.35046012,22.2545695 8.28213504,24.5500182 11.7556047,24.6129514 C9.03923088,26.7415482 5.61414705,28.0066003 1.89400457,28.0066003 C1.25303471,28.0066003 0.621678774,27.9678916 6.32494428e-05,27.897748 C3.51464504,30.1545514 7.68714754,31.4703928 12.1716595,31.4703928 C26.7789919,31.4703928 34.7636015,19.3713436 34.7636015,8.87845079 L34.7369735,7.8504576 C36.2970843,6.73771015 37.6467641,5.33964446 38.708659,3.74803548 Z" id="Shape"></path>
                            </g>
                        </g>
                    </g>
                </g>
            </g>
        </g>
    </g>
</svg>