<?xml version="1.0" encoding="UTF-8"?>
<svg width="124px" height="124px" viewBox="0 0 124 124" version="1.1" xmlns="http://www.w3.org/2000/svg" xmlns:xlink="http://www.w3.org/1999/xlink">
    <!-- Generator: sketchtool 46.2 (44496) - http://www.bohemiancoding.com/sketch -->
    <title>27A27615-45C5-49D2-83B8-DBF3127192C4</title>
    <desc>Created with sketchtool.</desc>
    <defs></defs>
    <g id="Page-1" stroke="none" stroke-width="1" fill="none" fill-rule="evenodd">
        <g id="Header-10" transform="translate(-141.000000, -2239.000000)">
            <g id="Group-17" transform="translate(106.000000, 2196.000000)">
                <g id="Group-15">
                    <g id="Group-4" transform="translate(37.000000, 45.000000)">
                        <g id="road2">
                            <g id="Group" transform="translate(32.000000, 32.000000)" fill-rule="nonzero" fill="#B0834D">
                                <path d="M29.500438,0 C24.8135017,0 21,3.81350167 21,8.50043803 C21,13.1873744 24.8135017,17 29.500438,17 C34.1873744,17 38,13.1864983 38,8.50043803 C38,3.81350167 34.1873744,3.11240054e-15 29.500438,0 Z M28.608606,8.55913424 L27.5389333,8.55913424 L27.5389333,5.58752899 L28.60773,5.58752899 L28.60773,8.55913424 L28.608606,8.55913424 Z M28.608606,3.80386498 L26.6462252,3.80386498 C26.1547539,3.80386498 25.7552693,4.20334965 25.7552693,4.69569699 L25.7552693,9.45096625 C25.7552693,9.94331358 26.1547539,10.3427982 26.6471013,10.3427982 L28.608606,10.3427982 L28.608606,12.3638753 L26.6462252,12.3638753 C26.3210969,12.3536814 26.0162069,12.5213154 25.8506286,12.8013084 C25.6850503,13.0813015 25.6850503,13.429237 25.8506286,13.7092301 C26.0162069,13.9892232 26.3210969,14.1568571 26.6462252,14.1466632 L28.608606,14.1466632 L28.608606,15.1558877 C25.3251224,14.7178562 22.7827879,11.9013141 22.7827879,8.50043803 C22.7827879,5.09868591 25.3251224,2.28214378 28.608606,1.84411234 L28.608606,3.80386498 L28.608606,3.80386498 Z M30.391394,10.3427982 L31.4619428,10.3427982 L31.4619428,12.3638753 L30.391394,12.3638753 L30.391394,10.3427982 Z M30.391394,15.1558877 L30.391394,14.1466632 L32.3537748,14.1466632 C32.8452461,14.1466632 33.2447307,13.7480546 33.2447307,13.2548312 L33.2447307,9.45096625 C33.2447307,8.95861891 32.8461221,8.55913424 32.3528987,8.55913424 L30.391394,8.55913424 L30.391394,5.58752899 L32.3537748,5.58752899 C32.84632,5.58752899 33.2456068,5.1882422 33.2456068,4.69569699 C33.2456068,4.20315177 32.84632,3.80386498 32.3537748,3.80386498 L30.391394,3.80386498 L30.391394,1.84411234 C33.6748776,2.28214378 36.2172121,5.09868591 36.2172121,8.50043803 C36.2172121,11.9013141 33.6748776,14.7178562 30.391394,15.1558877 L30.391394,15.1558877 Z" id="Shape"></path>
                                <path d="M45.0947807,40.6306761 C44.6353531,40.4218944 44.0855792,40.6076564 43.8660747,41.0458411 C42.5947807,43.5930518 39.8700616,45.2390082 36.9224357,45.2390082 C36.4129885,45.2390082 36,45.6332197 36,46.1195041 C36,46.6057886 36.4129885,47 36.9224357,47 C40.5768394,47 43.9557811,44.9596367 45.530627,41.8035174 C45.7499635,41.3647573 45.5552613,40.8393444 45.0956868,40.6298112 L45.0947807,40.6306761 Z M45.0775643,29 C44.5683219,29 44.1551287,29.3944068 44.1551287,29.8804959 L44.1551287,35.5146317 C44.1551287,36.0009161 44.5681172,36.3951276 45.0775643,36.3951276 C45.5870115,36.3951276 46,36.0009161 46,35.5146317 L46,29.8804959 C46,29.3944068 45.5868068,29 45.0775643,29 Z" id="Shape"></path>
                                <path d="M49.5117538,18.424308 C49.192016,18.4142075 48.8921807,18.5803062 48.7293476,18.8577349 C48.5665144,19.1351637 48.5665144,19.4799126 48.7293476,19.7573414 C48.8921807,20.0347702 49.192016,20.2008689 49.5117538,20.1907683 C52.1253132,20.194117 54.2430597,22.3282319 54.2459077,24.9615132 C54.2426814,27.2581691 52.6180414,29.2275521 50.3776,29.6506623 C50.1191385,22.8973153 44.5863385,17.4816172 37.8206769,17.4816172 L22.7816615,17.4816172 L15.5619692,9.29774118 C15.3202323,9.02280412 14.934899,8.92720082 14.5940952,9.05760635 C14.2532913,9.18801188 14.0280871,9.51723186 14.0284308,9.88453585 L14.0284308,17.6916827 C8.18375385,18.774996 3.74166154,23.946775 3.74166154,30.1445768 L3.74166154,31.1237253 L0.732307692,31.6289242 C0.310153846,31.7001035 0,32.0681522 0,32.5004358 L0,40.0393585 C0,40.4707741 0.310153846,40.8396909 0.732307692,40.9108701 L4.06129231,41.4690195 C5.2864,46.8517322 9.88012308,50.8256168 15.3422769,51.247484 L15.9083077,55.2413335 C15.9703385,55.6770893 16.3399385,56 16.7767385,56 L22.3888,56 C22.8247385,56 23.1943385,55.6770893 23.2563692,55.2413335 L23.8163692,51.2882818 L32.1836308,51.2882818 L32.7436308,55.2413335 C32.8056615,55.6770893 33.1752615,56 33.6120615,56 L39.2232615,56 C39.6600615,56 40.0296615,55.6770893 40.0916923,55.2413335 L40.6999385,50.9532186 C46.380695,49.6120666 50.3953006,44.50397 50.3888,38.6253222 L50.3888,31.4379555 C53.5523692,31.0048039 56,28.2661394 56,24.9623812 C56,21.3574133 53.0897231,18.424308 49.5117538,18.424308 Z M1.75323077,39.2902405 L1.75323077,33.2486859 L3.7408,32.9153587 L3.7408,38.6253222 C3.7408,38.9612535 3.75630769,39.2971848 3.78215385,39.63138 L1.75323077,39.2911085 L1.75323077,39.2902405 Z M15.7825231,12.2074094 L20.4356923,17.4807491 L15.7833846,17.4807491 L15.7833846,12.2074094 L15.7825231,12.2074094 Z M21.6280615,54.2326717 L17.5374769,54.2326717 L17.1196308,51.2874138 L22.0450462,51.2874138 L21.6280615,54.2326717 Z M38.4625231,54.2326717 L34.3719385,54.2326717 L33.9549538,51.2874138 L37.8206769,51.2874138 C38.1764923,51.2874138 38.5323077,51.270921 38.8872615,51.2405397 L38.4625231,54.2326717 Z M48.6347077,30.6150541 L48.6347077,38.6244542 C48.6383716,41.5153651 47.5002436,44.2889461 45.4714495,46.3332119 C43.4426554,48.3774777 40.6899373,49.5244147 37.8206769,49.5209535 L16.3089231,49.5209535 L16.1521231,49.5183494 L16.1236923,49.5183494 C10.9622154,49.4306774 6.56233846,45.6555738 5.66203077,40.5428214 C5.5507712,39.9095173 5.49484418,39.267603 5.49489231,38.6244542 L5.49489231,30.1437087 C5.49489231,24.1360076 10.3453538,19.2480775 16.3089231,19.2480775 L37.8215385,19.2480775 C43.7842462,19.2480775 48.6355692,24.1351396 48.6355692,30.1437087 L48.6355692,30.6150541 L48.6347077,30.6150541 Z" id="Shape"></path>
                                <path d="M11.6987589,26.7050655 C9.656979,26.7074166 8.00238387,28.3392579 8,30.3529594 C8.00286045,32.3663277 9.65731628,33.9976499 11.6987589,34 C13.7398636,33.99718 15.3937932,32.3659951 15.3966525,30.3529594 C15.3942697,28.3395906 13.7402009,26.7078867 11.6987589,26.7050655 L11.6987589,26.7050655 Z M11.6987589,32.2635172 C10.6287916,32.2625763 9.7616498,31.4073593 9.76069575,30.3521061 C9.76260307,29.2975195 10.6294661,28.4433408 11.6987589,28.4424017 C12.7680509,28.4438119 13.6345269,29.2983722 13.6359568,30.3529594 C13.6345269,31.4075467 12.7680509,32.262107 11.6987589,32.2635172 L11.6987589,32.2635172 Z M36.1192195,23 L20.1518289,23 C19.6655827,23 19.2710484,23.3882554 19.2710484,23.8686681 L19.2710484,28.5004267 C19.2710484,28.979986 19.6655827,29.3682414 20.1518289,29.3682414 L36.1192195,29.3682414 C36.6054657,29.3682414 37,28.979986 37,28.5004267 L37,23.8686681 C37,23.3882554 36.6054657,23 36.1192195,23 Z M35.2393043,27.6317586 L21.0326093,27.6317586 L21.0326093,24.7364828 L35.2393043,24.7364828 L35.2393043,27.6317586 Z" id="Shape"></path>
                            </g>
                            <circle id="Oval" stroke="#FFFFFF" stroke-width="4" opacity="0.5" cx="60" cy="60" r="60"></circle>
                        </g>
                    </g>
                </g>
            </g>
        </g>
    </g>
</svg>