<?xml version="1.0" encoding="UTF-8"?>
<svg width="95px" height="95px" viewBox="0 0 95 95" version="1.1" xmlns="http://www.w3.org/2000/svg" xmlns:xlink="http://www.w3.org/1999/xlink">
    <!-- Generator: sketchtool 46.2 (44496) - http://www.bohemiancoding.com/sketch -->
    <title>3190EE1F-34F1-453A-9C56-44E38121F403</title>
    <desc>Created with sketchtool.</desc>
    <defs></defs>
    <g id="Page-1" stroke="none" stroke-width="1" fill="none" fill-rule="evenodd">
        <g id="Desktop" transform="translate(-653.000000, -6150.000000)">
            <g id="Group-8" transform="translate(379.000000, 6152.000000)">
                <g id="Group-11" transform="translate(276.000000, 0.000000)">
                    <g id="Group-32">
                        <g id="Group-3" stroke-width="3" stroke="#979797" opacity="0.5">
                            <g id="Group-2">
                                <circle id="Oval-2" cx="45.5" cy="45.5" r="45.5"></circle>
                            </g>
                        </g>
                        <g id="003-facebook-logo" transform="translate(34.000000, 25.000000)" fill-rule="nonzero" fill="#C4C4C4">
                            <path d="M22.1338875,0.00873880341 L16.6172334,0 C10.4194616,0 6.41418923,4.05698948 6.41418923,10.3362567 L6.41418923,15.1019631 L0.867440205,15.1019631 C0.388135234,15.1019631 0,15.4855966 0,15.9588028 L0,22.8637683 C0,23.3369745 0.388577806,23.720171 0.867440205,23.720171 L6.41418923,23.720171 L6.41418923,41.1435973 C6.41418923,41.6168035 6.80232446,42 7.28162943,42 L14.5185591,42 C14.9978641,42 15.3859993,41.6163665 15.3859993,41.1435973 L15.3859993,23.720171 L21.8714426,23.720171 C22.3507476,23.720171 22.7388828,23.3369745 22.7388828,22.8637683 L22.7415382,15.9588028 C22.7415382,15.7315939 22.6499259,15.5139977 22.4875022,15.3532037 C22.3250784,15.1924097 22.1037926,15.1019631 21.8736554,15.1019631 L15.3859993,15.1019631 L15.3859993,11.0620143 C15.3859993,9.12025218 15.8546826,8.13451515 18.4167292,8.13451515 L22.1330024,8.13320433 C22.6118648,8.13320433 23,7.74957086 23,7.2768016 L23,0.865141537 C23,0.392809213 22.6123073,0.00961268375 22.1338875,0.00873880341 Z" id="Shape"></path>
                        </g>
                    </g>
                </g>
            </g>
        </g>
    </g>
</svg>