<?xml version="1.0" encoding="UTF-8"?>
<svg width="124px" height="124px" viewBox="0 0 124 124" version="1.1" xmlns="http://www.w3.org/2000/svg" xmlns:xlink="http://www.w3.org/1999/xlink">
    <!-- Generator: sketchtool 46.2 (44496) - http://www.bohemiancoding.com/sketch -->
    <title>95356501-8E9D-4B09-9535-29BFABDCEC4B</title>
    <desc>Created with sketchtool.</desc>
    <defs></defs>
    <g id="Page-1" stroke="none" stroke-width="1" fill="none" fill-rule="evenodd">
        <g id="Header-10" transform="translate(-760.000000, -2239.000000)">
            <g id="Group-17" transform="translate(106.000000, 2196.000000)">
                <g id="Group-15">
                    <g id="Group-4" transform="translate(37.000000, 45.000000)">
                        <g id="road5" transform="translate(619.000000, 0.000000)">
                            <circle id="Oval" stroke="#FFFFFF" stroke-width="3" opacity="0.5" cx="60" cy="60" r="60"></circle>
                            <g id="Group" transform="translate(32.000000, 32.000000)" fill-rule="nonzero" fill="#B0834D">
                                <path d="M28,9 C12.2994667,9 0,15.0821538 0,22.8461538 L0,31.1538462 C0,38.9178462 12.2994667,45 28,45 C43.7005333,45 56,38.9178462 56,31.1538462 L56,22.8461538 C56,15.0821538 43.7005333,9 28,9 Z M28,10.8461538 C42.1661333,10.8461538 54.1333333,16.3412308 54.1333333,22.8461538 C54.1333333,29.3510769 42.1661333,34.8461538 28,34.8461538 C13.8338667,34.8461538 1.86666667,29.3510769 1.86666667,22.8461538 C1.86666667,16.3412308 13.8338667,10.8461538 28,10.8461538 Z M32.3838667,36.5298462 L32.5574667,36.5150769 C33.1473333,36.4689231 33.7288,36.4126154 34.3046667,36.3498462 C34.3802667,36.3415385 34.4586667,36.3369231 34.5333333,36.3286154 L34.5333333,42.7569231 C33.6168,42.8695385 32.6825333,42.9590769 31.7333333,43.0246154 L31.7333333,36.5723077 C31.9498667,36.5575385 32.1682667,36.5464615 32.3838667,36.5298462 Z M36.4,36.0821538 L36.5372,36.06 L36.8004,36.0166154 C37.3314667,35.9326154 37.8550667,35.8403077 38.3712,35.7406154 L38.7361333,35.6704615 C38.8910667,35.6390769 39.046,35.6086154 39.2,35.5763077 L39.2,41.952 C38.2937333,42.156 37.3576,42.3332308 36.4,42.4873846 L36.4,36.0821538 L36.4,36.0821538 Z M41.0666667,35.1406154 C41.4316,35.0473846 41.7909333,34.9504615 42.1456,34.8489231 C42.2436,34.8212308 42.3425333,34.7944615 42.4396,34.7658462 C42.6057333,34.7169231 42.7690667,34.6670769 42.9324,34.6172308 L42.9324,40.9264615 C42.3276,41.124 41.7050667,41.3104615 41.0657333,41.4849231 L41.0657333,35.1406154 L41.0666667,35.1406154 Z M44.8,33.9950769 C45.066,33.8972308 45.3254667,33.7956923 45.584,33.6941538 C45.6530667,33.6673846 45.724,33.6415385 45.7921333,33.6138462 C46.0898667,33.4938462 46.3801333,33.3710769 46.6666667,33.2455385 L46.6666667,39.4550769 C46.0721333,39.7366154 45.4496,40.0052308 44.8,40.2590769 L44.8,33.9950769 L44.8,33.9950769 Z M48.5333333,32.3455385 L48.6322667,32.2947692 L48.7526667,32.232 C49.2407966,31.9665525 49.7189808,31.6835954 50.1862667,31.3836923 C50.2572,31.3384615 50.3309333,31.2941538 50.4009333,31.248 L50.4009333,37.2332308 C49.8344,37.6643077 49.2090667,38.0769231 48.5342667,38.472 L48.5342667,32.3455385 L48.5333333,32.3455385 L48.5333333,32.3455385 Z M5.6,31.2489231 C5.67093333,31.2950769 5.74466667,31.3403077 5.81653333,31.3864615 C5.8996,31.4390769 5.98266667,31.4926154 6.06666667,31.5443077 C6.44653333,31.7796923 6.83853333,32.0104615 7.2492,32.2329231 L7.36306667,32.292 C7.39666667,32.3104615 7.43213333,32.328 7.46666667,32.3455385 L7.46666667,38.472 C6.81997875,38.0963323 6.19663886,37.6826675 5.6,37.2332308 L5.6,31.2489231 L5.6,31.2489231 Z M9.33333333,33.2446154 C9.6208,33.3701538 9.91106667,33.4938462 10.2097333,33.6138462 C10.276,33.6406154 10.3450667,33.6655385 10.4122667,33.6923077 C10.6726667,33.7947692 10.9330667,33.8972308 11.2,33.9950769 L11.2,40.2590769 C10.5687814,40.0119892 9.94620257,39.7438356 9.33333333,39.4550769 L9.33333333,33.2446154 Z M13.0666667,34.6181538 C13.2309333,34.668 13.3942667,34.7187692 13.5613333,34.7676923 L13.8525333,34.8498462 C14.2081333,34.9504615 14.5674667,35.0483077 14.9333333,35.1415385 L14.9333333,41.4867692 C14.306526,41.3159495 13.6841114,41.1297381 13.0666667,40.9283077 L13.0666667,34.6181538 L13.0666667,34.6181538 Z M16.8,35.5763077 L17.2648,35.6713846 C17.3852,35.6953846 17.5074667,35.7175385 17.6278667,35.7406154 C18.1505418,35.841039 18.6748333,35.9330512 19.2005333,36.0166154 L19.4618667,36.06 L19.6,36.0821538 L19.6,42.4883077 C18.6614314,42.3377561 17.7276727,42.1592132 16.8,41.9529231 L16.8,35.5763077 L16.8,35.5763077 Z M21.4666667,36.3276923 C21.5422667,36.336 21.6197333,36.3406154 21.6953333,36.3489231 C22.2712,36.4116923 22.8526667,36.468 23.4425333,36.5141538 L23.6161333,36.5289231 C23.8308,36.5446154 24.0501333,36.5566154 24.2666667,36.5704615 L24.2666667,43.0227692 C23.3310336,42.9588817 22.3973489,42.8696173 21.4666667,42.7550769 L21.4666667,36.3276923 L21.4666667,36.3276923 Z M1.86666667,31.1538462 L1.86666667,27.9129231 C1.8956,27.9507692 1.932,27.9858462 1.96186667,28.0236923 C2.17653333,28.2941538 2.40333333,28.5609231 2.64973333,28.8221538 L2.70013333,28.8784615 C2.96426667,29.1553846 3.25173333,29.4249231 3.55133333,29.6898462 L3.73333333,29.8486154 L3.73333333,35.5163077 C2.53586667,34.1566154 1.86666667,32.6843077 1.86666667,31.1538462 L1.86666667,31.1538462 Z M26.1333333,43.1178462 L26.1333333,36.66 C26.7502667,36.6793846 27.3709333,36.6923077 28,36.6923077 C28.6290667,36.6923077 29.2497333,36.6793846 29.8666667,36.66 L29.8666667,43.1178462 C29.2447025,43.1405467 28.6223862,43.1525485 28,43.1538462 C27.3776138,43.1525485 26.7552975,43.1405467 26.1333333,43.1178462 Z M54.1333333,27.9129231 L54.1333333,31.1538462 C54.1333333,32.6843077 53.4641333,34.1566154 52.2666667,35.5172308 L52.2666667,29.8495385 C52.3292,29.796 52.3889333,29.7424615 52.4496,29.688 C52.7482667,29.4230769 53.0348,29.1544615 53.2989333,28.8784615 L53.3512,28.8203077 C53.5976,28.5590769 53.8244,28.2932308 54.0381333,28.0227692 C54.068,27.9858462 54.1044,27.9498462 54.1333333,27.9129231 L54.1333333,27.9129231 Z" id="Shape"></path>
                                <path d="M14.910549,30.9008 L14.6639702,30.9904 L17.8741471,31.6652 C18.3235719,31.7594667 18.7869539,31.8322667 19.2447531,31.9134667 C19.3350102,31.9293333 19.4243369,31.9470667 19.514594,31.962 C20.4021626,32.1142006 21.2939427,32.2405648 22.188811,32.3409333 C22.5228555,32.3782667 22.8559695,32.4156 23.193736,32.4454667 C23.8286068,32.5047279 24.4645569,32.5517144 25.1012324,32.5864 C25.2203346,32.5929333 25.3385063,32.6013333 25.4576086,32.6069333 C27.1070443,32.6851839 28.759231,32.6858068 30.4087249,32.6088 C30.5343405,32.6032 30.6590257,32.5948 30.7846413,32.5882667 C31.7659438,32.5343812 32.745521,32.452526 33.7221858,32.3428 C34.6248936,32.239379 35.5246847,32.1117779 36.4205954,31.9601333 L36.5899439,31.9302667 C37.0375077,31.8518667 37.4915849,31.7818667 37.9298438,31.6913333 L41.0916355,31.0370667 L40.857153,30.9493333 C47.7576377,28.9622667 52.1579063,25.5602667 52.1579063,22.4 C52.1579063,17.5541333 41.8118317,12.1333333 27.9652685,12.1333333 C14.1187053,12.1333333 3.77263072,17.5541333 3.77263072,22.4 C3.77263072,25.5350667 8.10590434,28.9081333 14.910549,30.9008 L14.910549,30.9008 Z M24.1781902,26.1324 C22.2651109,25.5070667 21.1745812,24.4253333 20.9363767,22.9189333 L20.8358843,22.2852 L20.2096671,22.1517333 C19.7974618,22.064 19.6616108,21.9165333 19.6355572,21.9137333 L19.8504995,21.2137333 C19.8756226,21.1325333 20.1296453,20.8544 20.7270174,20.6836 L21.1448056,20.5641333 L21.321598,20.1665333 C21.554016,19.6421061 21.87973,19.1645328 22.2827901,18.7572 C22.4558605,18.5817333 22.5972944,18.452 22.7126747,18.3474667 C23.1099922,17.9834667 23.3593625,17.6969333 23.4319404,17.2386667 C23.4371605,17.2406797 23.4424353,17.2425471 23.4477586,17.2442667 C24.8099903,17.7426667 26.3834422,17.7949333 27.4655975,17.7501333 C27.6284326,17.7436 27.7949896,17.7398667 27.9652685,17.7398667 C31.7207103,17.7398667 33.8310527,18.5154667 34.6070781,20.1796 L34.7866619,20.566 L35.1960758,20.6826667 C35.7981002,20.8534667 36.0539839,21.1316 36.0800375,21.2146667 L36.3014932,21.8717333 C36.281953,21.9090667 36.1274923,22.0658667 35.7199394,22.1517333 L35.0946528,22.2852 L34.9941603,22.9189333 C34.7559558,24.4262667 33.6644957,25.5070667 31.7523468,26.1324 L31.0293591,26.3685333 L31.2526758,28.3117333 C31.3289757,28.9744 31.8212028,29.554 32.5367466,29.8209333 L34.1083375,30.4108 C33.9250318,30.4341333 33.743587,30.4584 33.5584203,30.4789333 C32.9480214,30.5470667 32.3301787,30.6030667 31.7058225,30.6488 C31.4127194,30.6702667 31.1261297,30.6973333 30.8274437,30.7141333 C28.9077003,30.8191336 26.983654,30.8181989 25.064013,30.7113333 C24.763466,30.6945333 24.4740848,30.6684 24.1800512,30.646 C23.5589606,30.6003945 22.9388264,30.5425166 22.3200095,30.4724 C22.1329818,30.4509333 21.9487456,30.4266667 21.7645094,30.4033333 L23.3705283,29.8218667 C24.1009599,29.5568 24.6024919,28.9753333 24.6797222,28.3042667 L24.9021084,26.3694667 L24.1781902,26.1324 L24.1781902,26.1324 Z M27.9652685,14 C41.8183451,14 50.2969342,19.4385333 50.2969342,22.4 C50.2969342,24.5765333 45.7040549,28.084 37.7781746,29.7938667 L33.1880868,28.0728 C33.1541531,28.060512 33.1219408,28.043886 33.0922468,28.0233333 L33.0485139,27.6416 C35.3970607,26.6662667 36.348948,25.1225333 36.7071851,23.7962667 C37.2412841,23.5797333 37.6572114,23.2437333 37.9056512,22.82 C38.1648407,22.381148 38.2257376,21.8524393 38.0731387,21.3658667 L37.8591269,20.6668 C37.6451151,19.9658667 37.0002882,19.3676 36.1023692,19.0194667 C34.5028636,16.2092 30.7204378,15.8732 27.9652685,15.8732 C27.768936,15.8732 27.5772558,15.8778667 27.3883672,15.8853333 C26.097783,15.9357333 24.9253705,15.7976 24.0860721,15.4905333 C23.6189681,15.3197333 23.4142612,15.1946667 23.3342393,15.1358667 C22.9322694,14.84 22.4121277,14.8782667 22.0743612,15.0490667 C21.7281459,15.2180656 21.5071898,15.569134 21.5039733,15.9553333 C21.5039733,16.1653333 21.5197915,16.4126667 21.5653853,16.6889333 C21.5756207,16.7496 21.5849255,16.8028 21.5905085,16.8476 L21.4574489,16.968 C21.3243894,17.0893333 21.1606239,17.2405333 20.9596389,17.4430667 C20.4979173,17.9106851 20.1084007,18.4448422 19.8039752,19.0278667 C18.9181525,19.3778667 18.283561,19.9714667 18.0714101,20.6649333 L17.8573983,21.364 C17.7047995,21.8505726 17.7656963,22.3792813 18.0248858,22.8181333 C18.2733256,23.2418667 18.6883224,23.5778667 19.2224214,23.7944 C19.5806585,25.1206667 20.5325458,26.6644 22.8810926,27.6397333 L22.8382903,28.0121333 C22.8073989,28.0341912 22.7735707,28.0517854 22.7377978,28.0644 L18.0388431,29.7658667 C10.1836797,28.0485333 5.63360286,24.5653333 5.63360286,22.4 C5.63360286,19.4385333 14.1121919,14 27.9652685,14 Z M50.0224408,47.04 C50.009414,47.0222667 49.9889433,47.0138667 49.974986,46.9970667 C49.9318192,46.949872 49.8841355,46.9070442 49.8326216,46.8692 C49.7860973,46.8337333 49.741434,46.7982667 49.6902573,46.7730667 C49.6511235,46.7543174 49.6106986,46.7384098 49.5692941,46.7254667 L49.5637111,46.7226667 C49.5525453,46.718 49.540449,46.7208 49.5283527,46.7170667 C49.4671714,46.6978897 49.4041882,46.6850668 49.3403945,46.6788 C49.3189933,46.6778667 49.3003836,46.6666667 49.2780519,46.6666667 L44.6256216,46.6666667 C44.1117283,46.6666667 43.6951355,47.0845342 43.6951355,47.6 C43.6951355,48.1154658 44.1117283,48.5333333 44.6256216,48.5333333 L47.8795314,48.5333333 C46.6857177,51.3212 44.7577506,54.1333333 41.8341634,54.1333333 C39.8261744,54.1333333 37.8414476,52.3301333 36.2447336,49.0569333 C36.0188775,48.5937873 35.4614763,48.4019861 34.9997432,48.6285333 C34.5380101,48.8550805 34.346794,49.4141873 34.5726501,49.8773333 C37.0412296,54.9378667 39.8847951,56 41.8341634,56 C44.0850092,56 47.1537522,54.8072 49.5032296,49.4564 L51.3251213,51.8933333 C51.4727304,52.0919922 51.6932289,52.223401 51.9377552,52.2584403 C52.1822814,52.2934795 52.4306422,52.2292554 52.6278018,52.08 C52.825226,51.9314788 52.9557443,51.7103741 52.9906443,51.4653266 C53.0255443,51.2202791 52.9619671,50.9713616 52.813899,50.7733333 L50.0224408,47.04 L50.0224408,47.04 Z M4.97761018,8.96 C4.9897065,8.97586667 5.00831622,8.98146667 5.02134303,8.9964 C5.08461608,9.072 5.16091594,9.1308 5.24652066,9.18306667 C5.2772267,9.20266667 5.30234982,9.2288 5.33584732,9.24373333 C5.36655336,9.25773333 5.40005086,9.26333333 5.43168738,9.27453333 C5.43354836,9.27546667 5.43447884,9.27733333 5.4372703,9.27733333 C5.46518488,9.2876 5.49309946,9.2848 5.52101405,9.29226667 C5.58707856,9.30813333 5.65035161,9.33333333 5.72199904,9.33333333 L10.3744294,9.33333333 C10.8883226,9.33333333 11.3049154,8.91546577 11.3049154,8.4 C11.3049154,7.88453423 10.8883226,7.46666667 10.3744294,7.46666667 L7.1205196,7.46666667 C8.31433322,4.6788 10.2423004,1.86666667 13.1658876,1.86666667 C15.1738765,1.86666667 17.1586033,3.66986667 18.7553174,6.94306667 C18.9811735,7.40621266 19.5385747,7.59801387 20.0003078,7.37146667 C20.4620409,7.14491946 20.653257,6.58581266 20.4274009,6.12266667 C17.9588213,1.06213333 15.1152559,0 13.1658876,0 C10.9150418,0 7.84629873,1.1928 5.49682141,6.5436 L3.67492968,4.10666667 C3.36659373,3.69429405 2.7833638,3.61072054 2.37224919,3.92 C1.96113458,4.22927946 1.87781602,4.81429405 2.18615197,5.22666667 L4.97761018,8.96 L4.97761018,8.96 Z" id="Shape"></path>
                            </g>
                        </g>
                    </g>
                </g>
            </g>
        </g>
    </g>
</svg>