<?xml version="1.0" encoding="UTF-8"?>
<svg width="54px" height="58px" viewBox="0 0 54 58" version="1.1" xmlns="http://www.w3.org/2000/svg" xmlns:xlink="http://www.w3.org/1999/xlink">
    <!-- Generator: sketchtool 46.2 (44496) - http://www.bohemiancoding.com/sketch -->
    <title>36463EF6-69A0-45C4-8C04-1D90073C21D5</title>
    <desc>Created with sketchtool.</desc>
    <defs></defs>
    <g id="Page-1" stroke="none" stroke-width="1" fill="none" fill-rule="evenodd" opacity="0.88">
        <g id="Header-10" transform="translate(-529.000000, -1662.000000)" fill-rule="nonzero" fill="#FFFFFF">
            <g id="003-pie-chart" transform="translate(529.000000, 1662.000000)">
                <path d="M53.8022593,11.7271678 C48.7975314,4.38386532 40.3535046,0 31.2145918,0 C30.5437617,0 30,0.521179563 30,1.16389542 L30,25.8361046 C30,26.2631363 30.2441331,26.6559325 30.6359369,26.8594059 C30.8169526,26.9534396 31.0158317,27 31.2145918,27 C31.4459823,27 31.6770155,26.9366642 31.8779192,26.8112479 L53.4485641,13.3386363 C53.7185395,13.1699691 53.9075342,12.9053281 53.973986,12.6031421 C54.0403188,12.3007278 53.9786305,11.9856464 53.8022593,11.7271678 Z M32.4293026,23.6881646 L32.4293026,2.35620636 C39.871193,2.70540922 46.6989398,6.25050297 51.0788061,12.0398527 L32.4293026,23.6881646 Z" id="Shape"></path>
                <path d="M49.619836,18.5743211 C49.2526359,18.0435873 48.4996312,17.8940087 47.9372032,18.2401345 L28.2162087,30.3798808 L28.2162087,8.14875925 C28.2162087,7.51440176 27.6716697,7 26.9998807,7 C20.8385756,7 14.8111989,9.0131164 10.0281762,12.6687817 C3.65518536,17.5394353 0,24.7676417 0,32.5 C0,39.311346 2.80844269,45.7149552 7.90809949,50.531319 C13.0077563,55.3474576 19.7880184,58 27,58 C34.2119816,58 40.9922437,55.3474576 46.0919005,50.5312064 C51.191438,45.7148426 54,39.3112334 54,32.4998874 C54,27.5333818 52.4852847,22.717919 49.619836,18.5743211 Z M25.783672,9.3262403 L25.783672,29.2510579 L12.5227278,13.7549162 C16.3793425,11.0980936 21.0098323,9.55162194 25.783672,9.3262403 Z M27,55.7024815 C13.4535484,55.7024815 2.43277517,45.2939275 2.43277517,32.5 C2.43277517,25.8484823 5.40555749,19.6067289 10.6310331,15.1995662 L26.0540334,33.2222124 C26.4461587,33.6802969 27.1416803,33.7840333 27.6642756,33.4625744 L48.2225913,20.8073 C50.4144622,24.3474023 51.5674633,28.365976 51.5674633,32.5001126 C51.5672248,45.2939275 40.5464516,55.7024815 27,55.7024815 Z" id="Shape"></path>
                <path d="M44.8093576,26.5097365 C44.4549224,25.9904758 43.7269245,25.8437497 43.1830578,26.1820776 L35.5338951,30.9381358 C34.9901436,31.2762437 34.8363169,31.9711577 35.1906369,32.4904184 C35.4159037,32.820607 35.792347,33 36.1765105,33 C36.3963617,33 36.6188631,32.9412656 36.8169366,32.8180773 L44.4662146,28.062019 C45.0098508,27.7239111 45.1636775,27.0288871 44.8093576,26.5097365 Z" id="Shape"></path>
                <path d="M48.7930558,23.611262 C48.4083719,22.9886808 47.6184942,22.8125532 47.0280868,23.2183722 L46.5793723,23.5268263 C45.989215,23.9325133 45.8223853,24.7660518 46.2069442,25.3888968 C46.4514361,25.784821 46.8600065,26 47.2768308,26 C47.5154449,26 47.7570604,25.929549 47.9719132,25.7817865 L48.4206277,25.4733325 C49.010785,25.0675135 49.1776147,24.2339751 48.7930558,23.611262 Z" id="Shape"></path>
            </g>
        </g>
    </g>
</svg>