<?xml version="1.0" encoding="UTF-8"?>
<svg width="95px" height="95px" viewBox="0 0 95 95" version="1.1" xmlns="http://www.w3.org/2000/svg" xmlns:xlink="http://www.w3.org/1999/xlink">
    <!-- Generator: sketchtool 46.2 (44496) - http://www.bohemiancoding.com/sketch -->
    <title>3B0EAB91-EDA1-48DB-828A-2D9138F8EA56</title>
    <desc>Created with sketchtool.</desc>
    <defs></defs>
    <g id="Page-1" stroke="none" stroke-width="1" fill="none" fill-rule="evenodd">
        <g id="Header-10" transform="translate(-363.000000, -6162.000000)">
            <g id="Footer-1-(dark)" transform="translate(0.000000, 4917.000000)">
                <g id="Group-12" transform="translate(365.000000, 926.000000)">
                    <g id="Group-8" transform="translate(0.000000, 321.000000)">
                        <g id="Group-2">
                            <g id="005-close-envelope" transform="translate(27.000000, 33.000000)" fill-rule="nonzero" fill="#BCBCBC">
                                <path d="M18.1536852,18.1536852 L13.6619448,14.2221156 L0.819509216,25.231029 C1.28631826,25.6641241 1.91651048,25.9338359 2.61153728,25.9338359 L33.695833,25.9338359 C34.3882665,25.9338359 35.0158653,25.6641241 35.480081,25.231029 L22.6454256,14.2221156 L18.1536852,18.1536852 Z" id="Shape"></path>
                                <path d="M35.4878611,0.702806954 C35.0210521,0.26711851 34.3934532,0 33.695833,0 L2.61153728,0 C1.91910386,0 1.29150503,0.269711894 0.824695983,0.707993721 L18.1536852,15.5603016 L35.4878611,0.702806954 Z" id="Shape"></path>
                                <polygon id="Shape" points="0 2.2769908 0 23.8228217 12.5338229 13.1717953"></polygon>
                                <polygon id="Shape" points="23.7735474 13.1717953 36.3073703 23.8228217 36.3073703 2.26921065"></polygon>
                            </g>
                            <circle id="Oval-2" stroke="#979797" stroke-width="3" opacity="0.5" cx="45.5" cy="45.5" r="45.5"></circle>
                        </g>
                    </g>
                </g>
            </g>
        </g>
    </g>
</svg>