<?xml version="1.0" encoding="UTF-8"?>
<svg width="124px" height="124px" viewBox="0 0 124 124" version="1.1" xmlns="http://www.w3.org/2000/svg" xmlns:xlink="http://www.w3.org/1999/xlink">
    <!-- Generator: sketchtool 46.2 (44496) - http://www.bohemiancoding.com/sketch -->
    <title>0C472C4D-7DEE-46F1-AB4A-4A5220926999</title>
    <desc>Created with sketchtool.</desc>
    <defs></defs>
    <g id="Page-1" stroke="none" stroke-width="1" fill="none" fill-rule="evenodd">
        <g id="Header-10" transform="translate(-966.000000, -2239.000000)">
            <g id="Group-17" transform="translate(106.000000, 2196.000000)">
                <g id="Group-15">
                    <g id="Group-4" transform="translate(37.000000, 45.000000)">
                        <g id="road6" transform="translate(825.000000, 0.000000)">
                            <path d="M40.165,59.697 L39.095,58.627 C38.1604603,57.6967921 37.6365868,56.4315748 37.64,55.113 C37.64,52.433 39.777,50.256 42.434,50.163 C42.5262621,47.5642958 44.6113152,45.4788061 47.21,45.386 C47.302294,42.7869248 49.3879248,40.701294 51.987,40.609 C52.055,38.662 53.24,37.233 54.927,36.481 L52.902,34.688 L51.036,34.688 L34.456,50.804 L34.456,59.038 L37.64,62.222 L40.165,59.697 L40.165,59.697 Z M42.417,26.922 L27.155,42.184 L32.864,47.892 L48.126,32.63 L42.416,26.922 L42.417,26.922 Z M38.105,34.688 L41.289,31.504 L43.541,33.756 L40.356,36.94 L38.106,34.688 L38.105,34.688 Z M47.193,94.062 L52.902,88.353 L37.64,73.093 L31.931,78.803 L47.193,94.063 L47.193,94.062 Z M45.134,84.043 L48.318,87.228 L46.068,89.478 L42.883,86.295 L45.134,84.043 Z M85.403,57.172 L68.821,41.057 L63.773,41.057 L85.403,62.221 L85.403,57.172 Z M71.733,86.763 L77.443,92.47 L92.704,77.21 L86.995,71.5 L71.733,86.763 Z M84.937,81.52 L82.684,79.267 L85.868,76.083 L88.119,78.334 L84.937,81.52 Z M51.97,77.21 L51.97,71.5 L42.417,61.948 L39.232,65.133 L39.232,70.183 L55.812,87.228 L60.862,87.228 L52.434,78.568 C52.136,78.268 51.969,77.632 51.969,77.21 L51.97,77.21 Z" id="Shape"></path>
                            <path d="M67.424,53.794 L65.171,56.044 L53.423,44.297 C52.7179698,43.6484802 51.6269739,43.6712447 50.9496093,44.3486093 C50.2722447,45.0259739 50.2494802,46.1169698 50.898,46.822 L62.646,58.57 L60.394,60.821 L48.646,49.073 C47.9409698,48.4244802 46.8499739,48.4472447 46.1726093,49.1246093 C45.4952447,49.8019739 45.4724802,50.8929698 46.121,51.598 L57.87,63.346 L55.62,65.597 L43.87,53.85 C43.1649698,53.2014802 42.0739739,53.2242447 41.3966093,53.9016093 C40.7192447,54.5789739 40.6964802,55.6699698 41.345,56.375 L59.461,74.492 L57.211,76.743 L55.151,74.686 L55.151,76.552 L63.771,85.637 L68.821,85.637 L85.401,68.59 L85.401,66.724 L58.802,40.124 L58.199,39.521 C57.4939698,38.8724802 56.4029739,38.8952447 55.7256093,39.5726093 C55.0482447,40.2499739 55.0254802,41.3409698 55.674,42.046 L67.424,53.795 L67.424,53.794 Z M92.703,48.552 L77.44,33.291 L71.731,39 L86.994,54.26 L92.703,48.552 Z M79.5,43.308 L76.315,40.124 L78.567,37.873 L81.751,41.057 L79.5,43.308 L79.5,43.308 Z" id="Shape"></path>
                            <g id="Group" transform="translate(31.000000, 30.000000)" fill-rule="nonzero" fill="#B0834D">
                                <path d="M46.5354091,31.4741119 C46.5354091,31.1925736 46.4223925,30.9210664 46.2237776,30.7217827 L45.9114773,30.4094825 L46.2237776,30.097851 C46.4223925,29.8972298 46.5354091,29.6270601 46.5354091,29.344853 L46.5354091,25.5270328 L59,13.0624419 L57.4933353,11.5564459 L50.7932582,18.256523 L40.5869925,8.05025729 L47.2877383,1.34951148 L45.7817423,0 L33.3171514,12.6210754 L29.4993313,12.6210754 C29.2171242,12.6210754 28.9456169,12.5769388 28.747002,12.7775599 L28.4347018,13.0116179 L28.1230703,12.6611996 L27.7191531,12.2385578 L23.8638837,8.52907306 C23.6632625,8.32845193 23.3930927,8.36188879 23.1115544,8.36188879 L21.4229932,8.36188879 L13.2175889,0.00133747421 L11.711593,1.4290912 L14.1524834,3.83052615 L3.94688641,14.0180672 L1.50599596,11.5671457 L0,13.0671231 L8.2054043,21.268515 L8.2054043,27.215594 C8.2054043,27.4978011 8.3170834,27.7679709 8.51770453,27.968592 L11.3999615,30.850849 L11.3999615,34.2279713 L0.00133747421,45.6265953 L1.50599596,47.1312538 L7.1421123,41.4971437 L17.348378,51.7034094 L11.7129304,57.3381883 L13.2175889,58.9986625 L24.6175504,47.7558543 L28.4360393,47.7558543 C28.718329,47.7557481 28.9889903,47.6433935 29.1883685,47.4435541 L29.9413665,46.6912248 L33.3184889,46.6912248 L45.7830798,59 L47.2877383,57.4164305 L40.5889987,50.676898 L50.7952644,40.4519076 L57.494004,47.1426224 L58.9993313,45.6312765 L46.5354091,33.1626731 L46.5354091,31.4747807 L46.5354091,31.4741119 Z M39.0830027,9.556922 L49.2885997,19.762519 L45.4707796,23.5796704 L35.2645139,13.3734047 L39.0830027,9.556922 L39.0830027,9.556922 Z M33.3171514,14.7503344 L44.4048126,25.5270328 L44.4048126,28.9041552 L29.9413665,14.7503344 L33.3171514,14.7503344 L33.3171514,14.7503344 Z M44.4061501,31.9154784 L44.4061501,33.1633419 L33.3171514,44.5619659 L29.940029,44.5619659 L24.1755152,38.4851518 L24.1755152,37.2372883 L25.5531136,38.6148868 L27.0577721,37.1088908 L14.9429307,24.9947181 C14.5092414,24.5232382 14.5244649,23.7936488 14.9774437,23.34067 C15.4304225,22.8876911 16.160012,22.8724677 16.6314919,23.3061569 L24.4878154,31.1624804 L25.9931426,29.6558157 L18.1368191,21.7994922 C17.9128281,21.5763595 17.7871703,21.2730477 17.7877383,20.9568835 C17.7888675,20.474666 18.0797072,20.0403777 18.5251732,19.8557293 C18.9706392,19.6710809 19.4834327,19.7722584 19.8253803,20.1122685 L27.6817038,27.968592 L29.1876998,26.4619273 L21.3313762,18.6056038 C21.1069752,18.3824179 20.9810573,18.0788187 20.9816267,17.7623263 C20.9824885,17.2798161 21.2734338,16.8451634 21.7191911,16.6604549 C22.1649485,16.4757464 22.6780509,16.5772258 23.0199374,16.9177113 L30.8755922,24.7740349 L32.3802507,23.2680389 L24.5245959,15.4117154 C24.3004402,15.1884193 24.1747688,14.8848338 24.1755152,14.5684379 C24.1766443,14.0862204 24.4674841,13.6519321 24.9129501,13.4672837 C25.3584161,13.2826353 25.8712096,13.3838128 26.2131571,13.7238229 L26.6164056,14.1270714 L44.4054814,31.9154784 L44.4061501,31.9154784 Z M15.6598168,5.29773536 L19.477637,9.11622424 L9.27137125,19.3211525 L5.45288237,15.5026636 L15.6598168,5.29773536 Z M10.3360007,21.268515 L21.423662,10.4911477 L22.6715254,10.4911477 L24.025718,11.6901934 C22.8975585,12.1930837 22.1051051,13.2269512 22.0596309,14.5289824 C20.3215832,14.5905062 18.9272663,15.9467051 18.8650738,17.6834153 C17.1276948,17.7449391 15.7327092,19.1212001 15.6711854,20.8585791 C13.8943509,20.9214404 12.4652597,22.36725 12.4652597,24.1601342 C12.4629146,25.0403561 12.8133675,25.884815 13.4382722,26.5047265 L14.1538209,27.2176003 L12.4652597,28.9054927 L10.3360007,26.7748963 L10.3360007,21.268515 Z M18.8537053,50.1967447 L8.64677079,39.9911477 L12.4652597,36.1739963 L22.6708567,46.3802621 L18.8523678,50.1967447 L18.8537053,50.1967447 Z M24.6182191,45.6265953 L13.5298891,34.2259651 L13.5298891,30.8488427 L15.6591481,28.7195838 L22.0469249,35.1073606 L22.0469249,38.9258495 C22.0469249,39.2073878 22.158604,39.6347109 22.3592252,39.8339945 L27.9946728,45.6252579 L24.6175504,45.6252579 L24.6182191,45.6265953 Z M39.0830027,49.1321152 L35.2645139,45.3142951 L45.4707796,35.1093669 L49.2892685,38.9278557 L39.0830027,49.132784 L39.0830027,49.1321152 Z" id="Shape"></path>
                                <path d="M43.3053084,40.1312208 L45.4690993,37.989857 L47,39.5042176 L44.8355293,41.6462542 L43.3053084,40.1312208 Z M16.2460262,44.8586362 L17.7769269,43.3442756 L19.9407178,45.4856394 L18.4111766,47 L16.2460262,44.8586362 Z M13,10.1413638 L15.1637909,8 L16.6940118,9.51503338 L14.5302209,11.6563972 L13,10.1413638 Z M38.9756873,13.7984337 L40.5059082,12.2840731 L42.6696991,14.4254369 L41.140158,15.9404702 L38.9756873,13.7984337 Z" id="Shape"></path>
                            </g>
                            <circle id="Oval" stroke="#FFFFFF" stroke-width="3" opacity="0.5" cx="60" cy="60" r="60"></circle>
                        </g>
                    </g>
                </g>
            </g>
        </g>
    </g>
</svg>