<?xml version="1.0" encoding="UTF-8"?>
<svg width="123px" height="123px" viewBox="0 0 123 123" version="1.1" xmlns="http://www.w3.org/2000/svg" xmlns:xlink="http://www.w3.org/1999/xlink">
    <!-- Generator: sketchtool 46.2 (44496) - http://www.bohemiancoding.com/sketch -->
    <title>A6BF4E80-664D-4FE4-95EA-8F1D6822E106</title>
    <desc>Created with sketchtool.</desc>
    <defs></defs>
    <g id="Page-1" stroke="none" stroke-width="1" fill="none" fill-rule="evenodd">
        <g id="Header-10" transform="translate(-1172.000000, -2240.000000)">
            <g id="Group-17" transform="translate(106.000000, 2196.000000)">
                <g id="Group-15">
                    <g id="Group-4" transform="translate(37.000000, 45.000000)">
                        <g id="road7" transform="translate(1031.000000, 1.000000)">
                            <path d="M72.883,74.979 C72.109,74.375 70.986,74.073 69.514,74.073 L54.738,74.073 C55.209,73.356 55.672,72.743 56.125,72.233 C57.182,70.95 59.13,69.148 61.97,66.826 C64.81,64.506 66.834,62.802 68.042,61.717 C69.25,60.632 70.434,59.132 71.595,57.217 C72.755,55.301 73.335,53.173 73.335,50.833 C73.335,49.343 73.057,47.903 72.501,46.516 C71.9618176,45.1569404 71.1690644,43.9128337 70.165,42.85 C69.1764675,41.8024185 67.9939132,40.9567665 66.683,40.36 C64.645,39.453 62.183,39 59.295,39 C56.899,39 54.809,39.354 53.025,40.062 C51.242,40.77 49.77,41.699 48.609,42.85 C47.449,44.002 46.576,45.285 45.991,46.7 C45.406,48.115 45.114,49.474 45.114,50.776 C45.114,51.852 45.424,52.701 46.048,53.324 C46.67,53.947 47.453,54.258 48.398,54.258 C49.473,54.258 50.288,53.918 50.846,53.239 C51.402,52.559 51.902,51.589 52.346,50.324 C52.789,49.059 53.106,48.285 53.294,48.002 C54.71,45.832 56.653,44.747 59.126,44.747 C60.296,44.747 61.376,45.012 62.366,45.54 C63.3383415,46.0510583 64.1513405,46.8197748 64.716,47.762 C65.292,48.715 65.579,49.795 65.579,51.002 C65.579,52.116 65.31,53.253 64.773,54.414 C64.235,55.574 63.451,56.707 62.423,57.811 C61.394,58.915 60.106,60.014 58.559,61.108 C57.691,61.693 56.247,62.915 54.229,64.774 C52.209,66.634 49.944,68.864 47.435,71.469 C46.831,72.111 46.275,72.993 45.765,74.115 C45.255,75.239 45,76.139 45,76.819 C45,77.876 45.397,78.796 46.19,79.579 C46.982,80.362 48.086,80.753 49.501,80.753 L70.335,80.753 C71.581,80.753 72.51,80.433 73.123,79.791 C73.736,79.15 74.043,78.366 74.043,77.441 C74.043,76.404 73.656,75.583 72.883,74.979 L72.883,74.979 Z" id="Shape" fill="#B0834D" fill-rule="nonzero"></path>
                            <circle id="Oval" stroke="#FFFFFF" stroke-width="3" opacity="0.5" cx="59.5" cy="59.5" r="59.5"></circle>
                        </g>
                    </g>
                </g>
            </g>
        </g>
    </g>
</svg>